<svg width="14" height="16" viewBox="0 0 14 16" fill="none" xmlns="http://www.w3.org/2000/svg">
<path d="M1.35165e-05 12.7213V15.6445C1.35165e-05 15.8356 0.156333 15.9919 0.34739 15.9919H6.54632C6.73738 15.9919 6.8937 15.8356 6.8937 15.6445V12.7213C6.8937 12.7213 6.9076 11.8268 6.04263 11.641C5.40172 11.5038 4.81118 11.3145 4.5107 10.9497H2.38128C2.0808 11.3145 1.492 11.5038 0.849349 11.641C-0.0138815 11.8286 1.35165e-05 12.7213 1.35165e-05 12.7213Z" fill="#FFDC73"/>
<path d="M12.6566 4.20892C12.693 4.14639 12.6878 4.0665 12.6444 4.00744C12.568 3.9067 12.4881 3.81291 12.4082 3.72954C12.1841 3.49506 12.3752 3.10774 12.6982 3.14421C12.7851 3.15463 12.8754 3.16679 12.964 3.18069C13.0526 3.19458 13.1394 3.14421 13.1655 3.05737C13.532 1.91102 13.499 0.823734 13.4225 0.167192C13.4017 -0.00475919 13.1776 -0.053392 13.0873 0.0959801C12.726 0.689994 11.7933 1.6227 9.39297 2.27056C6.08768 3.16158 5.0612 5.65227 4.74856 6.93585C4.23792 7.43086 3.74117 7.94149 3.26005 8.4643C3.24789 8.47645 3.23747 8.49036 3.22705 8.50425H4.5905C4.85798 8.22809 5.12894 7.95538 5.40336 7.68616C9.62744 7.41002 11.6857 5.87459 12.6566 4.20892Z" fill="#FFDC73"/>
<path d="M4.07989 9.04626H3.16802H1.87057C1.67951 9.04626 1.52319 9.20258 1.52319 9.39364V10.0224C1.52319 10.2134 1.67951 10.3698 1.87057 10.3698H5.02475C5.21581 10.3698 5.37213 10.2134 5.37213 10.0224V9.39364C5.37213 9.20258 5.21581 9.04626 5.02475 9.04626H4.07989Z" fill="#FFDC73"/>
</svg>
