<svg width="348" height="763" viewBox="0 0 348 763" fill="none" xmlns="http://www.w3.org/2000/svg">
<path d="M262.005 146.743C268.371 133.142 282.9 123.867 297.865 123.527C291.217 121.302 282.785 120.014 276.432 120.767C269.152 121.63 261.974 124.606 257.026 129.942L257.026 129.942C252.599 134.704 250.158 141.094 249.104 147.594C248.084 153.889 247.58 161.006 247.751 167.43C250.678 166.137 253.187 163.936 255.142 161.346C256.74 159.229 257.873 156.831 258.9 154.327C259.24 153.497 259.57 152.651 259.902 151.8C260.564 150.103 261.233 148.387 262.005 146.743ZM262.005 146.743C262.005 146.743 262.005 146.743 262.005 146.743L262.458 146.955L262.005 146.742C262.005 146.743 262.005 146.743 262.005 146.743Z" stroke="#FFDC73" stroke-opacity="0.1"/>
<path d="M290.066 145.215L290.068 145.214C291.866 144.583 292.821 142.593 292.177 140.779C291.532 138.977 289.552 138.024 287.741 138.668C285.939 139.312 284.986 141.292 285.63 143.104C286.274 144.906 288.255 145.859 290.066 145.215Z" stroke="#FFDC73" stroke-opacity="0.1"/>
<path d="M315.128 137.389C316.717 136.774 318.337 136.226 319.969 135.724C319.981 135.717 319.992 135.711 319.998 135.708C320.006 135.703 320.02 135.697 320.026 135.694L320.04 135.688C320.043 135.687 320.046 135.686 320.048 135.686C320.051 135.684 320.054 135.683 320.056 135.683L320.071 135.677L320.091 135.671L320.113 135.664C320.144 135.655 320.191 135.641 320.248 135.623C320.364 135.589 320.529 135.54 320.708 135.488C320.887 135.435 321.081 135.379 321.256 135.328C321.432 135.277 321.59 135.231 321.696 135.201L321.767 135.181C321.787 135.175 321.804 135.17 321.819 135.167L321.842 135.161C321.846 135.16 321.852 135.158 321.859 135.157L321.875 135.154L321.887 135.151L321.9 135.15C325.795 134.013 330.429 132.903 334.995 132.589C339.009 132.312 343.015 132.646 346.428 134.153C345.4 132.966 344.038 132.009 342.59 131.4L342.59 131.4L342.587 131.399C339.802 130.211 336.7 130.02 333.559 129.828C330.486 129.645 326.889 129.635 323.272 129.624L323.262 129.624C319.769 129.614 316.257 129.604 313.213 129.436C311.329 132.44 309.922 135.746 309.04 139.179C311.229 142.355 314.325 144.963 317.752 146.801C321.271 146.179 324.493 144.473 327.643 142.583C328.14 142.285 328.638 141.981 329.138 141.676C331.833 140.033 334.589 138.352 337.609 137.275C339.194 136.709 340.886 136.324 342.585 136.213C338.982 134.837 334.48 134.705 329.945 135.189C324.541 135.766 319.187 137.205 315.453 138.334L315.128 137.389Z" stroke="#FFDC73" stroke-opacity="0.1"/>
<path d="M207.636 155.293L207.636 155.294C211.208 161.303 219.419 164.094 225.916 161.51C230.658 159.621 234.16 155.413 236.744 150.869C237.939 148.766 238.973 146.575 240.017 144.363C240.101 144.186 240.184 144.008 240.268 143.83C241.395 141.446 242.547 139.047 243.926 136.765C250.284 126.227 261.487 118.795 273.617 116.814C266.559 116.31 258.446 117.47 252.883 120.412C246.133 123.983 240.446 129.521 236.686 136.164C235.984 137.406 235.347 138.686 234.704 139.98C234.566 140.256 234.429 140.532 234.29 140.809C233.505 142.378 232.69 143.954 231.734 145.45C229.822 148.443 227.164 151.238 223.695 152.395C219.373 153.84 214.254 152.286 211.464 148.68C210.077 146.896 209.129 144.598 208.83 142.269C208.65 140.869 208.703 139.444 209.047 138.105C205.221 142.834 204.498 150.033 207.636 155.293Z" stroke="#FFDC73" stroke-opacity="0.1"/>
<path d="M236.532 126.887L236.531 126.888C233.983 128.867 231.28 130.641 228.276 131.637C225.272 132.634 221.949 132.806 219.087 131.636L219.086 131.635C216.21 130.464 213.916 127.82 213.597 124.803C213.391 122.765 214.235 120.652 215.69 119.294C215.638 119.431 215.592 119.57 215.551 119.71C215.201 120.919 215.231 122.314 215.645 123.444C216.476 125.71 218.798 127.137 221.111 127.371M236.532 126.887L221.162 126.873M236.532 126.887C237.586 126.073 238.611 125.227 239.643 124.377C239.866 124.193 240.089 124.009 240.313 123.825C241.569 122.793 242.841 121.764 244.171 120.806L244.464 121.212L244.171 120.806C251.222 115.728 259.802 112.776 268.494 112.418L268.496 112.418C273.899 112.212 279.235 113.166 284.331 114.898C276.734 111.744 267.944 110.48 260.825 111.123C250.795 112.029 241.048 115.801 233.005 121.87L233.004 121.871C232.568 122.198 232.132 122.537 231.692 122.879C230.405 123.88 229.085 124.906 227.645 125.725M236.532 126.887L227.397 125.291M221.111 127.371C221.111 127.371 221.112 127.371 221.112 127.371L221.162 126.873M221.111 127.371C221.11 127.371 221.11 127.371 221.109 127.37L221.162 126.873M221.111 127.371C223.423 127.617 225.713 126.831 227.645 125.725M221.162 126.873C223.332 127.105 225.514 126.369 227.397 125.291M227.645 125.725C227.645 125.725 227.644 125.725 227.644 125.725L227.397 125.291M227.645 125.725C227.645 125.725 227.645 125.725 227.645 125.725L227.397 125.291M218.066 117.46C217.457 117.656 216.972 118.062 216.611 118.589L218.066 117.46Z" stroke="#FFDC73" stroke-opacity="0.1"/>
<path d="M303.683 161.612L303.682 161.612C298.832 164.815 290.594 167.271 283.327 166.12L282.861 166.046L282.76 166.506C279.924 179.419 281.912 192.266 285.248 204.966L285.731 204.839L285.248 204.966C286.218 208.658 287.276 212.318 288.332 215.972C290.732 224.274 293.121 232.537 294.437 241.035C293.905 247.124 292.414 253.127 289.98 258.716C292.289 244.36 290.077 230.85 283.385 220.234L277.355 210.657L276.445 211.035L278.955 222.071C278.955 222.071 278.955 222.071 278.955 222.071C281.798 234.582 280.877 246.037 276.451 255.413C278.188 242.165 276.5 229.95 271.414 220.201L266.612 210.993L265.672 211.28L266.831 221.593L266.831 221.594C267.843 230.503 264.848 239.76 259.154 246.726C262.219 238.042 262.892 228.465 260.899 219.519L260.899 219.518L259.139 211.647L258.167 211.631L256.162 219.435L256.162 219.435C254.13 227.365 248.801 234.324 241.874 238.659C246.791 231.576 249.663 222.878 249.575 214.465L249.506 207.399L249.489 205.567L248.573 207.154L245.04 213.28L245.454 213.518L245.04 213.28C240.986 220.309 235.783 225.258 228.985 228.414C242.263 211.558 251.9 191.444 255.166 170.474C255.513 170.277 255.855 170.099 256.196 169.925C256.267 169.888 256.338 169.852 256.409 169.816C256.744 169.646 257.08 169.474 257.408 169.294C258.208 168.852 258.988 168.338 259.713 167.555L303.683 161.612ZM303.683 161.612C308.602 158.372 312.455 154.413 313.879 148.484C310.437 146.442 307.325 143.308 305.427 139.756L305.345 139.603L305.375 139.432C306.04 135.694 307.391 132.381 309.673 129.393C302.05 127.384 293.676 128.04 286.482 131.272C279.059 134.607 272.885 140.634 269.375 147.975L269.375 147.976C268.46 149.888 267.72 151.882 266.994 153.907C266.899 154.171 266.805 154.435 266.711 154.7C266.082 156.461 265.446 158.24 264.705 159.975M303.683 161.612L264.705 159.975M264.705 159.975C264.705 159.975 264.705 159.975 264.705 159.975L264.245 159.779L264.705 159.975ZM297.53 136.13L297.72 136.214L297.795 136.408C299.591 141.114 297.989 146.729 293.771 149.527C291.641 150.946 288.719 151.445 285.852 151.09C282.981 150.735 280.099 149.515 278.048 147.413L277.876 147.237L277.911 146.994C278.519 142.705 281.218 138.776 285.012 136.681C288.805 134.587 293.567 134.375 297.53 136.13Z" stroke="#FFDC73" stroke-opacity="0.1"/>
<path d="M-69.5524 462.892L-69.5521 462.892C-69.2541 462.587 -68.9513 462.282 -68.6465 461.975C-66.4727 459.784 -64.1995 457.493 -62.8792 454.606C-61.3557 451.274 -61.5909 447.518 -64.483 445.054C-66.9277 442.966 -70.1063 443.593 -72.6026 445.056C-73.864 445.796 -74.9967 446.77 -75.8482 447.791C-75.8627 447.808 -75.8771 447.825 -75.8914 447.843C-75.4766 445.726 -74.9626 443.631 -74.3532 441.565C-69.2994 431.272 -63.541 421.317 -57.1728 411.808C-51.3155 405.756 -44.4825 400.996 -37.1094 398.125C-36.9078 398.047 -36.7034 397.969 -36.497 397.89C-34.7343 397.216 -32.8277 396.487 -31.369 395.118C-30.5323 394.333 -29.8878 393.276 -29.597 392.16C-29.3056 391.041 -29.3629 389.83 -29.9852 388.782L-29.9863 388.78C-30.9348 387.199 -32.7579 386.626 -34.615 386.575C-35.8576 386.54 -37.1746 386.736 -38.3875 387.062C-27.2327 374.067 -14.8617 362.264 -1.59272 352.031C0.646397 351.41 2.93816 350.945 5.24356 350.639L5.24375 350.639C7.28536 350.367 9.65086 350.009 11.6428 349.201C13.6414 348.391 15.352 347.089 15.9338 344.882L15.9339 344.882C16.3584 343.266 15.9484 341.643 15.1213 340.279C28.922 331.471 43.4897 324.326 58.5052 319.19C41.3532 329.364 25.7833 341.158 12.101 354.423C10.8056 355.677 9.53818 356.944 8.28603 358.21C0.649925 364.918 -6.63148 372.118 -13.4626 379.783C-40.0214 409.567 -58.983 445.055 -68.2937 482.393C-77.6045 519.732 -77.5077 559.964 -68.0214 598.729C-60.5512 629.293 -47.4592 657.935 -29.7799 682.827C-27.6791 690.016 -27.6 695.02 -27.5324 699.292C-27.5273 699.617 -27.5222 699.938 -27.5164 700.255C-27.4323 704.784 -27.1809 708.614 -24.1399 713.445L-23.7895 713.224L-24.1398 713.445C-19.8861 720.2 -10.9552 722.22 -4.20099 717.967C2.55414 713.713 4.57441 704.783 0.321209 698.028L-0.0994606 698.293L0.321121 698.028C-2.65543 693.305 -5.88734 691.385 -9.79738 689.386C-10.1866 689.187 -10.5827 688.987 -10.9862 688.784C-14.6013 686.96 -18.8107 684.836 -24.0278 680.342C-64.3802 624.396 -79.0694 551.078 -62.3167 483.863C-55.5632 456.787 -43.841 431.226 -28.2011 408.366C-42.3654 435.795 -49.581 465.565 -48.6771 495.067C-48.3494 505.678 -46.8771 516.207 -44.3562 526.516C-44.5964 530.759 -44.8095 535.002 -45.0051 539.249C-45.4777 536.701 -46.1637 534.186 -47.3501 531.863C-49.3509 527.945 -53.152 524.551 -57.6726 524.306C-59.9626 524.182 -62.2727 525.113 -63.9443 526.628C-65.6173 528.144 -66.6983 530.294 -66.4225 532.627L-66.4225 532.627C-66.0979 535.357 -64.3357 537.259 -62.2107 538.803C-61.1467 539.576 -59.9717 540.273 -58.8116 540.945C-58.6435 541.042 -58.4757 541.139 -58.3086 541.236C-57.316 541.808 -56.3466 542.368 -55.4523 542.957C-51.1392 545.819 -48.2476 550.041 -46.1495 554.863C-44.0497 559.689 -42.7587 565.082 -41.6264 570.259C-39.9747 577.808 -37.9963 585.01 -36.0215 592.2L-36.0131 592.23C-34.1826 598.894 -32.3556 605.547 -30.7879 612.473C-34.6363 608.776 -39.2939 605.929 -44.3463 604.208L-44.3467 604.208C-46.1573 603.592 -48.3944 603.325 -50.315 603.689C-52.2387 604.053 -53.9544 605.083 -54.4479 607.143L-54.4481 607.144C-54.9084 609.079 -54.0077 610.706 -52.682 611.985C-51.3598 613.261 -49.5433 614.267 -47.9533 615.011C-28.4231 624.181 -12.0108 641.918 -4.36073 662.134C-7.908 659.641 -11.8615 657.248 -16.2911 657.222C-18.8363 657.201 -21.4331 658.349 -23.2306 660.105C-25.0302 661.864 -26.0892 664.3 -25.3856 666.846C-24.4349 670.292 -20.7749 672.247 -17.4112 672.599C-15.7166 672.775 -14.0377 672.643 -12.391 672.42C-11.605 672.313 -10.8205 672.184 -10.0448 672.057L-9.93463 672.039C-9.12048 671.905 -8.31566 671.774 -7.51328 671.67L-7.51254 671.669C6.30861 669.848 19.9318 676.075 28.0287 687.274C19.1813 680.79 6.88612 679.005 -3.47279 682.625L-3.19276 683.584C7.43217 681.071 19.4541 686.493 24.5858 696.142C29.8402 706.026 27.9671 718.011 26.1982 729.329L26.1566 729.595C24.5066 740.142 23.392 752.02 28.746 761.303C22.5298 757.459 16.0155 755.422 9.64536 754.046C6.27643 753.319 2.94096 752.775 -0.28619 752.249L-0.722237 752.178C-4.08983 751.628 -7.33292 751.09 -10.3968 750.372C-17.7407 748.648 -25.2068 746.852 -31.1532 742.422L-31.1535 742.422C-40.7376 735.294 -45.6927 720.93 -41.207 709.943L-42.1234 709.543C-46.1802 718.274 -47.3712 729.029 -44.4614 739.798C-52.1684 727.5 -52.3386 710.696 -44.589 698.37L-44.5889 698.37C-44.1639 697.693 -43.715 697.024 -43.2607 696.347L-43.1628 696.201C-42.6769 695.477 -42.187 694.744 -41.7266 693.995C-40.8061 692.498 -39.9898 690.918 -39.5354 689.171C-39.0752 687.402 -39.1276 685.409 -39.7239 683.678C-40.3211 681.944 -41.4804 680.435 -43.2585 679.727C-45.3191 678.901 -47.4829 679.487 -49.1742 680.751C-50.8636 682.014 -52.1488 683.998 -52.4777 686.117L-52.4779 686.119C-52.9539 689.256 -52.4902 692.383 -51.2187 695.217C-70.8766 677.448 -78.7824 647.574 -70.2004 622.469L-70.2002 622.468C-69.6986 620.997 -69.1345 619.339 -68.9292 617.716C-68.7229 616.086 -68.8699 614.428 -69.8516 612.994C-71.1159 611.14 -73.2604 610.574 -75.3413 610.855C-77.4182 611.136 -79.5257 612.264 -80.8593 613.932C-83.04 616.653 -83.8849 620.151 -84.1671 623.045C-84.2409 623.801 -84.2768 624.522 -84.2872 625.184C-88.8808 612.169 -93.235 599.02 -94.3219 585.351C-95.5022 570.51 -92.4164 554.807 -82.8319 543.535C-82.8312 543.535 -82.8306 543.534 -82.8299 543.533L-82.7696 543.464C-81.5044 542.011 -80.0616 540.355 -79.1071 538.604C-78.1322 536.815 -77.6224 534.846 -78.392 532.839C-79.272 530.544 -81.5305 529.474 -83.8441 529.398C-86.1561 529.322 -88.6603 530.226 -90.1949 532.04C-90.1951 532.04 -90.1953 532.04 -90.1954 532.041L-89.8136 532.363L-69.5524 462.892ZM-69.5524 462.892C-90.0597 483.815 -99.6777 514.842 -94.8249 543.711L-69.5524 462.892ZM5.17767 350.143C9.27036 349.598 14.3999 348.738 15.4503 344.755L5.17767 350.143Z" stroke="#FFDC73" stroke-opacity="0.1"/>
<path d="M-21.7538 450.061C-21.6515 450.032 -21.5477 450.005 -21.4428 449.982C-20.0225 449.641 -18.4409 449.842 -17.1505 450.483C-15.8564 451.126 -14.8037 452.243 -14.5602 453.759C-14.3275 455.196 -14.8411 456.474 -15.5942 457.591C-16.2614 458.581 -17.153 459.495 -17.9569 460.319C-18.0534 460.418 -18.1486 460.516 -18.242 460.612L-18.2433 460.613C-27.4825 470.067 -30.0425 484.593 -27.9839 497.771C-26.1342 509.612 -21.2684 519.817 -15.9312 530.484C-16.6338 525.676 -16.0551 520.681 -14.2351 516.174L-14.235 516.174L21.5212 513.987C20.8676 513.816 20.2035 513.67 19.5389 513.523C17.817 513.143 16.0914 512.762 14.5363 511.954L14.3071 512.399C14.3067 512.399 14.3064 512.398 14.306 512.398C12.0443 511.231 10.0047 508.831 10.357 506.119L10.3573 506.117C10.5809 504.452 11.6727 503.17 13.0576 502.374C14.4403 501.579 16.1599 501.239 17.7473 501.474L17.7495 501.474C20.4377 501.885 22.7271 503.456 24.789 505.076C23.063 489.813 15.7808 475.226 4.57625 464.707L4.5759 464.707L4.52281 464.657C3.8546 464.029 3.11632 463.335 2.52451 462.561C1.91351 461.763 1.43042 460.845 1.33727 459.776C1.21127 458.351 1.87926 457.06 2.87869 456.152C3.87666 455.246 5.24747 454.678 6.62393 454.716L6.62482 454.716C7.73126 454.749 8.77174 455.089 9.7018 455.627C6.31264 434.884 7.51222 414.019 13.0119 394.614C9.56404 401.038 6.61906 407.624 4.22995 414.32C-7.21661 446.485 -6.10971 481.409 7.24089 510.134L6.80334 510.337L7.24094 510.134C18.5326 534.441 36.1158 551.702 58.7145 561.001C66.1224 561.888 71.057 561.192 75.2598 560.599C75.6113 560.55 75.9578 560.501 76.3001 560.454C80.7749 559.838 84.5775 559.51 89.832 561.739C97.1806 564.848 100.614 573.34 97.4916 580.689C94.3824 588.037 85.8895 591.471 78.5414 588.348C73.3896 586.16 70.9912 583.235 68.3989 579.662C68.1619 579.335 67.9232 579.003 67.6805 578.665C65.293 575.342 62.5172 571.479 57.1687 567.027C32.7106 557.227 13.7514 538.765 1.64111 512.711L2.09453 512.5L1.64108 512.711C-12.3882 482.515 -13.5599 445.885 -1.58247 412.239C-0.690918 409.722 0.278564 407.227 1.31876 404.752C-8.77391 418.936 -16.5642 434.196 -21.7538 450.061ZM-21.7538 450.061C-21.8174 450.256 -21.8806 450.45 -21.9434 450.645C-21.7431 450.576 -21.5379 450.516 -21.3293 450.469C-18.7236 449.841 -15.4768 451.205 -15.0538 453.838C-14.6663 456.228 -16.603 458.214 -18.3155 459.971C-18.4115 460.069 -18.5068 460.167 -18.6009 460.264C-27.9868 469.868 -30.5515 484.574 -28.4779 497.848C-26.5275 510.333 -21.2462 521.008 -15.6192 532.222M40.0221 568.763C43.5655 573.889 45.9877 579.67 48.3868 585.394C49.2163 587.374 50.0432 589.347 50.9126 591.284L50.9129 591.285C53.6759 597.466 57.2275 603.375 62.1675 607.781L39.6108 569.048M40.0221 568.763L39.6108 569.048M40.0221 568.763C40.0222 568.763 40.0222 568.763 40.0223 568.763L39.6108 569.048M40.0221 568.763C39.0058 567.291 37.5849 565.785 35.9926 564.853C34.3963 563.917 32.5543 563.523 30.7976 564.444C29.3682 565.193 28.5904 566.546 28.2363 568.024C27.8831 569.498 27.9374 571.144 28.2054 572.59L28.2055 572.591C29.0397 577.051 31.2379 581.241 34.3842 584.523M39.6108 569.048C37.6327 566.183 34.1266 563.263 31.0298 564.887C28.506 566.21 28.1786 569.702 28.697 572.499C29.6016 577.336 32.1484 581.852 35.7811 585.191C35.3142 584.969 34.8486 584.747 34.3842 584.523M34.3842 584.523C25.3269 580.151 16.7669 575.254 9.593 568.227C3.52341 562.279 -1.81287 555.461 -4.87462 547.598C-7.93619 539.735 -8.54314 530.743 -5.38217 522.975L-15.1435 532.055C-16.2421 526.842 -15.7668 521.302 -13.7715 516.361C-12.5027 513.223 -9.40593 509.895 -6.29549 511.218C-4.30371 512.064 -3.47154 514.547 -3.7171 516.688C-3.9062 518.338 -4.58061 519.874 -5.25455 521.409C-5.45583 521.867 -5.65706 522.325 -5.84531 522.786C-9.06488 530.699 -8.43735 539.826 -5.34055 547.779C-2.24374 555.733 3.14499 562.608 9.24309 568.584C16.8266 576.013 25.936 581.069 35.4987 585.611C35.1153 585.26 34.7436 584.897 34.3842 584.523Z" stroke="#FFDC73" stroke-opacity="0.1"/>
<path d="M-220.579 363.842C-216.962 375.966 -208.574 385.109 -197.941 391.329C-184.008 399.479 -166.241 402.595 -150.402 400.778C-112.971 396.483 -76.5772 372.973 -45.7398 352.428L-45.1338 353.221C-54.2023 361.133 -63.1672 369.877 -72.2648 378.75C-74.452 380.883 -76.6469 383.024 -78.8528 385.162C-90.2269 396.189 -101.885 407.148 -114.246 416.66C-132.825 430.958 -153.015 442.006 -176.255 445.11C-148.453 442.527 -122.655 428.641 -100.326 411.167C-89.2832 402.524 -78.8176 393.33 -68.3699 384.152C-63.0608 379.488 -57.7563 374.828 -52.383 370.246C-36.4498 356.661 -19.9412 343.793 -1.01983 333.672L-0.502655 334.527C-53.1047 370.333 -87.5232 425.745 -99.1035 487.575C-78.1128 405.801 -7.17971 327.537 72.94 305.195C75.9734 303.951 79.6943 302.957 83.7662 301.897C84.0449 301.825 84.3252 301.752 84.6073 301.679C87.3377 300.97 90.221 300.221 93.1767 299.34C79.2365 300.297 59.4397 304.091 39.4795 309.674C17.5836 315.798 -4.44841 324.057 -19.1173 333.039L-19.659 332.199C8.29039 313.25 46.0925 298.703 78.6923 289.799C56.1829 292.753 30.4172 300.239 5.19846 307.799L4.82928 306.874C27.4995 295.411 51.3336 288.016 75.98 284.689C75.3681 284.266 74.7578 283.842 74.1529 283.419L74.1519 283.418C71.318 281.424 68.4244 279.51 65.5151 277.585C65.0558 277.282 64.596 276.977 64.1361 276.673C60.8645 276.015 57.5536 275.478 54.2297 275.075C41.2753 273.502 28.8464 274.809 16.1679 276.143C11.6466 276.619 7.09359 277.098 2.47366 277.451L2.4735 277.451C-7.93522 278.242 -19.1046 277.663 -28.5912 272.994C-19.5532 278.785 -8.21932 280.634 2.56209 281.009L2.56219 281.009C7.06335 281.166 11.5356 281.19 15.9919 281.213C28.4529 281.277 40.7896 281.342 53.2878 284.337L53.2472 285.318C50.2916 285.772 47.3897 286.425 44.4737 287.081C43.9042 287.209 43.3343 287.337 42.7632 287.464C39.2771 288.239 35.7608 288.961 32.1516 289.278C25.3771 289.877 18.6425 290.87 11.9612 292.217C-1.13623 294.869 -13.7363 299.086 -26.0312 304.315C-36.4215 308.737 -49.4125 314.225 -61.9873 315.768C-71.0567 316.881 -79.9547 315.945 -87.5164 311.059C-83.971 313.9 -80.0519 315.765 -75.871 316.877C-68.5204 318.832 -60.3339 318.467 -51.9096 316.93C-43.4866 315.394 -34.8647 312.694 -26.6495 310.01C-25.6743 309.691 -24.7046 309.373 -23.7416 309.057C-16.6067 306.714 -9.83563 304.49 -3.89009 303.216L-3.56767 304.155C-9.33504 306.943 -15.529 310.247 -22.0409 313.72C-26.4783 316.086 -31.0634 318.531 -35.7617 320.946C-47.3335 326.894 -59.5511 332.633 -71.7846 336.454C-84.0172 340.276 -96.2944 342.19 -107.978 340.46C-114.848 339.443 -121.502 337.168 -127.812 333.294C-112.882 343.689 -94.9814 344.679 -76.6858 341.206C-55.8969 337.259 -34.6922 327.564 -16.9063 319.433C-14.5529 318.357 -12.2593 317.309 -10.0345 316.305L-9.56095 317.183C-22.1238 325.154 -34.2825 333.889 -46.4702 342.646C-53.2867 347.543 -60.1123 352.447 -67.0228 357.227C-86.2693 370.541 -106.134 382.866 -128.147 391.291C-149.206 399.351 -174.101 402.466 -195.03 391.926C-206.681 386.071 -216.109 375.923 -220.579 363.842ZM-220.579 363.842C-221.287 361.467 -221.813 358.977 -222.136 356.372C-222.344 355.267 -222.51 354.151 -222.633 353.026M53.1713 284.824L53.0954 284.33C52.6917 284.392 52.289 284.457 51.8871 284.526C52.315 284.622 52.743 284.721 53.1713 284.824ZM53.1713 284.824L53.0547 285.31C52.661 285.216 52.2675 285.124 51.8742 285.036C52.3056 284.961 52.7379 284.89 53.1713 284.824ZM-3.78531 303.705C-4.43556 304.019 -5.09139 304.34 -5.75262 304.667C-5.05132 304.498 -4.36042 304.339 -3.68053 304.194L-3.78531 303.705ZM-3.78531 303.705C-4.48698 303.855 -5.20026 304.019 -5.92444 304.194C-5.2786 303.875 -4.63804 303.562 -4.00294 303.255L-3.78531 303.705ZM-9.82883 316.76C-10.8099 317.383 -11.7886 318.01 -12.7651 318.642C-11.703 318.158 -10.6553 317.682 -9.62313 317.216L-9.82883 316.76ZM-9.82883 316.76C-10.8726 317.231 -11.9318 317.713 -13.0055 318.202C-12.038 317.576 -11.0685 316.955 -10.0967 316.338L-9.82883 316.76Z" stroke="#FFDC73" stroke-opacity="0.1"/>
<mask id="path-10-inside-1_991:12259" fill="white">
<path d="M40.1975 479.499C16.9101 439.473 34.7542 377.223 65.1629 343.499C33.1444 374.59 11.3576 428.723 20.6753 472.351C8.90203 433.252 19.5157 383.417 44.5766 350.511C2.65386 381.698 -32.6934 434.371 -35.9539 487.371C-38.7915 533.468 -18.9692 576.96 14.359 608.092C-18.9555 579.538 -40.3467 539.144 -41.7245 494.833C-43.307 443.552 -19.3921 394.603 16.9374 359.379C34.7815 342.081 61.4931 322.299 83.6482 311.058C90.2783 307.566 98.4501 305.697 105.176 305.478C84.7259 312.122 65.3812 330.116 55.7088 342.299C56.35 341.494 54.3991 343.881 55.7088 342.299C55.0266 343.131 54.3445 343.95 53.6624 344.782C66.4453 332.081 81.5882 322.859 98.3137 317.456C103.934 316.092 107.727 314.168 117.263 314.332C106.39 319.475 83.348 333.445 74.3441 342.108C84.5349 334.086 96.5811 328.834 107.099 325.914C114.766 323.8 121.792 323.09 128.204 322.709C105.026 330.88 84.3439 353.063 74.2896 370.293C74.3441 370.184 74.3714 370.156 74.2077 370.416C74.044 370.702 74.0849 370.634 74.1531 370.511C73.13 372.353 72.2296 374.276 71.2883 376.159C83.389 356.118 100.619 342.081 121.233 333.063C131.123 329.27 139.773 328.425 140.741 328.738C112.488 339.147 85.1079 387.332 108.559 426.213C90.674 408.519 86.8678 377.196 103.539 350.252C92.161 358.274 75.8175 376.746 73.0481 390.893C71.6157 398.205 71.4793 405.708 72.6525 413.061C76.5269 437.345 92.8977 455.353 115.421 464.043C87.1406 455.912 65.5585 431.833 64.3034 401.534C55.5587 423.893 57.646 450.332 72.7343 469.418C55.9407 451.846 51.998 426.24 56.9093 402.871C63.6076 370.934 77.0862 351.03 91.4107 337.797C52.38 365.041 23.9768 428.955 43.9218 473.128C62.2707 513.769 114.139 516.579 149.322 497.903C114.548 518.612 62.6527 518.08 40.1975 479.499Z"/>
</mask>
<path d="M40.1975 479.499L39.3332 480.002L39.3331 480.002L40.1975 479.499ZM65.1629 343.499L64.4662 342.782L65.9055 344.169L65.1629 343.499ZM20.6753 472.351L21.6533 472.142L19.7178 472.639L20.6753 472.351ZM44.5766 350.511L43.9798 349.709L45.3722 351.117L44.5766 350.511ZM-35.9539 487.371L-34.9557 487.432V487.432L-35.9539 487.371ZM14.359 608.092L15.0416 607.361L13.7082 608.851L14.359 608.092ZM-41.7245 494.833L-42.724 494.864V494.864L-41.7245 494.833ZM16.9373 359.379L16.2413 358.661L16.2413 358.661L16.9373 359.379ZM83.6482 311.058L84.1142 311.943L84.1075 311.946L84.1007 311.95L83.6482 311.058ZM105.176 305.478L105.143 304.479L105.485 306.429L105.176 305.478ZM55.7088 342.299L56.4909 342.922L54.9256 341.677L55.7088 342.299ZM55.7088 342.299L54.9384 341.661L56.4822 342.933L55.7088 342.299ZM53.6624 344.782L54.3672 345.491L52.889 344.148L53.6624 344.782ZM98.3137 317.456L98.0063 316.505L98.0417 316.493L98.0778 316.484L98.3137 317.456ZM117.263 314.332L117.28 313.332L117.69 315.236L117.263 314.332ZM74.3441 342.108L74.9626 342.894L73.6508 341.387L74.3441 342.108ZM107.099 325.914L106.832 324.951L106.833 324.95L107.099 325.914ZM128.204 322.708L128.144 321.71L128.536 323.652L128.204 322.708ZM74.2896 370.293L75.1533 370.797L73.3951 369.846L74.2896 370.293ZM74.2077 370.416L73.3395 369.919L73.3504 369.9L73.3622 369.882L74.2077 370.416ZM71.2883 376.159L72.1443 376.676L70.3938 375.712L71.2883 376.159ZM121.233 333.063L120.832 332.147L120.853 332.138L120.875 332.129L121.233 333.063ZM140.741 328.738L141.049 327.787L143.799 328.678L141.087 329.677L140.741 328.738ZM108.559 426.213L109.415 425.696L107.856 426.924L108.559 426.213ZM103.539 350.252L102.962 349.435L104.389 350.778L103.539 350.252ZM73.0481 390.893L74.0295 391.085L74.0295 391.085L73.0481 390.893ZM72.6525 413.061L73.64 412.904V412.904L72.6525 413.061ZM115.421 464.043L115.781 463.11L115.145 465.004L115.421 464.043ZM64.3034 401.534L63.3721 401.169L65.3026 401.492L64.3034 401.534ZM72.7343 469.418L73.5188 468.798L72.0114 470.109L72.7343 469.418ZM56.9093 402.871L57.888 403.076L57.8879 403.076L56.9093 402.871ZM91.4107 337.797L90.8383 336.977L92.0892 338.531L91.4107 337.797ZM43.9218 473.128L44.8332 472.717L44.8332 472.717L43.9218 473.128ZM149.322 497.903L148.853 497.02L149.834 498.762L149.322 497.903ZM39.3331 480.002C27.5221 459.702 26.1835 433.854 31.5667 408.925C36.9515 383.988 49.0891 359.832 64.4202 342.83L65.9055 344.169C50.8279 360.89 38.8391 384.722 33.5216 409.347C28.2023 433.98 29.5854 459.271 41.0618 478.997L39.3331 480.002ZM65.8595 344.217C49.9689 359.647 36.5959 380.82 28.3583 403.564C20.1194 426.312 17.0434 450.557 21.6533 472.142L19.6974 472.56C14.9896 450.516 18.1481 425.882 26.4778 402.883C34.8088 379.881 48.3384 358.443 64.4662 342.782L65.8595 344.217ZM19.7178 472.639C7.84398 433.207 18.5438 383.042 43.7811 349.906L45.3722 351.117C20.4877 383.791 9.96007 433.298 21.6329 472.063L19.7178 472.639ZM45.1735 351.314C3.42178 382.373 -31.7178 434.799 -34.9557 487.432L-36.952 487.31C-33.6689 433.943 1.88594 381.023 43.9798 349.709L45.1735 351.314ZM-34.9557 487.432C-37.7728 533.197 -18.0957 576.408 15.0416 607.361L13.6763 608.822C-19.8427 577.512 -39.8101 533.74 -36.952 487.31L-34.9557 487.432ZM13.7082 608.851C-19.7967 580.134 -41.3365 539.485 -42.724 494.864L-40.725 494.802C-39.3568 538.803 -18.1144 578.942 15.0097 607.332L13.7082 608.851ZM-42.724 494.864C-44.3168 443.251 -20.2509 394.043 16.2413 358.661L17.6335 360.097C-18.5333 395.164 -42.2973 443.853 -40.725 494.803L-42.724 494.864ZM16.2413 358.661C34.1472 341.303 60.9393 321.459 83.1957 310.166L84.1007 311.95C62.0469 323.14 35.4157 342.858 17.6334 360.097L16.2413 358.661ZM83.1821 310.173C89.9615 306.602 98.2844 304.701 105.143 304.479L105.208 306.478C98.6157 306.692 90.5952 308.529 84.1142 311.943L83.1821 310.173ZM105.485 306.429C85.2994 312.987 66.1051 330.813 56.4919 342.921L54.9256 341.677C64.6572 329.42 84.1525 311.257 104.867 304.527L105.485 306.429ZM54.9266 341.676C54.966 341.626 54.9941 341.591 55.013 341.567C55.0225 341.555 55.0286 341.547 55.0322 341.542C55.034 341.54 55.0344 341.539 55.0338 341.54C55.0335 341.54 55.0326 341.542 55.0312 341.543C55.03 341.545 55.0278 341.548 55.0248 341.552C55.0233 341.554 55.0214 341.557 55.0191 341.56C55.0169 341.564 55.014 341.568 55.0106 341.573C55.0072 341.578 55.0026 341.585 54.9971 341.593C54.9949 341.597 54.9899 341.605 54.9873 341.609C54.9843 341.614 54.9777 341.625 54.9742 341.631C54.97 341.639 54.9608 341.656 54.9558 341.665C54.9497 341.677 54.9363 341.704 54.929 341.72C54.9197 341.742 54.8992 341.795 54.8887 341.826C54.8747 341.875 54.8498 342.004 54.843 342.086C54.8474 342.23 54.9607 342.6 55.1014 342.8C55.3192 342.98 55.7688 343.125 55.9614 343.121C56.0686 343.102 56.2325 343.049 56.2903 343.022C56.3264 343.003 56.3853 342.967 56.4085 342.952C56.425 342.94 56.4534 342.919 56.4654 342.91C56.4746 342.902 56.491 342.889 56.4982 342.882C56.504 342.877 56.5146 342.868 56.5193 342.863C56.5233 342.86 56.5306 342.853 56.534 342.85C56.5419 342.842 56.5483 342.836 56.5527 342.831C56.5573 342.827 56.5611 342.823 56.5639 342.82C56.5695 342.814 56.5737 342.809 56.576 342.807C56.5785 342.804 56.5804 342.802 56.5814 342.801C56.5833 342.799 56.5841 342.798 56.5832 342.799C56.5825 342.799 56.5811 342.801 56.579 342.804C56.5745 342.809 56.5684 342.816 56.5603 342.826C56.5443 342.845 56.5234 342.87 56.4987 342.899C56.4741 342.929 56.4464 342.963 56.4169 342.998C56.3579 343.07 56.2926 343.15 56.2324 343.223C56.172 343.297 56.1178 343.364 56.0807 343.41C56.0715 343.421 56.0636 343.431 56.0572 343.439C56.0505 343.447 56.0462 343.453 56.0438 343.456C56.0426 343.457 56.0426 343.457 56.0435 343.456C56.044 343.456 56.0451 343.454 56.0467 343.452C56.0481 343.45 56.0509 343.447 56.0545 343.442C56.0564 343.439 56.059 343.435 56.062 343.431C56.065 343.427 56.0694 343.421 56.0746 343.413C56.0769 343.41 56.0818 343.402 56.0844 343.398C56.0876 343.393 56.0947 343.382 56.0986 343.376C56.1034 343.368 56.1143 343.349 56.1203 343.338C56.1283 343.324 56.1469 343.287 56.1571 343.265C56.172 343.23 56.2061 343.132 56.2224 343.068C56.2423 342.934 56.181 342.501 56.0308 342.235C55.7314 341.98 55.1509 341.858 54.9488 341.899C54.8618 341.931 54.735 341.994 54.6932 342.02C54.6685 342.037 54.6284 342.067 54.6127 342.08C54.6018 342.089 54.5829 342.105 54.5749 342.112C54.5688 342.118 54.558 342.128 54.5532 342.133C54.5494 342.136 54.5424 342.143 54.5393 342.146C54.5321 342.153 54.5264 342.159 54.5227 342.163C54.5188 342.167 54.5156 342.171 54.5134 342.173C54.509 342.178 54.5057 342.182 54.5042 342.183C54.5011 342.187 54.4995 342.189 54.5003 342.188C54.5009 342.187 54.5023 342.185 54.5048 342.182C54.5073 342.179 54.5104 342.176 54.5143 342.171C54.5303 342.152 54.5553 342.123 54.5914 342.079C54.6633 341.993 54.7749 341.859 54.9384 341.661L56.4792 342.936C56.3152 343.135 56.2013 343.272 56.1267 343.361C56.0896 343.406 56.061 343.44 56.0404 343.464C56.0352 343.47 56.0302 343.476 56.0256 343.481C56.021 343.487 56.0164 343.492 56.0119 343.497C56.0076 343.502 56.0019 343.509 55.9956 343.516C55.9924 343.519 55.9878 343.525 55.9822 343.53C55.9794 343.534 55.9757 343.538 55.9714 343.542C55.9672 343.546 55.9611 343.553 55.9535 343.56C55.9502 343.564 55.9431 343.571 55.9391 343.575C55.9342 343.579 55.9232 343.589 55.917 343.595C55.909 343.602 55.8899 343.619 55.8789 343.628C55.8631 343.641 55.8229 343.671 55.7982 343.687C55.7563 343.714 55.6294 343.777 55.5424 343.809C55.3403 343.849 54.7597 343.728 54.4603 343.473C54.3101 343.207 54.2488 342.773 54.2687 342.64C54.285 342.576 54.3191 342.477 54.3341 342.443C54.3444 342.421 54.363 342.384 54.371 342.369C54.3771 342.358 54.3881 342.339 54.393 342.331C54.3969 342.325 54.4041 342.313 54.4074 342.308C54.4102 342.304 54.4153 342.296 54.4176 342.293C54.4232 342.285 54.4279 342.278 54.4312 342.273C54.4346 342.269 54.4377 342.264 54.44 342.261C54.4446 342.255 54.4486 342.25 54.4513 342.246C54.4542 342.242 54.4569 342.239 54.4591 342.236C54.4635 342.23 54.4677 342.225 54.4714 342.22C54.4788 342.211 54.487 342.2 54.4954 342.19C54.504 342.179 54.5136 342.167 54.5239 342.154C54.5649 342.103 54.6222 342.033 54.6837 341.958C54.7455 341.882 54.8126 341.8 54.8736 341.726C54.904 341.689 54.9332 341.654 54.9595 341.622C54.9857 341.591 55.0098 341.562 55.0298 341.538C55.0399 341.526 55.0496 341.515 55.0584 341.504C55.0629 341.499 55.0675 341.494 55.0722 341.488C55.0766 341.483 55.082 341.477 55.0879 341.47C55.0909 341.467 55.0945 341.463 55.0986 341.459C55.1025 341.454 55.1081 341.448 55.1148 341.441C55.1183 341.438 55.1226 341.433 55.1277 341.428C55.1327 341.423 55.1395 341.416 55.1478 341.408C55.1513 341.405 55.1589 341.397 55.163 341.394C55.1679 341.389 55.1787 341.379 55.1847 341.374C55.192 341.368 55.2085 341.354 55.2179 341.347C55.23 341.337 55.2585 341.316 55.2751 341.304C55.2984 341.289 55.3574 341.253 55.3936 341.234C55.4515 341.207 55.6154 341.154 55.7226 341.135C55.9153 341.131 56.365 341.276 56.5828 341.456C56.7235 341.656 56.8368 342.025 56.8412 342.17C56.8344 342.252 56.8095 342.381 56.7955 342.43C56.7849 342.461 56.7644 342.515 56.755 342.536C56.7477 342.552 56.7342 342.58 56.728 342.592C56.723 342.602 56.7137 342.618 56.7093 342.626C56.7057 342.632 56.699 342.644 56.6958 342.649C56.6931 342.653 56.688 342.662 56.6856 342.665C56.6798 342.675 56.6748 342.682 56.671 342.688C56.6672 342.693 56.6637 342.698 56.661 342.702C56.6582 342.706 56.6556 342.71 56.6535 342.713C56.6492 342.719 56.6454 342.724 56.6424 342.728C56.6393 342.733 56.6364 342.736 56.6338 342.74C56.6287 342.747 56.6236 342.753 56.6189 342.759C56.6096 342.772 56.5988 342.785 56.5871 342.8C56.5635 342.831 56.5317 342.871 56.4909 342.922L54.9266 341.676ZM56.4822 342.933C56.1396 343.351 55.7973 343.765 55.4564 344.177C55.1151 344.59 54.7754 345.001 54.4358 345.416L52.889 344.148C53.2316 343.73 53.5739 343.316 53.9148 342.903C54.256 342.49 54.5958 342.079 54.9354 341.665L56.4822 342.933ZM52.9576 344.072C65.8507 331.262 81.1294 321.956 98.0063 316.505L98.621 318.408C82.047 323.761 67.0398 332.9 54.3672 345.491L52.9576 344.072ZM98.0778 316.484C103.581 315.149 107.575 313.166 117.28 313.332L117.246 315.332C107.879 315.171 104.287 317.035 98.5495 318.428L98.0778 316.484ZM117.69 315.236C112.304 317.784 103.863 322.539 95.6374 327.745C87.3986 332.959 79.4613 338.572 75.0375 342.828L73.6508 341.387C78.2309 336.981 86.3165 331.277 94.5678 326.055C102.832 320.825 111.349 316.023 116.835 313.428L117.69 315.236ZM73.7256 341.322C84.043 333.201 96.2169 327.897 106.832 324.951L107.367 326.878C96.9453 329.771 85.0268 334.972 74.9626 342.894L73.7256 341.322ZM106.833 324.95C114.597 322.809 121.702 322.094 128.144 321.71L128.263 323.707C121.882 324.087 114.935 324.791 107.365 326.878L106.833 324.95ZM128.536 323.652C105.657 331.718 85.1356 353.69 75.1533 370.797L73.4259 369.789C83.5522 352.435 104.395 330.042 127.871 321.765L128.536 323.652ZM73.3951 369.846C73.416 369.804 73.4346 369.769 73.448 369.745C73.4543 369.734 73.461 369.722 73.4674 369.711C73.4687 369.709 73.4723 369.702 73.477 369.695C73.4774 369.694 73.4859 369.68 73.4972 369.663C73.5005 369.658 73.5071 369.648 73.5159 369.635C73.5191 369.631 73.5449 369.594 73.5824 369.552C73.6088 369.523 73.7 369.439 73.7682 369.388C74.0084 369.267 74.8595 369.364 75.2532 369.825C75.32 370.061 75.3171 370.385 75.3003 370.463C75.2904 370.499 75.272 370.554 75.2645 370.574C75.2514 370.608 75.2392 370.634 75.236 370.641C75.2309 370.652 75.2267 370.66 75.2243 370.665C75.2195 370.674 75.2155 370.682 75.2138 370.685C75.2099 370.692 75.2068 370.698 75.2056 370.7C75.2026 370.705 75.2001 370.71 75.1987 370.712C75.1812 370.743 75.1381 370.815 75.0532 370.95L73.3622 369.882C73.4411 369.757 73.4662 369.713 73.4622 369.72C73.4617 369.721 73.4599 369.724 73.4573 369.729C73.4563 369.731 73.4534 369.736 73.4497 369.743C73.448 369.746 73.4441 369.753 73.4393 369.763C73.4369 369.767 73.4327 369.776 73.4276 369.787C73.4244 369.793 73.4122 369.819 73.3991 369.853C73.3916 369.873 73.3732 369.929 73.3633 369.965C73.3465 370.043 73.3436 370.367 73.4105 370.602C73.8041 371.063 74.6552 371.16 74.8954 371.04C74.9637 370.989 75.0548 370.905 75.0812 370.876C75.1187 370.833 75.1445 370.796 75.1477 370.792C75.1564 370.78 75.1631 370.77 75.1664 370.765C75.1776 370.748 75.1859 370.734 75.1862 370.733C75.1905 370.726 75.1936 370.721 75.1942 370.72C75.1978 370.714 75.199 370.712 75.1976 370.714C75.1957 370.718 75.1904 370.727 75.184 370.74L73.3951 369.846ZM75.076 370.912C74.9805 371.079 74.9731 371.094 74.9877 371.064C74.9897 371.06 74.998 371.044 75.0077 371.022C75.0114 371.014 75.0242 370.985 75.0375 370.947C75.0449 370.925 75.0619 370.866 75.0707 370.829C75.0838 370.755 75.0855 370.492 75.0444 370.308C74.7911 369.901 74.0241 369.619 73.6795 369.707C73.5688 369.766 73.4241 369.874 73.3838 369.912C73.3288 369.968 73.2924 370.018 73.2891 370.023C73.2692 370.05 73.255 370.072 73.2531 370.075C73.2448 370.088 73.2386 370.098 73.2377 370.1C73.2355 370.103 73.2339 370.106 73.2331 370.107C73.2306 370.111 73.2293 370.114 73.2304 370.112C73.2318 370.109 73.2349 370.104 73.2398 370.095C73.2494 370.078 73.2634 370.054 73.279 370.025L75.0273 370.997C75.0088 371.03 74.9921 371.06 74.9799 371.081C74.9739 371.092 74.9684 371.101 74.9641 371.109C74.9624 371.112 74.9589 371.118 74.9551 371.124C74.954 371.126 74.9521 371.129 74.9497 371.133C74.9486 371.135 74.9422 371.146 74.9338 371.159C74.9319 371.162 74.9176 371.184 74.8977 371.211C74.8944 371.216 74.858 371.266 74.8029 371.322C74.7627 371.36 74.6179 371.468 74.5073 371.527C74.1627 371.615 73.3956 371.333 73.1424 370.926C73.1012 370.742 73.103 370.479 73.1161 370.405C73.1249 370.368 73.1419 370.309 73.1492 370.287C73.1626 370.249 73.1754 370.22 73.1791 370.212C73.1888 370.19 73.1972 370.173 73.1992 370.169C73.2172 370.133 73.2713 370.039 73.3395 369.919L75.076 370.912ZM75.0273 370.997C74.0181 372.813 73.1396 374.692 72.1827 376.606L70.3938 375.712C71.3195 373.86 72.2418 371.892 73.279 370.025L75.0273 370.997ZM70.4322 375.642C82.6505 355.407 100.049 341.239 120.832 332.147L121.634 333.979C101.189 342.923 84.1275 356.83 72.1443 376.676L70.4322 375.642ZM120.875 332.129C125.885 330.208 130.58 329.033 134.152 328.377C135.938 328.049 137.451 327.85 138.59 327.752C139.158 327.703 139.644 327.679 140.029 327.679C140.365 327.678 140.758 327.693 141.049 327.787L140.433 329.69C140.483 329.706 140.393 329.678 140.032 329.679C139.72 329.679 139.294 329.699 138.761 329.745C137.696 329.836 136.247 330.026 134.513 330.344C131.046 330.981 126.471 332.125 121.591 333.997L120.875 332.129ZM141.087 329.677C127.288 334.76 113.555 349.158 106.187 367.177C98.8321 385.163 97.8887 406.586 109.415 425.696L107.703 426.729C95.7782 406.959 96.7994 384.849 104.335 366.42C111.858 348.025 125.941 333.125 140.396 327.8L141.087 329.677ZM107.856 426.924C89.5965 408.859 85.8055 377.012 102.688 349.726L104.389 350.778C87.9301 377.379 91.7514 408.178 109.262 425.502L107.856 426.924ZM104.115 351.07C98.5178 355.016 91.6551 361.568 85.8491 368.896C80.028 376.244 75.3681 384.247 74.0295 391.085L72.0667 390.701C73.4975 383.392 78.394 375.085 84.2815 367.654C90.1839 360.205 97.1819 353.511 102.962 349.435L104.115 351.07ZM74.0295 391.085C72.6195 398.282 72.4854 405.667 73.64 412.904L71.665 413.219C70.4732 405.749 70.6118 398.128 72.0668 390.7L74.0295 391.085ZM73.64 412.904C77.4516 436.793 93.5484 454.532 115.781 463.11L115.061 464.976C92.2469 456.173 75.6022 437.896 71.665 413.219L73.64 412.904ZM115.145 465.004C86.5027 456.769 64.5793 432.357 63.3043 401.575L65.3026 401.492C66.5377 431.31 87.7785 455.055 115.697 463.082L115.145 465.004ZM65.2347 401.898C56.598 423.981 58.6849 450.034 73.5188 468.798L71.9499 470.038C56.607 450.63 54.5194 423.805 63.3721 401.169L65.2347 401.898ZM72.0114 470.109C54.925 452.231 50.9735 426.253 55.9306 402.665L57.8879 403.076C53.0226 426.227 56.9563 451.462 73.4573 468.727L72.0114 470.109ZM55.9306 402.665C62.671 370.528 76.2532 350.438 90.7321 337.062L92.0892 338.531C77.9193 351.622 64.5442 371.34 57.888 403.076L55.9306 402.665ZM91.983 338.617C72.6564 352.107 55.9112 374.722 46.4849 399.47C37.0558 424.225 35.0069 450.954 44.8332 472.717L43.0104 473.54C32.8917 451.129 35.0719 423.815 44.6159 398.758C54.1625 373.694 71.1343 350.73 90.8383 336.977L91.983 338.617ZM44.8332 472.717C53.8466 492.68 71.0847 503.372 90.4818 506.774C109.904 510.181 131.443 506.262 148.853 497.02L149.791 498.786C132.018 508.22 110.031 512.234 90.1363 508.744C70.2163 505.25 52.3459 494.217 43.0104 473.54L44.8332 472.717ZM149.834 498.762C132.27 509.222 110.383 514.322 90.0234 511.928C69.6434 509.531 50.7471 499.613 39.3332 480.002L41.0617 478.996C52.1031 497.967 70.382 507.604 90.257 509.942C110.152 512.281 131.6 507.293 148.811 497.044L149.834 498.762Z" fill="#FFDC73" fill-opacity="0.1" mask="url(#path-10-inside-1_991:12259)"/>
<path d="M111.76 393.711C116.024 401.03 123.753 405.714 131.972 406.243C124.849 404.89 118.46 400.469 115.083 393.736C109.647 382.919 114.146 370.558 121.567 362.132L121.567 362.131C123.817 359.58 126.396 357.303 129.192 355.249C126.948 355.772 124.742 356.387 122.598 357.276C118.921 358.808 115.577 360.911 112.363 363.244C107.637 372.858 106.301 384.337 111.76 393.711Z" stroke="#FFDC73" stroke-opacity="0.1"/>
<path d="M88.5411 577.175L88.5418 577.174C90.3755 573.761 89.089 569.508 85.6773 567.688C82.2637 565.866 78.0101 567.154 76.19 570.552L76.1897 570.553C74.356 573.966 75.6424 578.218 79.0541 580.039L79.0554 580.039C82.4681 581.873 86.7207 580.587 88.5411 577.175Z" stroke="#FFDC73" stroke-opacity="0.1"/>
<path d="M185.249 161.999L185.249 161.999C183.643 143.999 175.665 129.017 168.672 115.888L168.649 115.845C164.268 107.602 160.526 100.561 159.1 94.2538C158.174 90.1155 157.451 86.2564 156.914 82.651C158.826 86.495 160.945 90.4098 163.282 94.4376C166.793 100.487 170.753 106.253 174.703 112L174.729 112.038C178.673 117.779 182.605 123.501 186.092 129.499C193.078 141.513 198.075 155.488 196.995 169.248L196.995 169.249C196.684 173.218 195.953 177.251 195.215 181.325C195.084 182.049 194.953 182.774 194.823 183.5C193.969 188.3 193.207 193.142 193.241 197.913L185.249 161.999ZM185.249 161.999C185.661 166.651 185.647 171.339 185.633 175.851M185.249 161.999L185.633 175.851M185.633 175.851C185.62 180.931 185.607 186.153 186.203 191.151C188.009 206.127 193.557 218.977 201.346 226.456L201.348 226.458C201.485 226.591 201.622 226.723 201.761 226.854C197.017 218.681 193.315 208.548 193.241 197.913L185.633 175.851ZM202.648 228.341C203.079 228.722 203.512 229.095 203.946 229.464C203.639 228.989 203.336 228.506 203.035 228.016L202.648 228.341Z" stroke="#FFDC73" stroke-opacity="0.1"/>
<path d="M137.527 25.8011L138.511 25.9576C137.925 33.8152 138.517 41.4383 140.937 48.7178C142.147 47.1522 143.472 45.6174 144.857 44.1848C143.428 30.7601 145.048 16.9849 149.93 1.44652C134.08 14.7579 127.618 36.7169 134.015 57.0796L133.079 57.4273C128.824 47.5511 127.697 37.1192 129.222 27.163C118.17 42.3564 117.689 62.6655 128.195 79.9847L127.366 80.5428C119.165 69.5419 115.878 56.4508 117.055 43.7507C113.158 48.5728 110.687 54.1561 109.529 59.9763H109.764L109.402 60.6999C109.398 60.7081 109.394 60.716 109.39 60.7233C106.6 76.3367 113.252 93.5302 127.601 102.728L127.099 103.593C113.734 96.6119 105.867 83.8131 103.996 70.16C99.3081 80.4683 98.0538 91.7752 102.65 102.862C108.149 116.11 120.393 125.112 132.522 132.226L132.054 133.109C118.513 126.646 104.832 117.921 97.9735 103.874C96.4482 100.765 95.3752 97.5882 94.6628 94.3953C91.3708 104.836 94.2303 117.814 98.6453 127.429C101.517 133.668 105.496 139.111 110.242 143.812C113.722 144.616 117.184 145.489 120.62 146.354C121.992 146.7 123.36 147.045 124.723 147.384L124.723 147.384C127.919 148.181 133.171 149.842 138.176 151.757C140.68 152.715 143.129 153.74 145.234 154.755C146.778 155.499 148.153 156.247 149.23 156.967C149.108 156.212 149.018 155.451 148.976 154.699C139.191 152.488 129.668 148.375 121.714 142.291C121.71 142.289 121.707 142.288 121.704 142.286C121.698 142.283 121.693 142.281 121.688 142.278C121.68 142.274 121.673 142.27 121.668 142.267L121.654 142.258C121.646 142.253 121.638 142.248 121.632 142.244L121.612 142.23L121.599 142.222C121.59 142.215 121.579 142.208 121.569 142.201C121.538 142.179 121.502 142.153 121.462 142.124C121.383 142.067 121.286 141.995 121.191 141.924C121.096 141.853 121 141.781 120.922 141.721C120.883 141.691 120.847 141.663 120.818 141.64C120.811 141.635 120.804 141.629 120.797 141.623C120.79 141.618 120.783 141.613 120.777 141.607L120.758 141.592C120.752 141.587 120.746 141.581 120.739 141.575L120.727 141.564C120.725 141.562 120.723 141.56 120.721 141.558C120.717 141.555 120.714 141.552 120.71 141.548L120.699 141.537L120.696 141.533C120.693 141.531 120.691 141.528 120.688 141.525C114.176 136.77 108.703 130.6 104.203 123.976L105.005 123.38C116.288 137.322 131.898 146.111 146.727 148.236C144.377 144.579 143.112 140.198 143.509 134.977C139.416 131.816 135.555 126.649 133.324 120.823C127.572 119.24 122.45 116.449 117.674 112.71C117.66 112.702 117.649 112.695 117.64 112.69C117.602 112.667 117.566 112.641 117.539 112.62C117.494 112.586 117.434 112.538 117.362 112.48C117.344 112.466 117.325 112.45 117.305 112.435L117.284 112.417L117.264 112.398C117.18 112.313 117.119 112.256 117.073 112.212C117.052 112.191 117.027 112.167 117.006 112.145C116.996 112.135 116.984 112.122 116.971 112.106C111.743 107.16 107.66 101.532 105.449 94.5279L106.38 94.168C111.502 105.272 120.202 113.03 131.705 114.986C131.33 112.785 131.224 110.542 131.457 108.314C131.02 107.393 130.364 105.493 129.744 103.069C129.102 100.559 128.491 97.4544 128.201 94.2264C124.233 90.7536 121.005 86.6433 118.331 82.0605C118.331 82.0594 118.33 82.0584 118.329 82.0576L118.329 82.0571C118.319 82.0422 118.31 82.0282 118.305 82.0189C118.294 82.0016 118.282 81.98 118.27 81.9595L118.268 81.9552C118.241 81.9084 118.202 81.8404 118.144 81.7427L118.137 81.7319L118.131 81.7207C118.074 81.6137 118.032 81.5303 118.003 81.4684C117.989 81.4381 117.976 81.4082 117.965 81.3809C117.962 81.3733 117.959 81.3638 117.955 81.353C115.186 75.5734 113.382 69.5132 113.189 63.015L114.182 62.9189C115.931 73.5454 119.978 81.8396 128.135 87.6166C128.334 85.2988 128.803 83.0734 129.684 81.117C129.592 80.1626 129.67 78.2621 129.943 75.913C126.048 66.902 124.196 57.0869 124.799 47.2536L125.795 47.2328C126.309 52.2082 127.486 57.0786 129.205 61.7765C129.249 61.8947 129.3 62.03 129.345 62.1512L129.368 62.2118C129.404 62.3074 129.435 62.3902 129.454 62.4406L129.468 62.4794L129.474 62.4953L129.478 62.5068L129.481 62.5179C129.482 62.521 129.485 62.5321 129.489 62.5463C129.489 62.5482 129.49 62.5513 129.491 62.5553C129.491 62.5553 129.491 62.5553 129.491 62.5553C129.859 63.5376 130.184 64.4676 130.496 65.3578C130.556 65.5306 130.616 65.7018 130.676 65.8716C130.923 66.5743 131.164 67.253 131.416 67.9185C132.29 64.506 133.517 61.0413 135.226 58.3618C135.692 56.9981 136.469 55.4121 137.465 53.7372C135.699 46.3197 135.232 38.5358 136.473 31.0034L136.474 30.9982L136.474 30.9907L136.475 30.9812L136.477 30.9704L136.478 30.9568L136.483 30.9295L136.488 30.8939L136.504 30.798C136.516 30.7246 136.531 30.6346 136.546 30.5448C136.561 30.4549 136.576 30.3649 136.588 30.2916L136.605 30.1956L136.611 30.16L136.616 30.1328L136.618 30.1194L136.621 30.109L136.623 30.0999C136.623 30.098 136.624 30.0953 136.625 30.0918C136.625 30.0891 136.626 30.086 136.627 30.0825L136.631 30.0691C136.879 28.6342 137.181 27.2115 137.527 25.8011ZM109.295 60.1159C109.295 60.1163 109.295 60.116 109.294 60.1152L109.295 60.1159ZM120.815 141.624L120.817 141.626C120.814 141.624 120.814 141.624 120.815 141.624Z" stroke="#FFDC73" stroke-opacity="0.1"/>
<path d="M94.2752 130.104C93.0559 127.914 91.92 125.585 90.9132 123.162C89.9619 128.883 90.3727 134.858 91.7753 140.657C96.3169 142.113 99.2645 142.667 103.599 142.975C100.011 139.232 96.8435 134.722 94.2752 130.104Z" stroke="#FFDC73" stroke-opacity="0.1"/>
<path d="M193.103 226.439C191.271 224.091 189.609 221.473 188.105 218.625C187.097 218.701 186.09 218.721 185.088 218.687C186.849 221.655 188.904 224.467 191.308 226.934C191.912 226.788 192.513 226.629 193.103 226.439Z" stroke="#FFDC73" stroke-opacity="0.1"/>
<path d="M186.07 214.407C184.667 211.197 183.464 207.76 182.481 204.138C181.311 203.906 180.159 203.605 179.026 203.253C180.053 208.375 182.317 213.402 182.944 214.713C183.993 214.679 185.033 214.581 186.07 214.407Z" stroke="#FFDC73" stroke-opacity="0.1"/>
<path d="M178.854 193.714C177.985 193.779 177.142 193.785 176.306 193.747C176.923 195.523 177.467 197.315 177.987 199.121C179.123 199.361 180.266 199.537 181.418 199.646C180.88 197.127 180.437 194.547 180.121 191.897C179.96 190.555 179.843 189.204 179.752 187.855C177.552 187.662 175.385 187.181 173.321 186.455C174.232 188.406 175.057 190.351 175.768 192.245C176.779 192.48 177.8 192.644 178.852 192.717L178.854 193.714Z" stroke="#FFDC73" stroke-opacity="0.1"/>
<path d="M159.199 164.536L159.818 163.756C165.615 167.634 172.576 169.461 179.44 168.682C179.395 166.619 179.3 164.572 179.124 162.551C178.865 159.665 178.42 156.863 177.836 154.111C170.084 153.777 162.483 151.189 156.201 146.552L156.732 145.708C162.895 148.966 169.887 150.393 176.801 149.826C175.537 145.217 173.899 140.794 172.063 136.545C161.676 137.459 151.149 133.57 144.094 125.735L144.794 125.023C151.719 131.069 161.117 133.733 170.118 132.239C167.899 127.555 165.525 123.07 163.247 118.789C163.13 118.575 163.017 118.362 162.905 118.152C162.837 118.025 162.77 117.899 162.703 117.773C152.845 117.409 143.407 112.423 137.909 104.079L138.706 103.479C144.121 109.803 152.154 113.423 160.376 113.363C158.398 109.555 156.645 105.952 155.272 102.472C147.653 99.8935 141.246 94.1016 138.244 86.5264L139.141 86.0913C142.332 91.5931 147.572 95.7073 153.578 97.5359C153.396 96.8945 153.233 96.257 153.091 95.619L153.091 95.6189C151.969 90.6072 151.141 85.9785 150.593 81.6544C146.618 77.388 143.965 72.0749 143.071 66.2548L144.035 66.0073C145.318 69.5226 147.355 72.7155 149.971 75.3543C149.754 72.0425 149.719 68.9671 149.895 66.1389C148.198 61.2641 146.901 56.4458 145.982 51.6082C136.898 63.0656 138.436 80.3702 150.283 90.2278L149.682 91.0254C141.701 85.5895 137.401 77.2301 136.657 68.5333C131.197 83.383 139.778 101.553 155.188 106.865L154.905 107.823C144.746 105.31 137.115 97.8235 133.248 88.7493C131.62 95.2945 133.453 102.322 137.326 108.393H138.306L137.71 108.988C143.294 117.37 152.629 123.626 161.573 123.863L161.589 124.862C152.564 125.395 143.641 120.793 137.209 113.874C137.472 121.341 141.646 128.332 147.608 133.538C153.915 139.044 162.155 142.49 169.696 142.376L169.758 143.373C162.869 144.123 155.569 142.223 149.214 138.558C148.891 144.842 152.326 149.862 157.22 153.82C162.32 157.946 168.936 160.856 174.278 162.759L174 163.718C167.66 162.287 160.569 159.92 154.821 156.116C154.805 158.07 155.176 159.975 155.832 161.792C156.236 162.146 156.647 162.508 157.036 162.884C160.028 165.753 162.904 169.225 165.534 172.975C168.734 174.814 172.293 175.879 175.781 175.827L175.863 176.821C173.15 177.231 170.424 177.038 167.791 176.383C169.103 178.457 170.336 180.582 171.466 182.728C174.089 183.482 176.82 183.778 179.545 183.576C179.476 180.971 179.477 178.382 179.49 175.834V175.829V175.822V175.816V175.809V175.803V175.796V175.79V175.783V175.777V175.77V175.763V175.757V175.75V175.744V175.737V175.731V175.724V175.718V175.711V175.705V175.698V175.691V175.685V175.678V175.672V175.665V175.659V175.652V175.646V175.639V175.632V175.626V175.619V175.613V175.606V175.6V175.593V175.587V175.58V175.573V175.567V175.56V175.554V175.547V175.541V175.534V175.528V175.521V175.514V175.508V175.501V175.495V175.488V175.482V175.475V175.469V175.462V175.455V175.449V175.442V175.436V175.429V175.423V175.416V175.41V175.403V175.396V175.39V175.383V175.377V175.37V175.364V175.357V175.351V175.344V175.337V175.331V175.324V175.318V175.311V175.305V175.298V175.292V175.285V175.278V175.272V175.265V175.259V175.252V175.246V175.239V175.233V175.226V175.219V175.213V175.206V175.2V175.193V175.187V175.18V175.174V175.167V175.16V175.154V175.147V175.141V175.134V175.128V175.121V175.115V175.108V175.101V175.095V175.088V175.082V175.075V175.069V175.062V175.056V175.049V175.042V175.036V175.029V175.023V175.016V175.01V175.003V174.997V174.99V174.983V174.977V174.97V174.964V174.957V174.951V174.944V174.938V174.931V174.924V174.918V174.911V174.905V174.898V174.892V174.885V174.879V174.872V174.866V174.859V174.852V174.846V174.839V174.833V174.826V174.82V174.813V174.807V174.8V174.793V174.787V174.78V174.774V174.767V174.761V174.754V174.748V174.741V174.734V174.728V174.721V174.715V174.708V174.702V174.695V174.689V174.682V174.675V174.669V174.662V174.656V174.649V174.643V174.636V174.63V174.623V174.616V174.61V174.603V174.597V174.59V174.584V174.577V174.571V174.564V174.557V174.551V174.544V174.538V174.531V174.525V174.518V174.512V174.505V174.498V174.492V174.485V174.479V174.472V174.466V174.459V174.453V174.446V174.439V174.433V174.426V174.42V174.413V174.407V174.4V174.394V174.387V174.38V174.374V174.367V174.361V174.354V174.348V174.341V174.335V174.328V174.321V174.315V174.308V174.302V174.295V174.289V174.282V174.276V174.269V174.262V174.256V174.249V174.243V174.236V174.23V174.223V174.217V174.21V174.203V174.197V174.19V174.184V174.177V174.171V174.164V174.158V174.151V174.144V174.138V174.131V174.125V174.118V174.112V174.105V174.099V174.092V174.086V174.079V174.072V174.066V174.059V174.053V174.046V174.04V174.033V174.027V174.02V174.013V174.007V174V173.994V173.987V173.981V173.974V173.968V173.961V173.954V173.948V173.941V173.935V173.928V173.922V173.915V173.909V173.902V173.895V173.889V173.882V173.876V173.869V173.863V173.856V173.85V173.843V173.836V173.83V173.823V173.817V173.81V173.804V173.797V173.791V173.784V173.777V173.771V173.764V173.758V173.751V173.745V173.738V173.732V173.725V173.718V173.712V173.705V173.699V173.692V173.686V173.679V173.673V173.666V173.659V173.653V173.646V173.64V173.633V173.627V173.62V173.614V173.607V173.6V173.594V173.587V173.581V173.574V173.568V173.561V173.555V173.548V173.541V173.535V173.528V173.522V173.515V173.509V173.502V173.496V173.489V173.482V173.476V173.469V173.463V173.456V173.45V173.443V173.437V173.43V173.423V173.417V173.41V173.404V173.397V173.391V173.384V173.378V173.371V173.364V173.358V173.351V173.345V173.338V173.332V173.325V173.319V173.312V173.305V173.299V173.292V173.286V173.279V173.273V173.266V173.26V173.253V173.247V173.24V173.233V173.227V173.22V173.214V173.207V173.201V173.194V173.188V173.181V173.174V173.168V173.161V173.155V173.148V173.142V173.135V173.129V173.122V173.115V173.109V173.102V173.096V173.089V173.083V173.076V173.07V173.063V173.056V173.05V173.043V173.037V173.03V173.024V173.017V173.011V173.004V172.997V172.991V172.984V172.978V172.971V172.965V172.961C172.001 172.62 164.725 169.71 159.199 164.536ZM137.099 108.393H137.102C137.098 108.393 137.097 108.393 137.099 108.393Z" stroke="#FFDC73" stroke-opacity="0.1"/>
<path d="M195.661 230.752L195.661 230.752C196.783 231.578 197.898 232.197 199.008 232.657C198.362 232.087 197.723 231.504 197.093 230.903L197.093 230.903L197.085 230.895C196.931 230.741 196.781 230.584 196.636 230.432L196.634 230.43C196.551 230.344 196.471 230.259 196.39 230.176C195.998 230.261 195.604 230.338 195.209 230.406C195.358 230.524 195.508 230.64 195.661 230.752Z" stroke="#FFDC73" stroke-opacity="0.1"/>
<path d="M159.521 203.277L159.522 203.277C161.748 207.087 164.038 210.975 166.69 214.425C171.457 220.607 177.77 225.538 184.821 228.909C178.788 220.967 174.671 211.592 170.643 202.418C170.228 201.471 169.813 200.526 169.396 199.584L169.396 199.584C164.006 187.384 157.855 175.028 147.368 167.024L147.368 167.024C139.337 160.888 129.792 158.025 119.69 156.319C114.639 155.466 109.461 154.903 104.27 154.363C103.852 154.319 103.434 154.276 103.015 154.232C98.2464 153.737 93.4748 153.242 88.8121 152.538C77.4943 150.829 66.8412 147.986 56.8433 144.284C61.6105 147.585 66.6644 150.469 71.9454 152.871L71.9456 152.871C80.2991 156.674 89.338 159.38 98.1156 162.001L98.1159 162.001C103.04 163.474 108.138 165.004 113.101 166.714L113.101 166.714C130.846 172.829 142.96 180.374 151.13 190.487C154.385 194.511 157.006 198.983 159.509 203.255L159.521 203.277Z" stroke="#FFDC73" stroke-opacity="0.1"/>
<path d="M-25.3057 98.7811L-24.4765 98.2247C-18.434 106.273 -10.7306 112.833 -2.02621 117.581C-4.15157 113.279 -5.67278 108.628 -6.4628 103.734C-17.9895 92.6014 -27.499 80.8273 -34.9419 69.7808C-35.5718 71.7963 -35.9829 74.6369 -36.1245 78.2057C-36.2883 82.3356 -36.0901 87.4025 -35.4745 93.2208C-30.7212 110.625 -17.2643 125.047 0.948486 130.776L0.691727 131.741C-12.71 128.813 -24.0256 121.459 -32.0902 111.511C-29.7547 135.199 -8.90759 154.182 14.9645 156.402L14.9178 157.4C1.05714 157.387 -12.0793 151.95 -22.1124 143.087C-13.7693 167.086 13.986 181.401 39.0064 177.742L39.1913 178.724C21.1395 182.895 1.4588 177.859 -12.947 166.524C1.93103 192.944 35.8593 205.477 65.2544 195.96L65.5957 196.899C42.6506 206.169 16.7351 201.859 -2.40338 188C-0.0369415 196.141 5.55901 202.962 12.6032 208.263L12.8796 208.17L13.0735 208.558C13.0899 208.591 13.1023 208.621 13.1114 208.646C20.4342 214.037 29.2007 217.787 37.4199 219.727C58.7693 224.756 80.4868 220.005 101.158 213.828L101.471 214.777C79.7669 222.626 56.6091 228.838 33.3514 223.759C28.154 222.634 22.8901 220.862 17.8681 218.506C21.0322 223.67 24.8984 227.915 29.2811 231.349L29.6017 231.093L29.9042 231.546C29.9688 231.643 30.0371 231.741 30.1093 231.844L30.1104 231.846C30.1651 231.924 30.222 232.005 30.278 232.087C43.0726 241.581 60.1142 244.511 77.4611 243.436C94.8329 242.359 112.449 237.268 126.273 230.811L126.721 231.705C105.441 243.118 81.4673 251.33 56.9227 247.939L56.9223 247.939C50.8688 247.099 44.858 245.524 39.1388 243.242C67.1983 272.105 116.525 274.184 149.042 250.532L149.652 251.324C126.42 270.273 94.1376 275.435 66.1483 267.009C73.7446 273.77 82.7732 278.49 92.4763 281.321L92.7579 280.871L93.1917 281.187C93.3333 281.289 93.4826 281.39 93.6409 281.497L93.6446 281.499C93.7742 281.587 93.9099 281.678 94.0432 281.773C120.473 288.869 151.414 282.199 171.739 264.786L172.411 265.526C155.396 281.917 130.653 290.237 106.692 289.165C138.647 304.298 180.08 299.884 202.138 269.944L202.961 270.511C192.831 286.268 177.638 295.949 160.803 300.289C177.787 301.116 195.193 298.756 209.583 290.165L209.839 290.595L209.583 290.165C218.839 284.641 226.227 275.1 229.09 264.856C229.934 259.274 229.476 253.258 227.112 247.268C226.605 251.308 224.662 255.382 222.025 258.55C220.263 274.087 209.924 287.733 194.487 292.897L194.129 291.964C206.25 286.702 214.4 275.74 216.378 263.332C208.586 268.067 197.748 269.666 189.085 267.365C189.006 267.358 188.933 267.349 188.868 267.341C175.334 281.331 158.845 294.319 138.22 291.609L138.314 290.614C157.156 291.678 171.437 279.616 183.248 265.887C181.285 264.997 179.455 263.795 177.628 262.596C177.01 262.19 176.392 261.784 175.77 261.39C172.758 260.678 169.312 259.15 165.975 256.95C147.774 272.355 124.74 279.825 100.448 277.464L100.513 276.466C123.645 277.233 145.101 269.071 161.555 253.542C159.759 251.936 158.072 250.111 156.611 248.088C151.391 246.389 149.243 243.743 146.832 240.771C146.491 240.352 146.146 239.926 145.786 239.496L145.552 239.379L145.499 239.352C125.791 253.897 101.728 259.839 77.0428 255.618L77.1809 254.628C100.405 257.141 122.637 250.588 140.431 236.287C137.403 233.966 135.336 231.23 133.088 227.431C130.597 226.195 128.902 225.142 127.551 224.071C126.289 223.072 125.341 222.067 124.336 220.914C101.747 234.425 75.6991 238.94 49.5727 233.267L49.7545 232.285C75.0127 236.151 99.5515 230.711 120.407 216.745C115.213 215.362 110.297 212.795 106.161 208.965C101.957 208.283 96.9338 206.261 92.2086 203.633C73.3611 211.262 52.8861 212.889 32.7803 207.985L32.9814 207.006C51.418 210.097 69.7338 207.795 86.4513 200.419C79.4235 198.956 68.6486 195.135 60.2808 189.598C41.6382 193.094 22.0928 190.311 5.25516 181.283L5.69099 180.384C20.8589 186.987 37.5797 188.647 53.6029 185.46C46.4958 182.855 40.0529 178.491 34.9228 171.83C33.7879 171.293 32.5411 170.566 31.2284 169.685C17.5995 170.279 4.12671 166.357 -7.13535 158.164L-6.5887 157.328C3.2215 163.068 14.2758 165.7 25.3378 165.115C20.178 160.612 14.7534 154.656 10.9304 148.684C-0.923126 144.275 -11.705 137.355 -20.6904 128.192L-20.013 127.458C-11.7402 134.367 -2.35654 139.494 7.71066 142.77C3.81735 137.905 1.25551 131.897 0.736267 124.59L0.730789 124.513C-9.91589 118.264 -18.8939 109.525 -25.3057 98.7811Z" stroke="#FFDC73" stroke-opacity="0.1"/>
<path d="M153.357 204.912C153.499 204.834 153.642 204.754 153.784 204.674L153.539 204.242C153.921 204.882 154.302 205.522 154.684 206.176C156.334 208.986 158.026 211.865 159.909 214.648L159.616 214.242C159.485 214.337 159.354 214.43 159.222 214.522M153.357 204.912C153.656 205.414 153.954 205.917 154.252 206.428L154.252 206.429C155.822 209.102 157.437 211.851 159.222 214.522M153.357 204.912C144.69 209.688 134.553 211.517 124.693 209.779L124.812 208.788C134.213 209.397 143.575 206.733 151.204 201.347C149.702 198.906 148.15 196.567 146.383 194.39L146.382 194.389C145.06 192.749 143.605 191.18 142.016 189.67C131.495 196.919 118.93 200.795 106.079 200.523L106.053 199.525C117.995 198.647 129.283 194.122 138.517 186.629C135.192 183.966 131.373 181.511 127.003 179.243C114.442 188.071 99.5323 192.556 84.0815 192.038L84.0771 191.038C98.157 190.441 111.441 185.544 122.475 177.037C119.013 175.457 115.25 173.978 111.139 172.557C109.363 171.952 107.549 171.372 105.742 170.804C92.7156 176.771 78.4022 179.596 64.073 178.859L64.0812 177.86C76.4173 177.427 88.4997 174.34 99.5051 168.857C99.421 168.831 99.337 168.805 99.2529 168.779C98.296 168.486 97.3414 168.192 96.3973 167.911L96.5401 167.432L96.3972 167.911C91.1462 166.345 85.7901 164.736 80.4838 162.874C66.7352 167.723 51.6337 167.635 37.9362 162.553L38.2428 161.602C50.0609 164.854 62.5073 164.45 73.9651 160.442C72.4385 159.834 70.922 159.196 69.4298 158.514C66.0141 156.962 62.7198 155.211 59.508 153.301C46.5989 155.219 33.3418 152.624 22.2232 145.618L22.7145 144.748C32.4029 149.625 43.2807 151.298 53.8666 149.694C49.9822 147.038 46.2811 144.114 42.7736 140.964C32.7674 138.867 23.2523 134.673 15.0291 128.557L15.5766 127.722C22.2787 131.574 29.5983 134.228 37.1691 135.619C37.1361 135.586 37.1033 135.552 37.0706 135.519C23.5416 128.418 11.4976 119.799 0.913544 110.53C5.42416 128.06 20.534 141.432 38.9478 143.662L38.8678 144.658C26.6954 144.171 15.7067 138.988 7.52963 130.888C9.80122 141.208 17.8371 148.218 27.743 152.554C38.1549 157.111 50.545 158.668 60.1759 157.997L60.2787 158.992C48.298 160.638 33.5511 159.204 21.7177 153.529C37.1083 172.074 63.0319 178.157 85.7901 167.958L86.2271 168.857C72.7177 175.954 57.6641 177.146 44.0031 173.292C52.1605 181.676 63.4311 185.045 75.2802 185.327C87.7402 185.623 100.786 182.502 111.374 178.264L111.774 179.18C99.4333 185.01 84.053 189.218 69.5571 188.551C87.5845 198.761 111.145 196.952 128.53 185.567L129.106 186.384C119.328 193.777 107.359 198.011 95.2502 198.706C109.522 207.281 129.3 205.834 143.319 197.318L143.873 198.15C135.41 204.295 124.63 207.775 113.895 208.001C124.068 216.527 139.673 216.878 150.967 209.804L151.537 210.624C145.192 215.505 137.443 217.982 129.726 218C137.917 226.791 151.989 228.704 162.929 223.957L163.38 224.847C156.68 228.763 148.619 230.059 141.034 228.818C144.634 233.337 150.166 235.613 156.194 236.354C162.651 237.149 169.613 236.172 175.197 234.363L175.561 235.293C168.846 238.387 160.788 240.09 153.254 239.379C154.368 240.806 156.319 241.94 158.858 242.768C161.855 243.746 165.571 244.263 169.413 244.362C173.252 244.462 177.193 244.145 180.631 243.468C184.082 242.789 186.973 241.758 188.755 240.464L189.388 241.235C182.906 247.241 173.636 249.908 164.843 249.038C174.25 258.955 191.351 257.554 200.044 246.293L200.868 246.857C196.643 253.851 190.055 257.762 183.037 258.857C185.804 260.335 188.76 261.144 191.714 261.327L191.476 260.391C198.914 258.038 204.716 252.155 207.054 244.947M153.357 204.912C153.274 204.774 153.192 204.635 153.109 204.497L153.108 204.495L153.538 204.239C146.191 208.392 137.745 210.387 129.308 209.832C127.793 209.899 126.271 209.884 124.747 209.785L124.78 209.286L124.866 208.794C126.344 209.055 127.828 209.233 129.313 209.332C137.423 208.969 145.303 206.235 151.873 201.483C150.291 198.891 148.654 196.394 146.771 194.075L207.054 244.947M159.222 214.522C159.312 214.658 159.403 214.793 159.494 214.928L159.908 214.648C155.053 218.151 149.22 220.184 143.218 220.479C142.045 220.372 140.874 220.199 139.711 219.956L139.609 220.446L139.575 220.945C140.788 221.027 142.001 221.038 143.207 220.98C149.598 221.555 156.05 220.18 161.709 217.172M159.222 214.522C153.56 218.469 146.607 220.419 139.643 219.947L139.507 220.935C147.013 222.499 154.82 221.287 161.555 217.817M161.555 217.817C161.52 217.767 161.486 217.719 161.452 217.671C161.401 217.6 161.351 217.53 161.304 217.464L161.709 217.172M161.555 217.817C161.653 217.954 161.756 218.095 161.86 218.229C164.381 221.495 167.273 224.436 170.468 227.041C163.859 229.487 156.819 230.715 149.743 230.546L149.659 231.541C157.867 232.741 166.22 232.076 174.143 229.805C176.786 231.634 179.585 233.249 182.5 234.63C176.903 239.136 169.665 241.517 162.356 241.038L162.231 242.028C170.811 243.634 179.625 241.383 186.544 236.359C189.238 237.401 192.02 238.253 194.84 238.891C195.588 239.435 196.361 239.951 197.145 240.439C191.621 247.219 183.384 251.65 174.508 252.334L174.534 253.333C184.434 253.592 193.893 249.398 200.6 242.397C202.679 243.442 204.853 244.302 207.054 244.947M161.555 217.817C161.685 217.75 161.815 217.682 161.944 217.613L161.709 217.172M161.709 217.172C161.761 217.244 161.813 217.317 161.866 217.391C161.992 217.568 162.12 217.749 162.255 217.922C164.811 221.234 167.753 224.21 171.011 226.837L207.054 244.947M210.852 245.794C207.42 253.593 200.438 259.616 191.845 261.335C199.977 261.788 208.086 257.503 212.245 249.372L213.16 249.771C210.871 256.04 206.437 260.482 201.107 263.007C207.046 262.873 213.088 261.159 217.56 258.017C221.834 255.011 224.898 249.642 225.006 244.566C224.187 244.882 223.355 245.161 222.508 245.384C221.078 251.321 217.434 256.69 212.09 259.931L211.507 259.123C215.42 255.785 217.948 251.07 218.65 246.063C216.066 246.332 213.448 246.226 210.852 245.794ZM170.92 227.406C165.453 229.461 159.688 230.689 153.845 230.989C152.495 230.893 151.148 230.748 149.804 230.551L149.731 231.046L149.719 231.546C151.095 231.579 152.47 231.56 153.84 231.49C160.715 231.975 167.625 231.181 174.233 229.259C176.975 231.173 179.889 232.854 182.927 234.279L170.92 227.406ZM183.003 234.866C178.339 238.685 172.528 241.04 166.462 241.511C165.113 241.451 163.761 241.297 162.415 241.045L162.323 241.537L162.291 242.036C163.69 242.127 165.087 242.118 166.47 242.012C173.637 242.323 180.729 240.036 186.47 235.793C189.253 236.885 192.132 237.772 195.051 238.426C195.83 238.996 196.638 239.536 197.46 240.046L183.003 234.866ZM197.574 240.703C192.959 246.392 186.465 250.461 179.274 252.111C177.72 252.298 176.146 252.374 174.56 252.333L174.547 252.833L174.585 253.331C176.201 253.207 177.797 252.962 179.36 252.604C187.444 251.625 194.951 247.69 200.494 241.782L197.574 240.703Z" stroke="#FFDC73" stroke-opacity="0.1"/>
<path d="M191.396 370.352C190.769 370.439 190.135 370.628 189.499 370.858C189.948 371.275 190.285 371.81 190.473 372.392C190.676 372.199 190.897 372.016 191.123 371.851C191.697 371.435 192.403 371.07 193.046 371.035C193.595 371.005 194.168 371.107 194.693 371.327C194.498 371.095 194.258 370.894 193.987 370.742C193.238 370.321 192.307 370.225 191.396 370.352Z" stroke="#FFDC73" stroke-opacity="0.1"/>
<path d="M197.066 374.462L197.066 374.462C196.363 374.417 195.645 374.504 194.915 374.645C195.159 374.944 195.358 375.275 195.513 375.604C195.655 375.904 195.767 376.215 195.846 376.515C196.635 376.017 197.593 375.789 198.518 375.894C199.26 375.979 199.941 376.276 200.507 376.724C200.362 376.268 200.091 375.838 199.731 375.502C199.045 374.864 198.075 374.525 197.066 374.462Z" stroke="#FFDC73" stroke-opacity="0.1"/>
<path d="M199.366 381.453L199.366 381.453L199.37 381.464C199.53 381.918 199.596 382.404 199.566 382.884C199.624 382.86 199.683 382.838 199.741 382.817C199.992 382.726 200.26 382.654 200.517 382.621C200.761 382.591 201.048 382.59 201.304 382.692C202.043 382.975 202.55 383.624 202.803 384.289C202.851 384.416 202.89 384.541 202.921 384.667C203.089 384.148 203.109 383.569 202.959 383.033C202.678 382.025 201.869 381.177 200.866 380.737C200.212 380.45 199.445 380.319 198.679 380.324C198.975 380.655 199.211 381.041 199.366 381.453Z" stroke="#FFDC73" stroke-opacity="0.1"/>
<path d="M185.122 410.749C185.437 411.495 185.51 412.348 185.32 413.137C185.806 412.948 186.297 412.67 186.749 412.335C187.49 411.788 188.078 411.126 188.367 410.537C188.605 410.047 188.739 409.53 188.783 409.002C188.532 409.396 188.211 409.746 187.831 410.026C187.07 410.586 186.073 410.824 185.122 410.749Z" stroke="#FFDC73" stroke-opacity="0.1"/>
<path d="M97.2554 294.478C94.5635 293.324 91.8932 292.096 89.2446 290.805C86.5303 292.007 83.8386 293.315 81.1841 294.751C85.6004 294.038 91.1892 294.017 97.2554 294.478Z" stroke="#FFDC73" stroke-opacity="0.1"/>
<path d="M228.435 234.546L228.864 234.354L229.082 234.771L231.606 239.614C231.606 239.614 231.606 239.614 231.606 239.614C231.995 240.36 232.349 241.112 232.682 241.864C237.884 237.126 241.755 230.593 243.571 223.653C237.298 230.607 229.937 234.046 222.753 235.807C222.194 236.419 221.636 237.022 221.076 237.621C221.88 237.394 222.673 237.112 223.457 236.769C223.457 236.769 223.458 236.768 223.458 236.768L228.435 234.546Z" stroke="#FFDC73" stroke-opacity="0.1"/>
<path d="M213.033 304.015L213.034 304.015C215.322 305.421 218.186 305.949 220.859 305.53C218.485 302.046 217.485 297.59 218.302 293.447C215.379 295.592 212.205 297.496 208.751 299.169C209.699 301.153 211.19 302.887 213.033 304.015Z" stroke="#FFDC73" stroke-opacity="0.1"/>
<path d="M247.659 294.179C243.216 296.559 237.583 296.685 233.12 294.226C232.974 294.148 232.83 294.066 232.689 293.982C232.574 296.535 233.157 299.167 234.26 301.464C235.483 304.012 237.328 306.112 239.522 307.244C244.244 309.681 250.557 308.811 254.513 305.257C250.787 302.782 248.225 298.611 247.659 294.179Z" stroke="#FFDC73" stroke-opacity="0.1"/>
<path d="M252.858 258.477L251.742 259.125C254.756 259.788 258.161 258.861 260.522 256.822C259.584 256.292 258.715 255.629 257.943 254.879C256.357 256.222 254.663 257.433 252.859 258.477C252.859 258.477 252.859 258.477 252.858 258.477Z" stroke="#FFDC73" stroke-opacity="0.1"/>
<path d="M279.59 276.973L281.185 272.764L281.185 272.763C281.698 271.419 282.165 270.075 282.591 268.736C281.395 269.398 280.075 269.869 278.69 270.093L278.689 270.093C277.767 270.241 276.83 270.279 275.899 270.223C276.589 272.927 277.87 275.277 279.59 276.973Z" stroke="#FFDC73" stroke-opacity="0.1"/>
<path d="M179.149 307.185C179.88 307.48 180.633 307.712 181.4 307.876C181.246 307.574 181.104 307.266 180.971 306.953C180.364 307.034 179.757 307.112 179.149 307.185Z" stroke="#FFDC73" stroke-opacity="0.1"/>
<path d="M203.594 301.408C204.463 301.985 205.472 302.355 206.491 302.448C206.117 301.871 205.782 301.267 205.49 300.643C204.865 300.903 204.234 301.158 203.594 301.408Z" stroke="#FFDC73" stroke-opacity="0.1"/>
<path d="M187.849 310.021L187.85 310.022C189.945 311.498 192.559 312.149 195.096 311.889C193.936 309.663 193.233 307.207 193.013 304.715C190.346 305.37 187.558 305.931 184.656 306.409C185.423 307.833 186.511 309.084 187.849 310.021Z" stroke="#FFDC73" stroke-opacity="0.1"/>
<path d="M238.782 245.709C237.429 246.263 236.046 246.734 234.628 247.115C234.975 248.308 235.249 249.504 235.477 250.69C237.274 250.299 238.991 249.463 240.377 248.266C239.735 247.507 239.202 246.644 238.782 245.709Z" stroke="#FFDC73" stroke-opacity="0.1"/>
<path d="M269.637 263.986L269.637 263.986L269.64 263.988C269.701 264.042 269.763 264.095 269.827 264.147C270.427 261.756 270.913 259.385 271.293 257.055C269.636 257.827 267.809 258.249 265.974 258.25C266.716 260.52 267.991 262.531 269.637 263.986Z" stroke="#FFDC73" stroke-opacity="0.1"/>
<path d="M262.695 259.715C259.866 262.072 256.064 263.234 252.402 262.838C252.928 266.959 255.969 270.809 259.913 272.112L262.695 259.715ZM262.695 259.715C263.643 262.44 265.211 264.845 267.298 266.673C267.799 267.115 268.327 267.503 268.863 267.856L267.823 271.651C265.311 272.714 262.436 272.944 259.913 272.112L262.695 259.715Z" stroke="#FFDC73" stroke-opacity="0.1"/>
<path d="M235.711 265.321C235.698 265.407 235.684 265.493 235.67 265.578C235.765 265.541 235.858 265.502 235.951 265.462C235.87 265.416 235.79 265.369 235.711 265.321Z" stroke="#FFDC73" stroke-opacity="0.1"/>
<path d="M278.121 266.554C280.504 266.167 282.673 264.718 283.923 262.788C282.207 262.353 280.638 261.54 279.286 260.465C278.072 262.613 276.693 264.645 275.141 266.545C276.143 266.704 277.146 266.717 278.119 266.555L278.121 266.554Z" stroke="#FFDC73" stroke-opacity="0.1"/>
<path d="M198.718 330.501C202.435 328.017 205.965 325.106 209.18 321.568C204.912 321.031 200.792 318.998 197.855 315.862C196.329 318.976 195.849 322.462 196.549 325.671C196.935 327.418 197.698 329.069 198.718 330.501Z" stroke="#FFDC73" stroke-opacity="0.1"/>
<path d="M246.181 275.609C249.289 276.987 253.245 276.31 255.872 274.12C252.552 272.075 250.081 268.711 249.14 264.926C246.685 266.476 243.706 267.184 240.817 266.933C240.752 270.504 242.938 274.159 246.181 275.609Z" stroke="#FFDC73" stroke-opacity="0.1"/>
<path d="M251.18 289.103L251.181 289.104C255.258 290.987 260.403 290.114 263.713 287.079C260.434 284.928 257.999 281.533 257.08 277.718C253.503 280.094 248.712 280.641 244.737 278.869L244.734 278.867C244.675 278.84 244.618 278.813 244.561 278.784C244.616 283.097 247.25 287.298 251.18 289.103Z" stroke="#FFDC73" stroke-opacity="0.1"/>
<path d="M234.72 278.553L234.72 278.553L234.722 278.553C237.031 278.614 239.333 277.814 241.125 276.361C239.088 274.344 237.705 271.644 237.316 268.794C236.514 269.137 235.672 269.378 234.822 269.524C234.021 272.47 232.925 275.298 231.585 277.948C232.586 278.319 233.645 278.531 234.72 278.553Z" stroke="#FFDC73" stroke-opacity="0.1"/>
<path d="M240.936 252.288C239.437 253.229 237.754 253.893 236.022 254.237C236.271 256.593 236.315 258.937 236.166 261.236C236.81 261.814 237.525 262.298 238.299 262.65L238.301 262.651C241.37 264.059 245.217 263.502 247.886 261.428C247.864 261.415 247.843 261.403 247.821 261.391L245.533 262.719L244.868 262.006L246.059 260.248C243.511 258.291 241.639 255.434 240.936 252.288Z" stroke="#FFDC73" stroke-opacity="0.1"/>
<path d="M225.537 305.531L225.538 305.533C228.092 307.873 231.749 308.98 235.209 308.588C231.455 305.332 229.101 300.011 229.081 294.712C226.909 295.461 224.386 295.869 222.116 295.077L222.116 295.078L222.106 295.074C221.978 295.026 221.85 294.977 221.722 294.926C221.234 298.791 222.661 302.916 225.537 305.531Z" stroke="#FFDC73" stroke-opacity="0.1"/>
<mask id="path-49-inside-2_991:12259" fill="white">
<path d="M266.537 243.542L266.523 243.556L266.537 243.542Z"/>
</mask>
<path d="M267.244 244.25L267.229 244.264L265.816 242.849L265.83 242.835L267.244 244.25ZM265.816 242.849L265.83 242.835L267.244 244.25L267.229 244.264L265.816 242.849Z" fill="#FFDC73" fill-opacity="0.1" mask="url(#path-49-inside-2_991:12259)"/>
<path d="M200.268 313.181L200.268 313.181C202.572 315.77 205.879 317.487 209.345 317.995C206.91 314.562 205.906 310.186 206.616 306.041C204.018 305.929 201.486 304.719 199.761 302.784C198.705 303.131 197.631 303.46 196.532 303.778C196.682 307.22 197.994 310.628 200.268 313.181Z" stroke="#FFDC73" stroke-opacity="0.1"/>
<path d="M159.156 315.626L159.156 315.626L159.154 315.623C158.818 315.128 158.517 314.608 158.247 314.073C155.746 317.231 154.909 321.674 156.19 325.501C156.926 325.573 157.677 325.649 158.418 325.746L158.487 326.724C158.009 326.856 157.553 326.994 157.098 327.131C157.043 327.147 156.989 327.163 156.935 327.18C158.342 329.866 160.794 331.992 163.647 333.037C162.596 328.851 163.262 324.233 165.447 320.506C162.927 319.557 160.683 317.838 159.156 315.626Z" stroke="#FFDC73" stroke-opacity="0.1"/>
<path d="M171.19 318.193L171.19 318.193C172.749 321.407 175.799 323.895 179.252 324.902C177.849 320.466 178.415 315.411 180.739 311.392C177.973 310.826 175.39 309.558 173.223 307.754C172.417 307.821 171.614 307.887 170.802 307.937C169.555 311.226 169.663 315.05 171.19 318.193Z" stroke="#FFDC73" stroke-opacity="0.1"/>
<path d="M146.634 312.663C145.754 312.686 144.863 312.728 143.975 312.773C144.046 314 144.303 315.216 144.753 316.358C145.214 317.516 145.866 318.582 146.667 319.545C146.714 319.553 146.762 319.56 146.812 319.568L146.816 319.568C146.926 319.585 147.046 319.603 147.163 319.625L147.155 320.114C148.517 321.557 150.237 322.662 152.13 323.293C151.783 319.757 152.63 316.092 154.54 313.087C151.966 312.078 149.777 310.068 148.533 307.589C147.327 307.483 146.129 307.366 144.923 307.231C144.368 308.523 144.046 309.911 143.971 311.316C144.182 311.342 144.394 311.369 144.606 311.395C145.3 311.482 146.001 311.57 146.692 311.668L146.634 312.663Z" stroke="#FFDC73" stroke-opacity="0.1"/>
<path d="M280.566 302.729L280.565 302.729C278.785 302.891 276.993 302.734 275.268 302.269C275.436 304.66 276.19 306.999 277.402 309.078C278.91 306.966 280.344 304.801 281.685 302.585C281.316 302.646 280.943 302.695 280.566 302.729Z" stroke="#FFDC73" stroke-opacity="0.1"/>
<path d="M211.435 347.981L211.435 347.981C210.875 344.893 211.067 341.637 211.943 338.605C208.703 339.473 205.138 339.218 201.992 337.774C200.926 337.292 199.932 336.664 199.011 335.934C198.996 335.947 198.981 335.959 198.966 335.972C198.752 336.152 198.535 336.333 198.316 336.51C198.027 340.7 199.561 345.082 202.475 348.075C205.146 350.809 208.996 352.407 212.848 352.516C212.2 351.065 211.716 349.535 211.435 347.981Z" stroke="#FFDC73" stroke-opacity="0.1"/>
<path d="M209.979 324.47C207.573 327.748 204.799 330.741 201.773 333.514C202.324 333.901 202.898 334.238 203.502 334.52C206.548 335.925 210.243 335.801 213.122 334.308C211.085 331.464 209.971 327.971 209.979 324.47Z" stroke="#FFDC73" stroke-opacity="0.1"/>
<path d="M234.032 323.337L234.034 323.338C236.539 323.86 239.249 323.689 241.872 322.88C238.732 320.178 236.707 316.157 236.528 312.001C232.322 312.715 227.825 311.664 224.381 309.156C223.622 311.834 224.001 314.93 225.494 317.447L225.495 317.447C227.232 320.386 230.422 322.6 234.032 323.337Z" stroke="#FFDC73" stroke-opacity="0.1"/>
<path d="M167.577 333.657L167.577 333.657C168.971 337.195 172.108 339.971 175.755 341.119C175.968 341.048 176.179 340.977 176.389 340.904C175.351 336.698 175.895 332.104 177.96 328.292C174.32 327.158 171.131 324.764 169.03 321.578C166.635 325.042 166.026 329.738 167.577 333.657Z" stroke="#FFDC73" stroke-opacity="0.1"/>
<path d="M210.207 306.397C209.5 310.056 210.524 314.094 212.947 316.875C213.433 316.209 213.909 315.538 214.374 314.834L215.252 315.305C214.873 316.197 214.452 317.065 214.02 317.914C216.565 320.124 220.121 321.208 223.496 320.855C223.094 320.353 222.723 319.823 222.395 319.264C220.602 316.206 220.014 312.51 220.69 309.154C217.412 309.518 214.013 308.799 211.161 307.05L211.16 307.05C210.831 306.847 210.514 306.626 210.207 306.397Z" stroke="#FFDC73" stroke-opacity="0.1"/>
<path d="M224.877 324.293C221.056 324.966 217.048 324.162 213.756 322.138C212.887 326.529 214.446 331.33 217.834 334.282L224.877 324.293ZM224.877 324.293C225.16 328.902 227.256 333.395 230.534 336.637M224.877 324.293L230.534 336.637M230.534 336.637C226.291 338.15 221.259 337.259 217.835 334.282L230.534 336.637Z" stroke="#FFDC73" stroke-opacity="0.1"/>
<path d="M156.834 308.118C155.594 308.075 154.349 308.013 153.109 307.936C154.165 309.017 155.526 309.796 156.984 310.092C156.881 309.436 156.833 308.777 156.834 308.118Z" stroke="#FFDC73" stroke-opacity="0.1"/>
<path d="M162.106 313.596C163.293 315.291 165.055 316.596 167.027 317.263C166.153 314.289 166.138 311.098 166.964 308.117C164.777 308.187 162.591 308.21 160.405 308.193C160.439 310.115 161.022 312.035 162.106 313.596Z" stroke="#FFDC73" stroke-opacity="0.1"/>
<path d="M185.759 312.94L185.759 312.94L185.756 312.937C185.351 312.647 184.97 312.335 184.605 312.009C181.689 315.875 181.169 321.488 183.433 325.776C185.696 330.041 190.649 332.772 195.461 332.555C195.545 332.511 195.629 332.465 195.712 332.418C194.461 330.639 193.528 328.597 193.049 326.432L193.048 326.431C192.261 322.846 192.64 319.025 194.062 315.526C191.119 315.542 188.185 314.652 185.759 312.94Z" stroke="#FFDC73" stroke-opacity="0.1"/>
<path d="M247.485 322.116L247.485 322.116C251.862 323.701 257.333 321.996 260.205 318.309C257.437 316.158 255.456 312.983 254.769 309.542C250.471 312.27 244.945 312.961 240.108 311.337C240.092 315.919 243.189 320.564 247.485 322.116Z" stroke="#FFDC73" stroke-opacity="0.1"/>
<path d="M161.791 336.149C158.19 334.639 155.171 331.787 153.499 328.259C152.924 328.446 152.362 328.64 151.805 328.835C149.794 331.362 148.701 334.642 148.921 337.817C149.151 341.097 150.777 344.29 153.237 346.522C154.871 346.315 156.496 346.068 158.135 345.807C157.942 342.26 159.305 338.676 161.791 336.149Z" stroke="#FFDC73" stroke-opacity="0.1"/>
<path d="M129.066 345.037L129.066 345.037C128.917 344.346 128.843 343.64 128.837 342.936C127.124 344.716 125.492 346.587 123.75 348.585C122.789 349.687 121.795 350.827 120.735 352.012C123.903 350.816 127.395 349.981 131.059 349.331C130.111 348.069 129.405 346.613 129.066 345.037Z" stroke="#FFDC73" stroke-opacity="0.1"/>
<path d="M146.502 330.879C143.755 332.053 141.387 333.264 139.286 334.517C140.901 336.067 143.15 336.984 145.338 336.874C145.346 334.82 145.759 332.78 146.502 330.879Z" stroke="#FFDC73" stroke-opacity="0.1"/>
<path d="M132.567 344.281C132.935 345.985 133.956 347.547 135.341 348.649C136.248 348.518 137.164 348.396 138.088 348.282C138.077 346.432 138.465 344.559 139.282 342.886C139.813 341.778 140.52 340.756 141.359 339.864C139.397 339.203 137.613 338.03 136.236 336.487C135.394 337.077 134.603 337.668 133.853 338.277C132.645 340.02 132.139 342.254 132.567 344.281Z" stroke="#FFDC73" stroke-opacity="0.1"/>
<path d="M141.657 347.85C142.749 347.726 143.843 347.605 144.94 347.485C146.232 347.343 147.528 347.201 148.831 347.051C147.409 345.22 146.356 343.088 145.791 340.824C144.378 341.688 143.205 342.96 142.488 344.438C141.987 345.496 141.707 346.673 141.657 347.85Z" stroke="#FFDC73" stroke-opacity="0.1"/>
<path d="M233.91 339.286C233.062 340.892 232.594 342.71 232.499 344.552C234.723 343.522 236.914 342.451 239.067 341.341C237.262 340.917 235.515 340.232 233.91 339.286Z" stroke="#FFDC73" stroke-opacity="0.1"/>
<path d="M179.772 339.715C183.245 338.454 186.719 337.05 190.128 335.401C186.71 334.349 183.608 332.22 181.488 329.352C179.595 332.387 179.003 336.211 179.772 339.715Z" stroke="#FFDC73" stroke-opacity="0.1"/>
<path d="M268.169 285.346L268.169 285.346C272.404 286.766 277.533 285.338 280.536 282.033C280.266 281.894 280.002 281.745 279.743 281.587L278.196 283.365L277.351 282.859L278.23 280.545C277.922 280.301 277.618 280.042 277.329 279.775L277.329 279.775L277.325 279.771C275.366 277.916 273.846 275.473 272.886 272.702C269.467 275.561 264.753 276.783 260.367 275.894C261.024 280.11 264.138 283.998 268.169 285.346Z" stroke="#FFDC73" stroke-opacity="0.1"/>
<path d="M228.907 346.186C228.796 344.317 228.998 342.426 229.52 340.619C224.899 341.531 219.891 340.424 216.149 337.513C214.803 340.574 214.359 344.064 214.956 347.337C215.219 348.725 215.667 350.083 216.271 351.381C220.525 349.754 224.752 348.03 228.907 346.186Z" stroke="#FFDC73" stroke-opacity="0.1"/>
<path d="M137.905 365.517L137.906 365.517C144.723 362.172 151.776 359.5 158.869 356.813C161.602 355.778 164.342 354.74 167.075 353.661C176.614 349.895 186.051 345.635 194.787 339.225C195.153 343.436 196.937 347.501 199.917 350.573L137.905 365.517ZM137.905 365.517C133.63 367.614 129.996 369.713 127.192 371.766C124.378 373.826 122.444 375.808 121.51 377.658C121.047 378.576 120.838 379.447 120.876 380.274C120.914 381.096 121.2 381.907 121.778 382.707C122.948 384.325 125.313 385.892 129.181 387.313L129.183 387.313C134.893 389.429 142.855 391.482 149.362 392.541L149.362 392.541C153.65 393.244 159.052 394.244 163.564 395.531C165.818 396.174 167.87 396.895 169.456 397.695C170.25 398.095 170.94 398.523 171.485 398.98C172.027 399.436 172.45 399.943 172.667 400.509L172.254 400.667L172.667 400.509C172.98 401.325 173.178 402.503 173.384 403.781C173.4 403.883 173.417 403.986 173.434 404.09C173.629 405.309 173.842 406.64 174.164 407.958C174.87 410.842 176.058 413.485 178.513 414.656C179.363 415.06 180.445 415.195 181.4 414.977C182.343 414.761 183.121 414.215 183.479 413.28C183.877 412.221 183.389 411.261 182.708 410.85C182.371 410.647 182.017 410.596 181.712 410.694C181.414 410.791 181.075 411.059 180.82 411.671L180.606 412.186L180.117 411.917C178.55 411.053 177.621 410.005 177.223 408.831C176.828 407.661 176.989 406.447 177.439 405.304C178.33 403.039 180.416 400.885 182.095 399.461C184.219 397.658 185.409 395.424 186.558 393.076C186.655 392.877 186.752 392.678 186.849 392.478C187.893 390.331 188.973 388.107 190.773 386.21L190.773 386.21C191.539 385.403 192.586 384.437 193.866 384.156L193.867 384.156C194.509 384.017 195.07 384.196 195.492 384.331C195.545 384.348 195.597 384.365 195.646 384.38C196.098 384.518 196.447 384.583 196.89 384.381C197.463 384.118 197.702 383.787 197.785 383.48C197.872 383.155 197.811 382.759 197.593 382.336C197.145 381.468 196.167 380.737 195.316 380.654L195.314 380.654C194.497 380.571 193.629 380.854 192.717 381.449C191.805 382.044 190.888 382.924 189.991 383.959C188.472 385.712 187.067 387.843 185.879 389.645C185.662 389.975 185.451 390.294 185.249 390.597L184.396 390.077C184.985 389.016 185.396 387.862 185.8 386.657C185.846 386.519 185.892 386.381 185.938 386.242C186.293 385.176 186.659 384.076 187.15 383.028L187.15 383.027C187.179 382.965 187.209 382.901 187.24 382.835C187.495 382.288 187.822 381.591 188.222 380.951C188.666 380.244 189.248 379.528 190.008 379.172C190.403 378.984 190.796 378.956 191.145 378.971C191.318 378.979 191.489 378.997 191.644 379.016C191.664 379.018 191.684 379.02 191.704 379.023C191.84 379.039 191.965 379.053 192.09 379.062C192.372 379.083 192.605 379.071 192.82 378.994C193.027 378.92 193.259 378.77 193.509 378.446L193.51 378.445C194.08 377.709 194.202 377.145 194.141 376.749C194.08 376.358 193.821 376.015 193.377 375.752C192.462 375.209 190.957 375.139 189.865 375.703C187.313 377.024 185.399 380.026 184.903 382.849L183.912 382.8C183.77 380.929 184.104 378.684 185.161 377.011L185.266 376.843L185.458 376.794C186.524 376.518 187.569 375.664 188.248 374.677C188.584 374.188 188.814 373.691 188.914 373.251C189.001 372.867 188.982 372.564 188.893 372.344C188.245 371.944 187.67 371.872 187.14 371.991C186.558 372.122 185.969 372.497 185.367 373.075C184.352 374.049 183.423 375.469 182.515 376.857C182.338 377.127 182.162 377.397 181.986 377.661C181.434 378.654 181.203 379.753 181.109 380.927C181.045 381.731 181.046 382.535 181.047 383.358C181.048 383.765 181.048 384.176 181.041 384.594C180.998 387.075 180.671 389.628 178.13 391.487L178.128 391.489C176.72 392.507 175.049 392.466 173.45 392.143C172.647 391.981 171.832 391.742 171.048 391.509L170.935 391.475C170.185 391.252 169.466 391.038 168.781 390.891C160.504 389.136 152.42 386.437 144.733 382.875L144.731 382.874C143.197 382.156 142.299 381.388 141.844 380.561L141.767 380.42L141.786 380.26C141.921 379.144 142.617 378.119 143.682 377.167C144.75 376.211 146.241 375.282 148.072 374.363C151.736 372.524 156.865 370.674 162.971 368.702C167.271 367.313 172.058 365.864 177.179 364.313C186.236 361.571 196.337 358.513 206.627 354.918M137.905 365.517L206.627 354.918M206.627 354.918C204.116 353.98 201.803 352.519 199.917 350.573L206.627 354.918Z" stroke="#FFDC73" stroke-opacity="0.1"/>
<path d="M111.628 320.634C120.783 316.43 130.488 313.909 140.403 313.007C140.502 314.586 140.822 316.163 141.408 317.653L111.628 320.634ZM111.628 320.634C121.609 318.221 131.848 317.621 141.949 318.843C141.752 318.459 141.569 318.064 141.408 317.653L111.628 320.634Z" stroke="#FFDC73" stroke-opacity="0.1"/>
<path d="M140.431 310.916C140.523 309.505 140.805 308.101 141.279 306.763C136.694 306.14 132.111 305.316 127.544 304.295L127.553 305.1C117.074 306.638 106.813 309.31 97.0209 313.481C111.278 309.963 125.89 309.456 140.431 310.916ZM74.9732 309.576C91.3453 303.906 108.677 302.048 125.906 303.92C119.297 302.372 112.727 300.41 106.245 298.044C95.3629 300.415 84.8308 304.251 74.9732 309.576Z" stroke="#FFDC73" stroke-opacity="0.1"/>
<path d="M147.592 325.057C146.041 324.066 144.663 322.81 143.536 321.343C136.755 322.862 130.135 325.14 123.716 328.264C131.632 326.063 139.599 325.025 147.592 325.057Z" stroke="#FFDC73" stroke-opacity="0.1"/>
<path d="M284.834 243.706C285.17 243.777 285.508 243.832 285.848 243.874C285.733 242.265 285.55 240.684 285.298 239.132C285.206 240.679 285.052 242.205 284.834 243.706Z" stroke="#FFDC73" stroke-opacity="0.1"/>
<path d="M223.308 291.706L223.308 291.706L223.311 291.707C224.631 292.184 226.633 291.934 229.065 290.895C227.851 289.47 226.906 287.824 226.268 286.068C224.844 287.789 223.313 289.37 221.696 290.78L221.688 290.787L221.679 290.794C221.651 290.817 221.622 290.84 221.594 290.862C222.133 291.209 222.71 291.494 223.308 291.706Z" stroke="#FFDC73" stroke-opacity="0.1"/>
<path d="M268.813 241.232L268.813 241.232L268.821 241.235C269.873 241.649 271.009 241.757 272.123 241.579C271.94 238.697 271.558 235.917 270.971 233.252C270.368 235.921 269.485 238.53 268.346 241.024C268.501 241.103 268.656 241.174 268.813 241.232Z" stroke="#FFDC73" stroke-opacity="0.1"/>
<path d="M254.22 235.633C255.028 235.971 255.895 236.141 256.756 236.157C257.048 234.001 257.197 231.833 257.182 229.675C256.055 231.607 254.754 233.434 253.302 235.136C253.596 235.332 253.904 235.499 254.22 235.633Z" stroke="#FFDC73" stroke-opacity="0.1"/>
<path d="M169.17 343.255L169.17 343.255L169.175 343.253C169.672 343.1 170.163 342.942 170.662 342.781C170.709 342.766 170.756 342.751 170.803 342.736C168.727 341.425 166.924 339.666 165.601 337.603C163.195 339.234 161.709 342.199 161.689 345.144C164.247 344.626 166.758 344.021 169.17 343.255Z" stroke="#FFDC73" stroke-opacity="0.1"/>
<path d="M255.534 242.029C255.748 241.255 255.941 240.476 256.115 239.692C255.594 239.654 255.071 239.578 254.554 239.461C254.693 240.369 255.028 241.262 255.534 242.029Z" stroke="#FFDC73" stroke-opacity="0.1"/>
<path d="M271.909 252.452C269.775 254.286 266.799 255.137 264.11 254.449L271.909 252.452ZM271.909 252.452C271.962 251.869 272.014 251.281 272.059 250.699C270.352 249.626 268.942 248.062 268.097 246.213C266.886 247.085 265.573 247.717 264.232 248.098C263.115 249.623 261.888 251.082 260.559 252.436C261.57 253.393 262.773 254.106 264.11 254.449L271.909 252.452Z" stroke="#FFDC73" stroke-opacity="0.1"/>
<path d="M251.244 251.168C248.938 251.898 246.489 251.853 244.36 251.067C244.781 253.472 246.146 255.755 248.058 257.31L249.615 255.009C249.615 255.009 249.615 255.008 249.615 255.008C250.512 253.679 251.33 252.294 252.07 250.87C251.799 250.98 251.524 251.08 251.244 251.168Z" stroke="#FFDC73" stroke-opacity="0.1"/>
<path d="M272.251 245.131C272.039 245.157 271.826 245.178 271.611 245.192C271.799 245.52 272.014 245.835 272.252 246.131C272.254 245.797 272.253 245.463 272.251 245.131Z" stroke="#FFDC73" stroke-opacity="0.1"/>
<path d="M284.947 259.363C285.544 256.057 285.891 252.803 285.977 249.634C285.788 249.399 285.598 249.159 285.412 248.917C284.814 249.546 284.124 250.09 283.391 250.561C282.731 252.855 281.918 255.079 280.95 257.199C282.11 258.232 283.472 259.004 284.947 259.363Z" stroke="#FFDC73" stroke-opacity="0.1"/>
<path d="M253.537 245.233L253.531 245.227L253.526 245.221C252.176 243.782 251.322 241.967 251.021 240.082C249.837 240.552 248.548 240.793 247.273 240.844C245.635 242.094 243.892 243.218 242.056 244.186C242.681 245.608 243.67 246.75 244.878 247.399L244.879 247.4C246.38 248.213 248.31 248.351 250.177 247.759C251.617 247.294 252.827 246.432 253.652 245.345C253.613 245.308 253.574 245.27 253.537 245.233Z" stroke="#FFDC73" stroke-opacity="0.1"/>
<path d="M258.297 303.257L258.297 303.257C262.617 305.047 267.955 303.845 271.2 300.489C267.847 298.37 265.335 294.98 264.312 291.148C260.475 293.666 255.496 294.349 251.127 292.894C251.339 297.305 254.196 301.559 258.297 303.257Z" stroke="#FFDC73" stroke-opacity="0.1"/>
<path d="M234.63 282.132L234.629 282.132C232.972 282.092 231.346 281.707 229.836 281.067C229.578 281.498 229.316 281.929 229.035 282.355C229.516 285.961 231.652 289.329 234.841 291.084L234.842 291.085C238.518 293.115 243.273 292.809 246.768 290.51C243.733 288.085 241.647 284.48 241.105 280.629C239.123 281.651 236.883 282.183 234.63 282.132Z" stroke="#FFDC73" stroke-opacity="0.1"/>
<path d="M281.254 286.243C277.422 289.184 272.188 290.283 267.499 288.888C268.104 293.18 271.15 297.049 275.234 298.542C278.13 299.593 281.394 299.375 284.186 298.147C284.946 296.742 285.673 295.327 286.357 293.893C283.856 292.017 282.012 289.284 281.254 286.243Z" stroke="#FFDC73" stroke-opacity="0.1"/>
<path d="M294.291 268.779C294.755 265.969 295.088 263.141 295.283 260.295C294.959 260.542 294.626 260.773 294.286 260.99C293.404 262.994 292.394 264.937 291.279 266.821C292.176 267.63 293.195 268.297 294.291 268.779Z" stroke="#FFDC73" stroke-opacity="0.1"/>
<path d="M260.745 322.848C257.047 325.85 251.895 327.061 247.268 325.783C247.459 328 248.273 330.15 249.621 331.912C250.23 332.696 250.933 333.397 251.71 333.994C255.151 331.703 258.432 329.194 261.543 326.488C261.186 325.303 260.914 324.086 260.745 322.848Z" stroke="#FFDC73" stroke-opacity="0.1"/>
<path d="M265.203 317.04L265.203 317.04C266.977 317.669 268.909 317.739 270.776 317.368C272.284 315.679 273.732 313.944 275.111 312.163C273.545 309.894 272.44 307.302 271.935 304.59C268.02 307.462 262.72 308.417 258.07 306.95C258.11 311.319 261.067 315.579 265.203 317.04Z" stroke="#FFDC73" stroke-opacity="0.1"/>
<path d="M264.549 323.774C265.471 322.907 266.376 322.022 267.264 321.12C266.206 321.024 265.165 320.805 264.153 320.465C264.188 321.577 264.32 322.686 264.549 323.774Z" stroke="#FFDC73" stroke-opacity="0.1"/>
<path d="M285.305 275.22L285.304 275.22L282.147 278.849C284.032 279.837 286.136 280.226 288.047 279.897C289.767 279.598 291.34 278.649 292.454 277.381C292.893 275.725 293.288 274.046 293.639 272.366C292.096 271.788 290.649 270.935 289.379 269.872C288.132 271.725 286.777 273.518 285.305 275.22Z" stroke="#FFDC73" stroke-opacity="0.1"/>
<path d="M233.299 326.855L233.297 326.854C231.619 326.502 230.02 325.896 228.549 325.084C229.123 329.455 231.65 333.602 235.349 335.999C238.122 337.783 241.538 338.529 244.855 338.224C245.967 337.587 247.064 336.952 248.134 336.305L248.134 336.305L248.143 336.3C248.289 336.215 248.432 336.125 248.58 336.03C247.936 335.448 247.336 334.816 246.797 334.12L246.796 334.118C245.016 331.802 243.928 328.989 243.679 326.093C240.263 327.269 236.655 327.542 233.299 326.855Z" stroke="#FFDC73" stroke-opacity="0.1"/>
<path d="M287.728 283.548L287.728 283.549L287.721 283.549C286.64 283.633 285.553 283.565 284.478 283.373C284.541 286.047 285.86 288.695 287.899 290.518C288.984 287.984 289.968 285.406 290.835 282.8C290.144 283.078 289.42 283.289 288.671 283.42C288.356 283.477 288.042 283.52 287.728 283.548Z" stroke="#FFDC73" stroke-opacity="0.1"/>
</svg>
