<svg width="14" height="14" viewBox="0 0 14 14" fill="none" xmlns="http://www.w3.org/2000/svg">
<path d="M6.99982 0C3.13986 0 -0.000183105 3.14005 -0.000183105 7C-0.000183105 10.86 3.13986 14 6.99982 14C10.8598 14 13.9998 10.86 13.9998 7C13.9998 3.14005 10.8598 0 6.99982 0ZM10.3289 10.6207C10.2152 10.7345 10.0658 10.7917 9.91652 10.7917C9.7672 10.7917 9.61777 10.7345 9.50412 10.6207L6.58742 7.7041C6.47772 7.59505 6.41652 7.44679 6.41652 7.2917V3.5C6.41652 3.17743 6.67778 2.9167 6.99982 2.9167C7.32185 2.9167 7.58311 3.17743 7.58311 3.5V7.0502L10.3289 9.7959C10.557 10.024 10.557 10.3927 10.3289 10.6207Z" fill="white"/>
</svg>
