<svg width="78" height="27" viewBox="0 0 78 27" fill="none" xmlns="http://www.w3.org/2000/svg">
<path d="M42.1339 24.7776C42.1339 24.7776 45.7456 24.9231 48.4021 23.298C48.4021 23.298 50.2825 22.2792 51.1183 19.3684C51.1183 19.3684 51.954 13.9836 54.521 13.7167C54.521 13.7167 56.1925 13.3286 57.0282 14.8325C57.0282 14.8325 59.237 12.9648 57.864 10.6604C57.864 10.6604 56.5805 9.01102 53.8942 9.15655C53.8942 9.15655 51.6555 9.15655 51.1183 10.6604C51.1183 10.6604 50.0437 8.67143 47.2977 9.15655C47.2977 9.15655 44.7904 9.54465 44.671 12.0916C44.671 12.0916 42.5518 11.3881 41.8354 13.7167C41.8354 13.7167 41.3579 15.3177 43.7457 16.9671C43.7457 16.9671 45.5366 18.1799 45.0292 20.9936C44.9994 21.0179 44.5815 23.3707 42.1339 24.7776Z" stroke="url(#paint0_linear)" stroke-width="1.3" stroke-miterlimit="10"/>
<path d="M74.5195 19.7808C76.4596 19.0046 76.3701 17.6462 76.3701 17.6462C76.1611 15.4632 74.4299 15.0508 74.4299 15.0508C75.0269 12.1401 72.8778 11.2183 72.8778 11.2183C68.6692 9.30207 65.0874 11.4609 65.0874 11.4609C58.879 14.9053 56.1628 22.2064 56.1628 22.2064C56.1628 22.2064 56.7299 22.1094 57.1478 21.4545C57.1478 21.4545 61.4161 15.3904 64.8188 17.816C64.8188 17.816 67.8633 20.1689 65.9829 23.5648C65.9829 23.5648 69.7736 25.6751 73.4748 24.0499C73.4449 24.0256 76.3701 22.6673 74.5195 19.7808Z" stroke="url(#paint1_linear)" stroke-width="1.3" stroke-miterlimit="10"/>
<path d="M54.9692 25.3599C56.5213 25.2386 59.6255 24.4624 62.1029 22.716C62.1029 22.716 64.1326 21.3576 62.6999 20.1448C62.6999 20.1448 60.9986 19.4171 58.7002 22.4734C58.7002 22.4734 57.3869 24.3654 54.9692 25.3599Z" stroke="url(#paint2_linear)" stroke-width="1.3" stroke-miterlimit="10"/>
<path d="M39.0001 9.76278C39.0001 9.76278 39.7165 9.66576 40.5523 10.2722C40.5523 10.2722 38.4629 13.2799 39.8657 16.7486C39.8657 16.7486 41.7163 18.8104 41.8059 20.7509C41.8059 20.7509 42.2536 24.0012 39.0001 24.6319" stroke="url(#paint3_linear)" stroke-width="1.3" stroke-miterlimit="10"/>
<path d="M39.0001 7.45859C39.0001 7.45859 40.403 7.2888 41.776 8.71992C41.776 8.71992 45.8354 4.35379 51.6558 7.26454C51.6558 7.26454 52.0439 4.03846 48.4322 3.18949C48.4322 3.18949 46.6413 2.8499 45.2086 3.238C45.2086 3.238 43.6565 0.860882 39.0001 1.00642" stroke="url(#paint4_linear)" stroke-width="1.3" stroke-miterlimit="10"/>
<path d="M51.0887 24.0014C54.9689 22.4733 56.1032 17.5493 56.1032 17.5493C54.6705 15.8028 53.6258 17.2097 53.6258 17.2097C53.6258 17.2097 53.4467 17.5735 53.6258 18.1799C53.6258 18.1799 53.4168 22.449 51.0887 24.0014Z" stroke="url(#paint5_linear)" stroke-width="1.3" stroke-miterlimit="10"/>
<path d="M35.866 24.7776C35.866 24.7776 32.2544 24.9231 29.5979 23.298C29.5979 23.298 27.7175 22.2792 26.8817 19.3684C26.8817 19.3684 26.0459 13.9836 23.479 13.7167C23.479 13.7167 21.8075 13.3286 20.9717 14.8325C20.9717 14.8325 18.763 12.9648 20.136 10.6604C20.136 10.6604 21.4195 9.01102 24.1058 9.15655C24.1058 9.15655 26.3444 9.15655 26.8817 10.6604C26.8817 10.6604 27.9562 8.67143 30.7023 9.15655C30.7023 9.15655 33.2095 9.54465 33.3289 12.0916C33.3289 12.0916 35.4482 11.3881 36.1645 13.7167C36.1645 13.7167 36.6421 15.3177 34.2542 16.9671C34.2542 16.9671 32.4633 18.1799 32.9708 20.9936C33.0006 21.0179 33.4185 23.3707 35.866 24.7776Z" stroke="url(#paint6_linear)" stroke-width="1.3" stroke-miterlimit="10"/>
<path d="M3.48063 19.7808C1.54049 19.0288 1.63003 17.6462 1.63003 17.6462C1.83897 15.4632 3.57017 15.0508 3.57017 15.0508C2.97321 12.1401 5.12229 11.2183 5.12229 11.2183C9.3309 9.30207 12.9127 11.4609 12.9127 11.4609C19.1211 14.9053 21.8373 22.2064 21.8373 22.2064C21.8373 22.2064 21.3299 22.1094 20.8822 21.4545C20.8822 21.4545 16.6139 15.3904 13.2112 17.816C13.2112 17.816 10.1667 20.1689 12.0471 23.5648C12.0471 23.5648 8.25636 25.6751 4.55517 24.0499C4.55517 24.0256 1.63003 22.6673 3.48063 19.7808Z" stroke="url(#paint7_linear)" stroke-width="1.3" stroke-miterlimit="10"/>
<path d="M39.0002 9.76278C39.0002 9.76278 38.2838 9.66576 37.4481 10.2722C37.4481 10.2722 39.5375 13.2799 38.1346 16.7486C38.1346 16.7486 36.284 18.8104 36.1944 20.7509C36.1944 20.7509 35.7467 24.0012 39.0002 24.6319" stroke="url(#paint8_linear)" stroke-width="1.3" stroke-miterlimit="10"/>
<path d="M39.0003 7.45859C39.0003 7.45859 37.5974 7.2888 36.2244 8.71992C36.2244 8.71992 32.165 4.35379 26.3446 7.26454C26.3446 7.26454 25.9565 4.03846 29.5682 3.18949C29.5682 3.18949 31.3591 2.8499 32.7918 3.238C32.7918 3.238 34.3439 0.860882 39.0003 1.00642" stroke="url(#paint9_linear)" stroke-width="1.3" stroke-miterlimit="10"/>
<path d="M26.9117 24.0014C23.0314 22.4733 21.8971 17.5493 21.8971 17.5493C23.3299 15.8028 24.3745 17.2097 24.3745 17.2097C24.3745 17.2097 24.5536 17.5735 24.3745 18.1799C24.3745 18.1799 24.5835 22.449 26.9117 24.0014Z" stroke="url(#paint10_linear)" stroke-width="1.3" stroke-miterlimit="10"/>
<defs>
<linearGradient id="paint0_linear" x1="41.7965" y1="16.9306" x2="58.3137" y2="16.9306" gradientUnits="userSpaceOnUse">
<stop stop-color="#C99A4B"/>
<stop offset="0.26605" stop-color="#F0D563"/>
<stop offset="0.526042" stop-color="#FEF39A"/>
<stop offset="0.783242" stop-color="#F0D563"/>
<stop offset="1" stop-color="#C99A4B"/>
</linearGradient>
<linearGradient id="paint1_linear" x1="56.1628" y1="17.5451" x2="76.3707" y2="17.5451" gradientUnits="userSpaceOnUse">
<stop stop-color="#C99A4B"/>
<stop offset="0.26605" stop-color="#F0D563"/>
<stop offset="0.526042" stop-color="#FEF39A"/>
<stop offset="0.783242" stop-color="#F0D563"/>
<stop offset="1" stop-color="#C99A4B"/>
</linearGradient>
<linearGradient id="paint2_linear" x1="54.9692" y1="22.7145" x2="63.2118" y2="22.7145" gradientUnits="userSpaceOnUse">
<stop stop-color="#C99A4B"/>
<stop offset="0.26605" stop-color="#F0D563"/>
<stop offset="0.526042" stop-color="#FEF39A"/>
<stop offset="0.783242" stop-color="#F0D563"/>
<stop offset="1" stop-color="#C99A4B"/>
</linearGradient>
<linearGradient id="paint3_linear" x1="39.0001" y1="17.1945" x2="41.8267" y2="17.1945" gradientUnits="userSpaceOnUse">
<stop stop-color="#C99A4B"/>
<stop offset="0.26605" stop-color="#F0D563"/>
<stop offset="0.526042" stop-color="#FEF39A"/>
<stop offset="0.783242" stop-color="#F0D563"/>
<stop offset="1" stop-color="#C99A4B"/>
</linearGradient>
<linearGradient id="paint4_linear" x1="39.0001" y1="4.85996" x2="51.668" y2="4.85996" gradientUnits="userSpaceOnUse">
<stop stop-color="#C99A4B"/>
<stop offset="0.26605" stop-color="#F0D563"/>
<stop offset="0.526042" stop-color="#FEF39A"/>
<stop offset="0.783242" stop-color="#F0D563"/>
<stop offset="1" stop-color="#C99A4B"/>
</linearGradient>
<linearGradient id="paint5_linear" x1="51.0887" y1="20.3378" x2="56.1032" y2="20.3378" gradientUnits="userSpaceOnUse">
<stop stop-color="#C99A4B"/>
<stop offset="0.26605" stop-color="#F0D563"/>
<stop offset="0.526042" stop-color="#FEF39A"/>
<stop offset="0.783242" stop-color="#F0D563"/>
<stop offset="1" stop-color="#C99A4B"/>
</linearGradient>
<linearGradient id="paint6_linear" x1="19.6862" y1="16.9306" x2="36.2035" y2="16.9306" gradientUnits="userSpaceOnUse">
<stop stop-color="#C99A4B"/>
<stop offset="0.26605" stop-color="#F0D563"/>
<stop offset="0.526042" stop-color="#FEF39A"/>
<stop offset="0.783242" stop-color="#F0D563"/>
<stop offset="1" stop-color="#C99A4B"/>
</linearGradient>
<linearGradient id="paint7_linear" x1="1.62939" y1="17.5451" x2="21.8373" y2="17.5451" gradientUnits="userSpaceOnUse">
<stop stop-color="#C99A4B"/>
<stop offset="0.26605" stop-color="#F0D563"/>
<stop offset="0.526042" stop-color="#FEF39A"/>
<stop offset="0.783242" stop-color="#F0D563"/>
<stop offset="1" stop-color="#C99A4B"/>
</linearGradient>
<linearGradient id="paint8_linear" x1="36.1736" y1="17.1945" x2="39.0002" y2="17.1945" gradientUnits="userSpaceOnUse">
<stop stop-color="#C99A4B"/>
<stop offset="0.26605" stop-color="#F0D563"/>
<stop offset="0.526042" stop-color="#FEF39A"/>
<stop offset="0.783242" stop-color="#F0D563"/>
<stop offset="1" stop-color="#C99A4B"/>
</linearGradient>
<linearGradient id="paint9_linear" x1="26.3324" y1="4.85996" x2="39.0003" y2="4.85996" gradientUnits="userSpaceOnUse">
<stop stop-color="#C99A4B"/>
<stop offset="0.26605" stop-color="#F0D563"/>
<stop offset="0.526042" stop-color="#FEF39A"/>
<stop offset="0.783242" stop-color="#F0D563"/>
<stop offset="1" stop-color="#C99A4B"/>
</linearGradient>
<linearGradient id="paint10_linear" x1="21.8971" y1="20.3378" x2="26.9117" y2="20.3378" gradientUnits="userSpaceOnUse">
<stop stop-color="#C99A4B"/>
<stop offset="0.26605" stop-color="#F0D563"/>
<stop offset="0.526042" stop-color="#FEF39A"/>
<stop offset="0.783242" stop-color="#F0D563"/>
<stop offset="1" stop-color="#C99A4B"/>
</linearGradient>
</defs>
</svg>
