<svg width="1920" height="764" viewBox="0 0 1920 764" fill="none" xmlns="http://www.w3.org/2000/svg">
<circle cx="511.5" cy="149.726" r="92.5" fill="url(#paint0_linear_529:12259)" fill-opacity="0.03"/>
<path d="M1921 694.239C1896.62 685.552 1855.17 666.663 1839.42 675.258C1819.27 686.267 1789.95 620.117 1744.15 675.258C1698.34 730.398 1683.68 694.29 1663.53 706.324C1643.37 718.359 1634.21 604.444 1603.06 613.258C1603.06 613.258 1568.25 501.726 1531.6 561.899C1494.96 622.077 1427.16 569.922 1405.17 585.968C1383.18 602.014 1341.04 453.583 1308.06 429.509C1275.08 405.439 1243.93 357.296 1216.44 373.342C1188.96 389.388 1176.13 365.319 1170.64 329.215C1165.14 293.112 1097.35 220.899 1062.53 261.014C1027.72 301.13 1022.22 261.014 998.402 333.227C974.58 405.439 943.432 437.532 923.276 429.509C903.12 421.486 886.629 456.671 871.971 493.234C857.314 529.802 773.028 666.199 732.716 650.153C692.403 634.107 602.624 529.802 569.643 537.825C536.662 545.848 523.838 500.797 507.347 493.234C490.857 485.67 454.21 409.446 412.984 449.566C371.757 489.681 336.943 485.67 294.798 529.802C252.658 573.939 208.68 698.301 164.707 690.278C120.734 682.255 78.5884 650.163 78.5884 650.163C78.5884 650.163 24.5373 657.829 2.54819 706.727C1.39396 709.295 0.207666 711.76 -1 714.143V763.226H1921V694.239Z" fill="url(#paint1_linear_529:12259)" fill-opacity="0.03"/>
<path d="M2435 568.239C2410.62 559.552 2369.17 540.663 2353.42 549.258C2333.27 560.267 2303.95 494.117 2258.15 549.258C2212.34 604.398 2197.68 568.29 2177.53 580.324C2157.37 592.359 2148.21 478.444 2117.06 487.258C2117.06 487.258 2082.25 375.726 2045.6 435.899C2008.96 496.077 1941.16 443.922 1919.17 459.968C1897.18 476.014 1855.04 327.583 1822.06 303.509C1789.08 279.439 1757.93 231.296 1730.44 247.342C1702.96 263.388 1690.13 239.319 1684.64 203.215C1679.14 167.112 1611.35 94.8991 1576.53 135.014C1541.72 175.13 1536.22 135.014 1512.4 207.227C1488.58 279.439 1457.43 311.532 1437.28 303.509C1417.12 295.486 1400.63 330.671 1385.97 367.234C1371.31 403.802 1287.03 540.199 1246.72 524.153C1206.4 508.107 1116.62 403.802 1083.64 411.825C1050.66 419.848 1037.84 374.797 1021.35 367.234C1004.86 359.67 968.21 283.446 926.984 323.566C885.757 363.681 850.943 359.67 808.798 403.802C766.658 447.939 722.68 572.301 678.707 564.278C634.734 556.255 592.588 524.163 592.588 524.163C592.588 524.163 538.537 531.829 516.548 580.727C515.394 583.295 514.208 585.76 513 588.143V637.226H2435V568.239Z" fill="url(#paint2_linear_529:12259)" fill-opacity="0.03"/>
<path d="M983 635.239C958.617 626.552 917.166 607.663 901.424 616.258C881.267 627.267 851.952 561.117 806.146 616.258C760.341 671.398 745.683 635.29 725.527 647.324C705.37 659.359 696.211 545.444 665.063 554.258C665.063 554.258 630.249 442.726 593.603 502.899C556.956 563.077 489.161 510.922 467.172 526.968C445.183 543.014 403.043 394.583 370.062 370.509C337.08 346.439 305.932 298.296 278.445 314.342C250.962 330.388 238.132 306.319 232.639 270.215C227.14 234.112 159.345 161.899 124.531 202.014C89.7174 242.13 84.2188 202.014 60.4022 274.227C36.5801 346.439 5.43201 378.532 -14.7242 370.509C-34.8805 362.486 -51.371 397.671 -66.0287 434.234C-80.6863 470.802 -164.972 607.199 -205.284 591.153C-245.597 575.107 -335.376 470.802 -368.357 478.825C-401.338 486.848 -414.162 441.797 -430.653 434.234C-447.143 426.67 -483.79 350.446 -525.016 390.566C-566.243 430.681 -601.057 426.67 -643.202 470.802C-685.342 514.939 -729.32 639.301 -773.293 631.278C-817.266 623.255 -859.412 591.163 -859.412 591.163C-859.412 591.163 -913.463 598.829 -935.452 647.727C-936.606 650.295 -937.792 652.76 -939 655.143V704.226H983V635.239Z" fill="url(#paint3_linear_529:12259)" fill-opacity="0.03"/>
<path d="M875.721 151.226C874.269 151.413 872.87 151.834 871.504 152.372C870.145 152.925 868.826 153.619 867.585 154.565C866.968 155.046 866.37 155.587 865.832 156.256C865.293 156.916 864.811 157.719 864.533 158.71C864.397 159.203 864.335 159.738 864.358 160.281C864.369 160.553 864.402 160.822 864.449 161.089L864.495 161.341L864.52 161.521C864.608 162.04 864.55 162.527 864.518 162.521C864.507 162.523 864.589 162.432 864.601 162.441C864.607 162.446 864.504 162.497 864.314 162.534C863.927 162.625 863.307 162.627 862.662 162.607C862.003 162.598 861.291 162.545 860.52 162.563C859.71 162.566 858.924 162.66 858.161 162.813C856.648 163.13 855.227 163.654 853.91 164.395C853.257 164.77 852.623 165.201 852.063 165.715C851.509 166.229 850.994 166.833 850.755 167.534C851.931 166.686 853.261 166.417 854.572 166.165C855.887 165.934 857.217 165.812 858.491 165.819C859.127 165.819 859.744 165.865 860.334 165.946L862.385 166.244C863.134 166.329 863.923 166.403 864.931 166.278C865.431 166.203 866.01 166.054 866.616 165.685C867.224 165.332 867.786 164.68 868.049 164.038C868.321 163.39 868.382 162.803 868.389 162.292C868.396 161.775 868.343 161.32 868.263 160.894L868.189 160.557L868.126 160.293C868.105 160.217 868.083 160.135 868.078 160.057C868.055 159.897 868.063 159.728 868.084 159.541C868.182 158.77 868.825 157.722 869.641 156.783C871.312 154.845 873.514 153.097 875.721 151.226Z" fill="#FFDC73" fill-opacity="0.3"/>
<path d="M886.105 75.7355C888.926 76.0102 891.574 76.4353 893.986 77.2089C896.398 77.9826 898.493 79.1582 900.092 80.8186L900.85 81.5756C901.117 81.833 901.39 82.0896 901.694 82.347C902.003 82.5986 902.334 82.8576 902.753 83.1147C903.176 83.3504 903.707 83.6919 904.644 83.7296C905.103 83.7444 905.632 83.6128 906.012 83.3967C906.399 83.1902 906.659 82.9435 906.862 82.7363C907.26 82.3073 907.457 81.9484 907.653 81.616C908.029 80.9533 908.305 80.3677 908.613 79.7881C909.776 77.4899 911.327 75.4113 913.227 73.263C910.482 74.0298 907.958 75.8075 906.105 78.1019C905.641 78.6611 905.213 79.2521 904.834 79.7364C904.65 79.9672 904.454 80.1787 904.367 80.2381C904.324 80.2704 904.316 80.2505 904.398 80.197C904.475 80.1442 904.657 80.0873 904.777 80.0862C905.025 80.0885 904.917 80.1088 904.767 79.9772C904.609 79.8624 904.407 79.6908 904.2 79.4934C903.989 79.3018 903.765 79.0859 903.544 78.8589L902.861 78.1493C900.643 75.8281 897.55 74.5497 894.596 74.262C891.614 73.9728 888.665 74.442 886.105 75.7355Z" fill="#FFDC73" fill-opacity="0.3"/>
<path d="M995.603 152.533C998.392 153.743 1000.38 155.44 1001.89 157.359C1002.27 157.838 1002.62 158.342 1002.95 158.853L1003.18 159.241C1003.23 159.318 1003.24 159.344 1003.32 159.464L1003.47 159.685C1003.72 160.065 1003.97 160.399 1004.26 160.748C1004.82 161.433 1005.52 162.088 1006.4 162.664C1007.28 163.22 1008.42 163.64 1009.61 163.721C1010.8 163.792 1011.93 163.518 1012.86 163.126C1013.78 162.714 1014.55 162.212 1015.21 161.673C1015.86 161.129 1016.44 160.58 1016.95 160.009C1017.47 159.452 1017.95 158.855 1018.35 158.351C1019.2 157.318 1019.96 156.376 1020.79 155.881C1021.21 155.617 1021.78 155.464 1022.46 155.416C1023.13 155.37 1023.88 155.402 1024.65 155.426C1024.12 154.87 1023.54 154.361 1022.83 153.96C1022.13 153.552 1021.25 153.265 1020.28 153.285C1019.31 153.305 1018.38 153.613 1017.61 153.978C1016.83 154.35 1016.14 154.777 1015.5 155.224L1013.78 156.485C1013.23 156.866 1012.73 157.242 1012.23 157.533C1011.73 157.828 1011.27 158.076 1010.87 158.195C1010.48 158.34 1010.18 158.37 1009.95 158.35C1009.71 158.347 1009.46 158.281 1009.12 158.108C1008.78 157.95 1008.4 157.645 1008 157.291C1007.8 157.114 1007.59 156.901 1007.41 156.716L1007.05 156.314L1006.62 155.863C1006.05 155.263 1005.42 154.726 1004.74 154.246C1002.06 152.328 998.54 151.45 995.603 152.533Z" fill="#FFDC73" fill-opacity="0.3"/>
<path d="M876.009 118.931C877.454 119.487 878.75 120.137 879.823 120.929C880.896 121.721 881.679 122.659 882.141 123.71C882.237 123.944 882.438 124.405 882.643 124.781C882.856 125.178 883.117 125.573 883.512 125.991C883.889 126.396 884.549 126.862 885.351 126.955C886.137 127.051 886.756 126.849 887.198 126.656C888.085 126.264 888.642 125.849 889.237 125.514C889.815 125.165 890.374 124.876 890.968 124.646L891.408 124.48L891.447 124.422C891.495 124.347 891.673 124.195 891.806 124.093C891.954 123.983 892.106 123.867 892.271 123.765C892.596 123.567 892.946 123.397 893.323 123.271C893.699 123.14 894.102 123.089 894.541 123.064C894.971 123.057 895.431 123.108 895.908 123.21C895.597 122.833 895.201 122.52 894.741 122.279C894.281 122.032 893.758 121.9 893.222 121.833C892.683 121.777 892.126 121.818 891.59 121.94C891.32 122.003 891.057 122.077 890.798 122.182C890.524 122.293 890.31 122.381 889.986 122.584L890.459 122.355C889.61 122.452 888.777 122.7 888.024 123C887.282 123.298 886.577 123.675 886.09 123.843C885.849 123.924 885.723 123.926 885.773 123.913C885.831 123.911 885.832 123.953 885.699 123.829C885.578 123.72 885.421 123.5 885.261 123.254C885.088 122.994 884.984 122.777 884.746 122.352C883.845 120.763 882.318 119.618 880.747 119.106C879.957 118.838 879.154 118.697 878.356 118.672C877.557 118.636 876.763 118.715 876.009 118.931Z" fill="#FFDC73" fill-opacity="0.3"/>
<path d="M955.295 132.43C953.385 132.276 951.461 132.775 949.731 133.764C948.012 134.751 946.482 136.416 945.795 138.474C945.652 138.915 945.533 139.273 945.393 139.624C945.332 139.791 945.264 139.942 945.214 140.039C945.176 140.144 945.126 140.124 945.347 140.015C945.456 139.963 945.631 139.938 945.733 139.95C945.835 139.963 945.859 139.985 945.843 139.988C945.807 139.993 945.636 139.932 945.467 139.851C945.111 139.679 944.68 139.455 944.238 139.265C942.452 138.451 940.406 138.158 938.552 138.59C940.27 139.444 941.714 140.29 943.003 141.347C943.339 141.61 943.656 141.881 944.071 142.181C944.287 142.33 944.51 142.494 944.895 142.656C945.09 142.734 945.337 142.81 945.661 142.828C945.985 142.851 946.389 142.768 946.694 142.615C947.317 142.292 947.553 141.906 947.751 141.631C947.942 141.342 948.07 141.087 948.188 140.844C948.401 140.367 948.574 139.875 948.717 139.466C949.173 138.098 950.025 136.848 951.185 135.702C952.333 134.537 953.734 133.495 955.295 132.43Z" fill="#FFDC73" fill-opacity="0.3"/>
<path d="M1088.48 164.226C1087.04 164.412 1085.65 164.826 1084.3 165.352C1082.95 165.898 1081.64 166.585 1080.41 167.52C1079.8 167.994 1079.2 168.53 1078.67 169.193C1078.14 169.847 1077.65 170.65 1077.38 171.63C1077.25 172.117 1077.19 172.652 1077.21 173.19C1077.22 173.457 1077.25 173.726 1077.3 173.993L1077.34 174.239L1077.37 174.415C1077.46 174.929 1077.4 175.405 1077.36 175.394C1077.36 175.39 1077.44 175.304 1077.45 175.308C1077.46 175.312 1077.36 175.363 1077.17 175.4C1076.79 175.489 1076.18 175.491 1075.53 175.476C1074.88 175.467 1074.17 175.418 1073.41 175.435C1072.61 175.437 1071.83 175.53 1071.07 175.687C1069.58 176.001 1068.17 176.519 1066.86 177.259C1066.21 177.633 1065.59 178.057 1065.03 178.571C1064.48 179.079 1063.97 179.682 1063.74 180.382C1064.91 179.546 1066.23 179.283 1067.52 179.034C1068.82 178.811 1070.14 178.69 1071.4 178.698C1072.04 178.699 1072.64 178.741 1073.23 178.827L1075.27 179.122C1076.01 179.207 1076.79 179.282 1077.79 179.159C1078.29 179.084 1078.87 178.935 1079.47 178.572C1080.08 178.219 1080.64 177.573 1080.9 176.931C1081.17 176.283 1081.24 175.701 1081.24 175.19C1081.25 174.679 1081.2 174.223 1081.12 173.797L1081.05 173.46L1080.99 173.2C1080.97 173.124 1080.95 173.047 1080.94 172.97C1080.92 172.815 1080.92 172.652 1080.94 172.459C1081.03 171.699 1081.67 170.664 1082.48 169.731C1084.12 167.823 1086.3 166.083 1088.48 164.226Z" fill="#FFDC73" fill-opacity="0.3"/>
<path d="M1042.33 56.5062C1040.79 56.1253 1039.04 56.748 1037.78 57.8447C1036.5 58.9553 1035.66 60.4763 1035.18 62.0067L1034.86 62.9716C1034.76 63.2697 1034.63 63.5501 1034.54 63.7583C1034.46 63.9747 1034.28 64.0566 1034.55 63.9035C1034.69 63.8362 1034.9 63.8442 1034.93 63.8657C1034.97 63.8813 1034.9 63.87 1034.8 63.8321C1034.34 63.6545 1033.55 63.1699 1032.66 62.9415C1031.76 62.688 1030.7 62.7146 1029.87 63.0626L1030.3 63.0648C1029.85 63.0176 1029.53 63.0733 1029.15 63.1368C1028.78 63.2189 1028.43 63.3526 1028.1 63.5401C1027.77 63.7174 1027.5 63.9876 1027.29 64.2794C1027.08 64.5669 1026.97 64.9077 1026.94 65.2281C1027.42 64.7817 1027.96 64.6066 1028.46 64.6002C1028.71 64.5915 1028.96 64.6306 1029.2 64.6911C1029.43 64.7383 1029.71 64.8357 1029.85 64.9217L1029.84 64.918L1030.29 64.929C1030.87 64.9428 1031.33 65.0843 1031.78 65.3467C1032.27 65.6047 1032.68 65.9848 1033.51 66.4687C1033.73 66.5903 1034 66.7158 1034.4 66.8026C1034.79 66.8901 1035.37 66.8714 1035.84 66.6431C1036.31 66.4302 1036.6 66.1217 1036.8 65.8725C1037.01 65.6175 1037.15 65.3829 1037.26 65.1615C1037.5 64.7239 1037.63 64.3212 1037.76 63.9296C1037.88 63.5491 1037.98 63.1302 1038.06 62.804C1038.35 61.5427 1038.74 60.3466 1039.39 59.267C1040.04 58.1978 1040.95 57.1876 1042.33 56.5062Z" fill="#FFDC73" fill-opacity="0.3"/>
<path d="M983.185 41.683C985.235 42.1231 987.263 42.524 989.027 43.2513C989.887 43.6101 990.685 44.088 991.056 44.6309C991.143 44.766 991.214 44.8981 991.264 45.0331C991.289 45.0981 991.304 45.1696 991.32 45.2411L991.362 45.4351L991.421 45.6688C991.598 46.2545 991.796 46.9213 992.481 47.5676C992.829 47.8768 993.339 48.1054 993.808 48.1453C994.277 48.1903 994.677 48.1136 995.015 48.0137C995.685 47.7993 996.175 47.5047 996.641 47.2241L997.92 46.3935C998.301 46.1508 998.713 45.9304 999.144 45.7388C1000.01 45.3548 1000.95 45.0138 1001.91 44.8011C1002.87 44.5773 1003.85 44.3979 1004.88 44.6334C1004.49 44.2674 1003.96 44.0571 1003.43 43.9094C1002.9 43.7676 1002.36 43.7069 1001.81 43.6726C1000.72 43.6403 999.628 43.7405 998.552 44.0273C998.015 44.1706 997.473 44.3567 996.95 44.6085C996.446 44.8419 995.993 45.1049 995.556 45.3238C995.129 45.5463 994.705 45.7527 994.384 45.8239C994.227 45.8668 994.107 45.8731 994.063 45.8633C994.02 45.8536 994.041 45.8559 994.001 45.83C993.915 45.7788 993.72 45.4378 993.607 45.0431L993.562 44.9074L993.515 44.7245C993.469 44.5468 993.412 44.3653 993.336 44.1971C993.189 43.8547 992.997 43.5394 992.765 43.2719C991.821 42.1988 990.644 41.7948 989.57 41.5237C987.38 41.061 985.244 41.1696 983.185 41.683Z" fill="#FFDC73" fill-opacity="0.3"/>
<path d="M1101.72 234.226C1100.27 234.413 1098.87 234.834 1097.5 235.372C1096.14 235.924 1094.83 236.618 1093.59 237.565C1092.97 238.046 1092.37 238.587 1091.83 239.256C1091.29 239.915 1090.81 240.719 1090.53 241.71C1090.4 242.202 1090.33 242.737 1090.36 243.281C1090.37 243.553 1090.4 243.822 1090.45 244.089L1090.49 244.34L1090.52 244.521C1090.61 245.04 1090.55 245.522 1090.52 245.521C1090.51 245.522 1090.59 245.432 1090.6 245.441C1090.61 245.445 1090.5 245.497 1090.31 245.534C1089.93 245.624 1089.31 245.627 1088.66 245.606C1088 245.598 1087.29 245.545 1086.52 245.563C1085.71 245.565 1084.92 245.659 1084.16 245.813C1082.65 246.129 1081.23 246.654 1079.91 247.395C1079.26 247.77 1078.62 248.2 1078.06 248.715C1077.51 249.229 1076.99 249.832 1076.75 250.534C1077.93 249.686 1079.26 249.416 1080.57 249.165C1081.89 248.934 1083.22 248.812 1084.49 248.818C1085.13 248.819 1085.74 248.864 1086.33 248.945L1088.39 249.243C1089.13 249.328 1089.93 249.402 1090.93 249.277C1091.43 249.202 1092.01 249.053 1092.62 248.685C1093.22 248.332 1093.79 247.68 1094.05 247.038C1094.32 246.39 1094.38 245.803 1094.39 245.291C1094.4 244.775 1094.34 244.319 1094.26 243.894L1094.19 243.556L1094.13 243.291C1094.11 243.215 1094.09 243.134 1094.08 243.056C1094.06 242.896 1094.07 242.727 1094.09 242.54C1094.19 241.769 1094.83 240.721 1095.65 239.782C1097.31 237.845 1099.51 236.096 1101.72 234.226Z" fill="#FFDC73" fill-opacity="0.3"/>
<path d="M947.023 200.313C949.812 201.523 951.795 203.22 953.31 205.139C953.687 205.618 954.036 206.121 954.365 206.633L954.603 207.021C954.651 207.098 954.66 207.123 954.74 207.244L954.886 207.465C955.144 207.845 955.391 208.179 955.676 208.528C956.24 209.213 956.936 209.868 957.822 210.444C958.704 211 959.841 211.42 961.031 211.501C962.219 211.572 963.354 211.298 964.278 210.906C965.199 210.494 965.966 209.992 966.627 209.453C967.282 208.909 967.863 208.36 968.373 207.789C968.895 207.232 969.369 206.634 969.773 206.131C970.617 205.098 971.375 204.156 972.206 203.661C972.632 203.397 973.2 203.244 973.882 203.196C974.554 203.149 975.301 203.182 976.072 203.206C975.537 202.649 974.961 202.141 974.253 201.74C973.554 201.332 972.672 201.045 971.696 201.065C970.726 201.085 969.796 201.393 969.026 201.758C968.247 202.13 967.564 202.557 966.922 203.004L965.198 204.265C964.652 204.646 964.147 205.022 963.645 205.313C963.15 205.608 962.69 205.856 962.291 205.975C961.895 206.12 961.6 206.15 961.366 206.13C961.128 206.127 960.882 206.061 960.543 205.887C960.2 205.73 959.821 205.425 959.419 205.071C959.22 204.893 959.007 204.681 958.828 204.496L958.467 204.094L958.041 203.643C957.473 203.043 956.836 202.506 956.164 202.026C953.481 200.107 949.96 199.23 947.023 200.313Z" fill="#FFDC73" fill-opacity="0.3"/>
<path d="M789.017 134.628C790.462 135.184 791.758 135.834 792.831 136.626C793.904 137.418 794.687 138.356 795.15 139.407C795.245 139.641 795.446 140.102 795.652 140.478C795.865 140.875 796.125 141.27 796.52 141.688C796.897 142.093 797.557 142.559 798.359 142.652C799.146 142.748 799.764 142.546 800.206 142.353C801.093 141.961 801.65 141.546 802.246 141.211C802.823 140.862 803.382 140.573 803.976 140.343L804.416 140.177L804.455 140.119C804.503 140.044 804.682 139.892 804.815 139.79C804.962 139.68 805.114 139.564 805.279 139.462C805.604 139.264 805.954 139.094 806.331 138.968C806.707 138.837 807.11 138.786 807.549 138.761C807.979 138.754 808.439 138.805 808.916 138.907C808.606 138.53 808.209 138.217 807.75 137.976C807.289 137.729 806.766 137.597 806.23 137.53C805.691 137.474 805.134 137.515 804.598 137.637C804.329 137.7 804.065 137.774 803.806 137.879C803.532 137.99 803.319 138.078 802.994 138.281L803.467 138.052C802.618 138.149 801.785 138.397 801.032 138.697C800.29 138.995 799.585 139.372 799.103 139.539C798.862 139.62 798.736 139.622 798.787 139.61C798.844 139.607 798.845 139.649 798.712 139.525C798.591 139.416 798.435 139.196 798.274 138.95C798.101 138.69 797.997 138.473 797.759 138.049C796.859 136.459 795.331 135.315 793.76 134.803C792.971 134.534 792.167 134.393 791.369 134.368C790.565 134.333 789.771 134.412 789.017 134.628Z" fill="#FFDC73" fill-opacity="0.3"/>
<path d="M972.295 80.4301C970.385 80.2756 968.461 80.7754 966.731 81.7637C965.012 82.7505 963.482 84.4159 962.795 86.4739C962.652 86.9148 962.533 87.2733 962.393 87.6243C962.332 87.7906 962.264 87.9422 962.214 88.0386C962.176 88.1438 962.126 88.1245 962.347 88.0147C962.456 87.9627 962.631 87.9383 962.733 87.9504C962.835 87.9625 962.859 87.9854 962.843 87.9876C962.807 87.9926 962.636 87.9324 962.467 87.8508C962.111 87.6794 961.68 87.4554 961.238 87.2645C959.452 86.451 957.406 86.1575 955.552 86.5898C957.27 87.4444 958.714 88.29 960.003 89.3465C960.339 89.61 960.656 89.8814 961.071 90.1813C961.287 90.3301 961.51 90.4937 961.895 90.6556C962.09 90.7336 962.337 90.8096 962.661 90.8276C962.985 90.8508 963.389 90.7681 963.694 90.6152C964.317 90.2915 964.553 89.9062 964.751 89.6313C964.942 89.3416 965.07 89.0871 965.188 88.8443C965.401 88.3675 965.574 87.8751 965.717 87.4659C966.173 86.0976 967.025 84.8477 968.185 83.7021C969.334 82.5424 970.735 81.5 972.295 80.4301Z" fill="#FFDC73" fill-opacity="0.3"/>
<path d="M954.627 27.4894C953.186 27.6747 951.797 28.0894 950.444 28.6147C949.095 29.1606 947.786 29.8482 946.554 30.7828C945.941 31.2576 945.343 31.7935 944.814 32.4564C944.28 33.1148 943.797 33.9135 943.528 34.8926C943.391 35.38 943.329 35.9147 943.352 36.4534C943.362 36.7202 943.395 36.9893 943.442 37.2562L943.487 37.5025L943.512 37.6779C943.599 38.1918 943.539 38.6684 943.506 38.6572C943.495 38.6535 943.583 38.5675 943.594 38.5713C943.605 38.575 943.502 38.6262 943.313 38.6632C942.936 38.7526 942.32 38.7542 941.676 38.7388C941.023 38.73 940.316 38.6812 939.556 38.6978C938.756 38.6988 937.97 38.7928 937.218 38.9502C935.721 39.2642 934.309 39.782 933.003 40.5219C932.355 40.8962 931.73 41.3201 931.176 41.834C930.626 42.3421 930.116 42.9447 929.882 43.6454C931.049 42.8092 932.37 42.5461 933.666 42.297C934.966 42.0736 936.285 41.9527 937.549 41.9606C938.18 41.962 938.786 42.0038 939.377 42.0898L941.412 42.3847C942.155 42.4704 942.939 42.5452 943.937 42.4218C944.431 42.3476 945.01 42.1984 945.617 41.835C946.226 41.4818 946.783 40.836 947.046 40.1943C947.318 39.546 947.379 38.9641 947.387 38.4527C947.389 37.9421 947.341 37.4858 947.261 37.0604L947.193 36.7227L947.129 36.4579C947.108 36.3819 947.092 36.3053 947.082 36.2278C947.06 36.073 947.063 35.9095 947.084 35.7172C947.178 34.9571 947.812 33.9217 948.618 32.9885C950.263 31.0863 952.445 29.3457 954.627 27.4894Z" fill="#FFDC73" fill-opacity="0.3"/>
<path d="M1041.84 97.4904C1038.84 97.2881 1035.77 98.8629 1033.66 101.204C1033.12 101.794 1032.64 102.425 1032.22 103.098C1032.01 103.439 1031.81 103.771 1031.64 104.074C1031.5 104.315 1031.32 104.586 1031.15 104.821C1030.46 105.795 1029.71 106.427 1029 106.578C1028.31 106.78 1027.26 106.579 1026.11 106.102C1025.54 105.877 1024.96 105.58 1024.35 105.275L1022.45 104.287C1021.78 103.95 1021.06 103.634 1020.28 103.396C1019.5 103.157 1018.61 103.002 1017.72 103.116C1016.84 103.224 1016.05 103.602 1015.43 104.067C1014.8 104.529 1014.28 105.064 1013.82 105.644C1014.52 105.42 1015.21 105.171 1015.88 105.036C1016.55 104.9 1017.17 104.872 1017.7 105.007C1018.77 105.259 1019.79 106.037 1020.86 106.861C1021.92 107.707 1023.14 108.658 1024.56 109.407C1025.28 109.785 1026.07 110.111 1026.97 110.322C1027.87 110.517 1028.91 110.567 1029.94 110.314C1030.96 110.055 1031.89 109.505 1032.59 108.866C1033.29 108.216 1033.82 107.5 1034.23 106.774C1034.45 106.408 1034.62 106.052 1034.8 105.659L1035.19 104.731C1035.45 104.153 1035.74 103.581 1036.06 103.031C1037.36 100.83 1039.23 98.8641 1041.84 97.4904Z" fill="#FFDC73" fill-opacity="0.3"/>
<path d="M1056.33 2.50615C1054.79 2.12525 1053.04 2.74798 1051.78 3.84466C1050.5 4.95525 1049.66 6.47632 1049.18 8.00665L1048.86 8.97162C1048.76 9.26972 1048.63 9.55006 1048.54 9.75827C1048.46 9.97464 1048.28 10.0566 1048.55 9.90348C1048.69 9.83616 1048.9 9.83906 1048.93 9.8657C1048.97 9.88131 1048.9 9.87002 1048.8 9.83209C1048.34 9.65444 1047.55 9.16991 1046.66 8.94146C1045.76 8.68794 1044.7 8.71462 1043.87 9.06259L1044.3 9.06478C1043.85 9.01759 1043.53 9.07325 1043.15 9.13683C1042.78 9.21889 1042.43 9.35255 1042.1 9.5401C1041.77 9.71733 1041.5 9.98758 1041.29 10.2794C1041.08 10.5668 1040.97 10.9077 1040.94 11.2281C1041.42 10.7817 1041.96 10.6066 1042.46 10.6002C1042.71 10.5914 1042.96 10.6306 1043.2 10.6911C1043.43 10.7383 1043.71 10.8357 1043.85 10.9217L1043.84 10.9179L1044.29 10.929C1044.87 10.9427 1045.33 11.0843 1045.78 11.3466C1046.27 11.6047 1046.68 11.9848 1047.51 12.4687C1047.73 12.5903 1048 12.7157 1048.4 12.8025C1048.79 12.8901 1049.37 12.8714 1049.84 12.643C1050.31 12.4302 1050.6 12.1216 1050.8 11.8725C1051.01 11.6175 1051.15 11.3829 1051.26 11.1615C1051.5 10.7238 1051.63 10.3212 1051.76 9.92963C1051.88 9.54909 1051.98 9.13014 1052.06 8.80396C1052.35 7.54268 1052.74 6.34657 1053.39 5.26701C1054.04 4.19261 1054.95 3.18759 1056.33 2.50615Z" fill="#FFDC73" fill-opacity="0.3"/>
<path d="M826.012 59.225C828.062 59.6651 830.091 60.0661 831.855 60.7934C832.715 61.1521 833.513 61.6301 833.883 62.1729C833.976 62.3073 834.041 62.4402 834.092 62.5752C834.117 62.6401 834.132 62.7116 834.147 62.7832L834.19 62.9771L834.249 63.2109C834.425 63.7965 834.623 64.4633 835.308 65.1096C835.656 65.4188 836.167 65.6475 836.635 65.6873C837.105 65.7324 837.504 65.6556 837.843 65.5558C838.513 65.3414 839.003 65.0468 839.469 64.7661L840.747 63.9355C841.129 63.6929 841.54 63.4724 841.971 63.2808C842.843 62.8961 843.774 62.5558 844.734 62.3431C845.697 62.1194 846.682 61.9399 847.709 62.1754C847.316 61.8094 846.787 61.5991 846.261 61.4514C845.731 61.3097 845.186 61.2489 844.639 61.2147C843.551 61.1823 842.455 61.2826 841.38 61.5693C840.842 61.7127 840.3 61.8988 839.777 62.1505C839.273 62.3839 838.821 62.6469 838.383 62.8658C837.956 63.0884 837.533 63.2948 837.211 63.3659C837.054 63.4089 836.934 63.4151 836.891 63.4054C836.847 63.3956 836.869 63.3979 836.828 63.372C836.742 63.3209 836.547 62.9798 836.434 62.5852L836.389 62.4495L836.342 62.2666C836.297 62.0888 836.24 61.9074 836.164 61.7391C836.016 61.3967 835.825 61.0814 835.593 60.8139C834.649 59.7408 833.472 59.3368 832.398 59.0657C830.208 58.6031 828.071 58.7116 826.012 59.225Z" fill="#FFDC73" fill-opacity="0.3"/>
<defs>
<linearGradient id="paint0_linear_529:12259" x1="511.5" y1="84.2789" x2="511.5" y2="239.157" gradientUnits="userSpaceOnUse">
<stop stop-color="#FFDC73"/>
<stop offset="0.208333" stop-color="#FFDC73" stop-opacity="0.9"/>
<stop offset="0.3953" stop-color="#FFDC73" stop-opacity="0.7"/>
<stop offset="0.5262" stop-color="#FFDC73" stop-opacity="0.5"/>
<stop offset="0.6787" stop-color="#FFDC73" stop-opacity="0.3"/>
<stop offset="0.8462" stop-color="#FFDC73" stop-opacity="0.1"/>
<stop offset="1" stop-color="#FFDC73" stop-opacity="0"/>
</linearGradient>
<linearGradient id="paint1_linear_529:12259" x1="960" y1="324.39" x2="960" y2="754.701" gradientUnits="userSpaceOnUse">
<stop stop-color="#FFDC73"/>
<stop offset="0.208333" stop-color="#FFDC73" stop-opacity="0.9"/>
<stop offset="0.3953" stop-color="#FFDC73" stop-opacity="0.7"/>
<stop offset="0.5262" stop-color="#FFDC73" stop-opacity="0.5"/>
<stop offset="0.6787" stop-color="#FFDC73" stop-opacity="0.3"/>
<stop offset="0.8462" stop-color="#FFDC73" stop-opacity="0.1"/>
<stop offset="1" stop-color="#FFDC73" stop-opacity="0"/>
</linearGradient>
<linearGradient id="paint2_linear_529:12259" x1="1474" y1="198.39" x2="1474" y2="628.701" gradientUnits="userSpaceOnUse">
<stop stop-color="#FFDC73"/>
<stop offset="0.208333" stop-color="#FFDC73" stop-opacity="0.9"/>
<stop offset="0.3953" stop-color="#FFDC73" stop-opacity="0.7"/>
<stop offset="0.5262" stop-color="#FFDC73" stop-opacity="0.5"/>
<stop offset="0.6787" stop-color="#FFDC73" stop-opacity="0.3"/>
<stop offset="0.8462" stop-color="#FFDC73" stop-opacity="0.1"/>
<stop offset="1" stop-color="#FFDC73" stop-opacity="0"/>
</linearGradient>
<linearGradient id="paint3_linear_529:12259" x1="22.0003" y1="265.39" x2="22.0003" y2="695.701" gradientUnits="userSpaceOnUse">
<stop stop-color="#FFDC73"/>
<stop offset="0.208333" stop-color="#FFDC73" stop-opacity="0.9"/>
<stop offset="0.3953" stop-color="#FFDC73" stop-opacity="0.7"/>
<stop offset="0.5262" stop-color="#FFDC73" stop-opacity="0.5"/>
<stop offset="0.6787" stop-color="#FFDC73" stop-opacity="0.3"/>
<stop offset="0.8462" stop-color="#FFDC73" stop-opacity="0.1"/>
<stop offset="1" stop-color="#FFDC73" stop-opacity="0"/>
</linearGradient>
</defs>
</svg>
