<svg width="20" height="20" viewBox="0 0 20 20" fill="none" xmlns="http://www.w3.org/2000/svg">
<path fill-rule="evenodd" clip-rule="evenodd" d="M8.99969 2C5.1337 2 1.99969 5.13401 1.99969 9C1.99969 12.866 5.1337 16 8.99969 16C12.8657 16 15.9997 12.866 15.9997 9C15.9997 5.13401 12.8657 2 8.99969 2ZM-0.000305176 9C-0.000305176 4.02944 4.02913 0 8.99969 0C13.9703 0 17.9997 4.02944 17.9997 9C17.9997 13.9706 13.9703 18 8.99969 18C4.02913 18 -0.000305176 13.9706 -0.000305176 9Z" fill="#FFDC73"/>
<path fill-rule="evenodd" clip-rule="evenodd" d="M13.9426 13.9428C14.3331 13.5523 14.9663 13.5523 15.3568 13.9428L19.7068 18.2928C20.0974 18.6833 20.0974 19.3165 19.7068 19.707C19.3163 20.0975 18.6831 20.0975 18.2926 19.707L13.9426 15.357C13.5521 14.9665 13.5521 14.3333 13.9426 13.9428Z" fill="#FFDC73"/>
</svg>
