<svg width="15" height="17" viewBox="0 0 15 17" fill="none" xmlns="http://www.w3.org/2000/svg">
<g clip-path="url(#clip0_1518:5634)">
<path d="M1.79492 9.38196H3.11328V16.007H1.79492V9.38196Z" fill="#FFDC73"/>
<path d="M3.99219 9.38196V16.007H5.31055V10.7882H9.76367V16.007H11.082V9.38196H3.99219Z" fill="#FFDC73"/>
<path d="M6.18945 11.7257H7.09766V14.132H6.18945V11.7257Z" fill="#FFDC73"/>
<path d="M6.18945 15.0695H8.88476V16.007H6.18945V15.0695Z" fill="#FFDC73"/>
<path d="M7.97656 11.7257H8.88477V14.132H7.97656V11.7257Z" fill="#FFDC73"/>
<path d="M11.9609 9.38196H13.2793V16.007H11.9609V9.38196Z" fill="#FFDC73"/>
<path d="M3.11328 3.75696H11.9609C12.9317 3.75696 13.7188 2.91748 13.7188 1.88196H11.8145L10.6426 0.00695801H4.43164L3.25977 1.88196H1.35547C1.35547 2.91748 2.14236 3.75696 3.11328 3.75696Z" fill="#FFDC73"/>
<path d="M0 6.56946C0 7.60498 0.78701 8.44446 1.75781 8.44446H13.2422C14.213 8.44446 15 7.60498 15 6.56946H0Z" fill="#FFDC73"/>
<path d="M3.11328 4.69446H11.9609V5.63196H3.11328V4.69446Z" fill="#FFDC73"/>
</g>
<defs>
<clipPath id="clip0_1518:5634">
<rect width="15" height="16" fill="white" transform="translate(0 0.00695801)"/>
</clipPath>
</defs>
</svg>
