<svg width="14" height="15" viewBox="0 0 14 15" fill="none" xmlns="http://www.w3.org/2000/svg">
<rect x="14" y="7.00696" width="9.8995" height="9.8995" transform="rotate(135 14 7.00696)" fill="#FFDC73"/>
<rect x="13.3036" y="7.72754" width="0.291162" height="2.91162" transform="rotate(135 13.3036 7.72754)" fill="#241E15"/>
<rect x="7.8479" y="13.1835" width="0.291162" height="2.91162" transform="rotate(135 7.8479 13.1835)" fill="#241E15"/>
<rect x="2.90662" y="8.24219" width="0.291162" height="2.91162" transform="rotate(135 2.90662 8.24219)" fill="#241E15"/>
<rect x="8.36243" y="2.78638" width="0.291162" height="2.91162" transform="rotate(135 8.36243 2.78638)" fill="#241E15"/>
<rect x="11.3477" y="8.44824" width="0.291162" height="2.91162" transform="rotate(-135 11.3477 8.44824)" fill="#241E15"/>
<rect x="6.40662" y="13.3893" width="0.291162" height="2.91162" transform="rotate(-135 6.40662 13.3893)" fill="#241E15"/>
<rect x="0.950684" y="7.93335" width="0.291162" height="2.91162" transform="rotate(-135 0.950684 7.93335)" fill="#241E15"/>
<rect x="5.89185" y="2.99219" width="0.291162" height="2.91162" transform="rotate(-135 5.89185 2.99219)" fill="#241E15"/>
<rect x="7.01208" y="4.23352" width="4.25038" height="4.25038" transform="rotate(45 7.01208 4.23352)" fill="#241E15"/>
<rect x="7.01685" y="5.05054" width="3.09496" height="3.09496" transform="rotate(45 7.01685 5.05054)" fill="#FFDC73"/>
</svg>
