<svg width="14" height="15" viewBox="0 0 14 15" fill="none" xmlns="http://www.w3.org/2000/svg">
<path d="M2.96753 9.87756L4.12733 8.71776L5.28714 9.87756L4.12734 11.0374L2.96753 9.87756Z" fill="#FFDC73"/>
<path d="M4.12891 14.007C6.39037 14.007 8.23047 12.1395 8.23047 9.87805C8.23047 7.61659 6.39037 5.77649 4.12891 5.77649C1.86744 5.77649 0 7.61659 0 9.87805C0 12.1395 1.86744 14.007 4.12891 14.007ZM2.09896 9.58807L3.83893 7.84811C3.99913 7.6879 4.25871 7.6879 4.41891 7.84811L6.15888 9.58807C6.31909 9.74828 6.31909 10.0079 6.15888 10.1681L4.41891 11.908C4.25871 12.0682 3.99913 12.0682 3.83893 11.908L2.09896 10.1681C1.93873 10.0078 1.93873 9.74828 2.09896 9.58807Z" fill="#FFDC73"/>
<path d="M8.70972 4.13635L9.86952 2.97655L11.0293 4.13635L9.86952 5.29616L8.70972 4.13635Z" fill="#FFDC73"/>
<path d="M9.87109 0.00695801C7.60963 0.00695801 5.76953 1.8744 5.76953 4.13586C5.76953 4.54818 5.84905 4.93851 5.96274 5.31416C7.20292 5.81433 8.19262 6.80404 8.6928 8.04422C9.06844 8.15791 9.45878 8.23743 9.87109 8.23743C12.1326 8.23743 14 6.39733 14 4.13586C14 1.8744 12.1326 0.00695801 9.87109 0.00695801V0.00695801ZM11.901 4.42584L10.1611 6.16581C10.0009 6.32602 9.74129 6.32602 9.58109 6.16581L7.84112 4.42584C7.68091 4.26564 7.68091 4.00606 7.84112 3.84586L9.58109 2.10589C9.74129 1.94568 10.0009 1.94568 10.1611 2.10589L11.901 3.84586C12.0613 4.00609 12.0613 4.26564 11.901 4.42584Z" fill="#FFDC73"/>
</svg>
