<svg width="14" height="14" viewBox="0 0 14 14" fill="none" xmlns="http://www.w3.org/2000/svg">
<path d="M12.7408 9.09255C11.8927 9.09255 11.0599 8.95991 10.2708 8.69913C9.88412 8.56724 9.40878 8.68823 9.17278 8.93062L7.61521 10.1064C5.80887 9.14219 4.6962 8.02988 3.74514 6.23711L4.88634 4.72012C5.18284 4.42402 5.28918 3.99149 5.16177 3.58566C4.89987 2.79239 4.76683 1.96005 4.76683 1.11159C4.76687 0.498652 4.26821 0 3.65531 0H1.11137C0.498469 0 -0.000183105 0.498652 -0.000183105 1.11155C-0.000183105 8.13698 5.71533 13.8525 12.7408 13.8525C13.3537 13.8525 13.8523 13.3538 13.8523 12.7409V10.2041C13.8523 9.59121 13.3536 9.09255 12.7408 9.09255Z" fill="white"/>
</svg>
