<svg width="347" height="763" viewBox="0 0 347 763" fill="none" xmlns="http://www.w3.org/2000/svg">
<path d="M85.9626 146.743C79.5963 133.142 65.0676 123.867 50.103 123.527C56.7504 121.302 65.1822 120.014 71.536 120.767C78.816 121.63 85.9935 124.606 90.9413 129.942L90.9418 129.942C95.3692 134.704 97.8093 141.094 98.8633 147.594C99.8841 153.889 100.388 161.006 100.216 167.43C97.2899 166.137 94.7803 163.936 92.8257 161.346C91.2278 159.229 90.0944 156.831 89.0677 154.327C88.7277 153.497 88.3978 152.651 88.0659 151.8C87.404 150.103 86.7344 148.387 85.9626 146.743ZM85.9626 146.743C85.9627 146.743 85.9627 146.743 85.9628 146.743L85.51 146.955L85.9626 146.742C85.9626 146.743 85.9626 146.743 85.9626 146.743Z" stroke="#FFDC73" stroke-opacity="0.1"/>
<path d="M57.9016 145.215L57.8998 145.214C56.1021 144.583 55.1465 142.593 55.7905 140.779C56.4353 138.977 58.4154 138.024 60.2266 138.668C62.0288 139.312 62.9813 141.292 62.3382 143.104C61.6933 144.906 59.7129 145.859 57.9016 145.215Z" stroke="#FFDC73" stroke-opacity="0.1"/>
<path d="M32.84 137.389C31.2507 136.774 29.6305 136.226 27.9991 135.724C27.9868 135.717 27.976 135.711 27.97 135.708C27.9617 135.703 27.9476 135.697 27.9419 135.694L27.9273 135.688C27.9246 135.687 27.9221 135.686 27.9199 135.686C27.9165 135.684 27.9138 135.683 27.9119 135.683L27.8968 135.677L27.8768 135.671L27.8551 135.664C27.824 135.655 27.777 135.641 27.7193 135.623C27.6033 135.589 27.4389 135.54 27.26 135.488C27.081 135.435 26.8869 135.379 26.7113 135.328C26.5359 135.277 26.3779 135.231 26.2715 135.201L26.2009 135.181C26.1811 135.175 26.1632 135.17 26.149 135.167L26.1259 135.161C26.122 135.16 26.1159 135.158 26.1087 135.157L26.0931 135.154L26.0803 135.151L26.0677 135.15C22.1722 134.013 17.5382 132.903 12.9724 132.589C8.95868 132.312 4.95306 132.646 1.54 134.153C2.56787 132.966 3.92927 132.009 5.37784 131.4L5.37784 131.4L5.38024 131.399C8.1654 130.211 11.268 130.02 14.4091 129.828C17.482 129.645 21.0783 129.635 24.6957 129.624L24.7059 129.624C28.1988 129.614 31.7108 129.604 34.7548 129.436C36.6388 132.44 38.0455 135.746 38.9272 139.179C36.7389 142.355 33.643 144.963 30.2156 146.801C26.6965 146.179 23.4748 144.473 20.3251 142.583C19.8278 142.285 19.3298 141.981 18.8297 141.676C16.1342 140.033 13.3786 138.352 10.3591 137.275C8.77391 136.709 7.08162 136.324 5.38256 136.213C8.98549 134.837 13.4879 134.705 18.023 135.189C23.4266 135.766 28.7802 137.205 32.5149 138.334L32.84 137.389Z" stroke="#FFDC73" stroke-opacity="0.1"/>
<path d="M140.332 155.293L140.331 155.294C136.76 161.303 128.549 164.094 122.051 161.51C117.309 159.621 113.807 155.413 111.224 150.869C110.028 148.766 108.994 146.575 107.951 144.363C107.867 144.186 107.783 144.008 107.699 143.83C106.573 141.446 105.42 139.047 104.041 136.765C97.6838 126.227 86.4811 118.795 74.3506 116.814C81.4082 116.31 89.5218 117.47 95.0849 120.412C101.835 123.983 107.522 129.521 111.281 136.164C111.983 137.406 112.62 138.686 113.264 139.98C113.401 140.256 113.539 140.532 113.677 140.809C114.463 142.378 115.278 143.954 116.234 145.45C118.146 148.443 120.804 151.238 124.273 152.395C128.594 153.84 133.714 152.286 136.504 148.68C137.891 146.896 138.838 144.598 139.137 142.269C139.317 140.869 139.264 139.444 138.921 138.105C142.747 142.834 143.469 150.033 140.332 155.293Z" stroke="#FFDC73" stroke-opacity="0.1"/>
<path d="M111.436 126.887L111.437 126.888C113.985 128.867 116.688 130.641 119.691 131.637C122.695 132.634 126.019 132.806 128.88 131.636L128.881 131.635C131.757 130.464 134.052 127.82 134.37 124.803C134.576 122.765 133.732 120.652 132.278 119.294C132.33 119.431 132.376 119.57 132.417 119.71C132.766 120.919 132.737 122.314 132.322 123.444C131.491 125.71 129.169 127.137 126.857 127.371M111.436 126.887L126.805 126.873M111.436 126.887C110.382 126.073 109.356 125.227 108.325 124.377C108.102 124.193 107.879 124.009 107.655 123.825C106.399 122.793 105.127 121.764 103.796 120.806L103.504 121.212L103.796 120.806C96.7452 115.728 88.1652 112.776 79.4733 112.418L79.4718 112.418C74.0685 112.212 68.7329 113.166 63.6369 114.898C71.2336 111.744 80.0235 110.48 87.1429 111.123C97.1722 112.029 106.92 115.801 114.963 121.87L114.964 121.871C115.399 122.198 115.836 122.537 116.276 122.879C117.562 123.88 118.883 124.906 120.323 125.725M111.436 126.887L120.571 125.291M126.857 127.371C126.856 127.371 126.856 127.371 126.855 127.371L126.805 126.873M126.857 127.371C126.857 127.371 126.858 127.371 126.858 127.37L126.805 126.873M126.857 127.371C124.545 127.617 122.255 126.831 120.323 125.725M126.805 126.873C124.636 127.105 122.453 126.369 120.571 125.291M120.323 125.725C120.323 125.725 120.323 125.725 120.324 125.725L120.571 125.291M120.323 125.725C120.323 125.725 120.322 125.725 120.322 125.725L120.571 125.291M129.902 117.46C130.511 117.656 130.995 118.062 131.356 118.589L129.902 117.46Z" stroke="#FFDC73" stroke-opacity="0.1"/>
<path d="M44.2851 161.612L44.2856 161.612C49.1357 164.815 57.374 167.271 64.6409 166.12L65.1064 166.046L65.2075 166.506C68.0432 179.419 66.0554 192.266 62.7198 204.966L62.2362 204.839L62.7198 204.966C61.7499 208.658 60.6918 212.318 59.6357 215.972C57.2359 224.274 54.8472 232.537 53.531 241.035C54.0624 247.124 55.5536 253.127 57.9877 258.716C55.6782 244.36 57.8902 230.85 64.5826 220.234L70.6124 210.657L71.523 211.035L69.0129 222.071C69.0129 222.071 69.0129 222.071 69.0128 222.071C66.1696 234.582 67.0903 246.037 71.5166 255.413C69.7793 242.165 71.4677 229.95 76.5539 220.201L81.3559 210.993L82.2961 211.28L81.1365 221.593L81.1365 221.594C80.1249 230.503 83.12 239.76 88.8136 246.726C85.7485 238.042 85.0761 228.465 87.0683 219.519L87.0683 219.518L88.8282 211.647L89.8004 211.631L91.8058 219.435L91.8059 219.435C93.8374 227.365 99.1663 234.324 106.094 238.659C101.177 231.576 98.3045 222.878 98.3931 214.465L98.4613 207.399L98.479 205.567L99.3944 207.154L102.928 213.28L102.514 213.518L102.928 213.28C106.982 220.309 112.184 225.258 118.983 228.414C105.704 211.558 96.0673 191.444 92.8013 170.474C92.4548 170.277 92.1125 170.099 91.7712 169.925C91.7004 169.888 91.6294 169.852 91.5583 169.816C91.2236 169.646 90.8874 169.474 90.56 169.294C89.7593 168.852 88.9795 168.338 88.2546 167.555L44.2851 161.612ZM44.2851 161.612C39.3654 158.372 35.5122 154.413 34.0891 148.484C37.5305 146.442 40.643 143.308 42.5412 139.756L42.6227 139.603L42.5925 139.432C41.9281 135.694 40.5765 132.381 38.2945 129.393C45.9177 127.384 54.2917 128.04 61.4856 131.272C68.9083 134.607 75.0828 140.634 78.5924 147.975L78.5925 147.976C79.5082 149.888 80.2477 151.882 80.9739 153.907C81.0684 154.171 81.1627 154.435 81.2572 154.7C81.886 156.461 82.5212 158.24 83.263 159.975M44.2851 161.612L83.263 159.975M83.263 159.975C83.263 159.975 83.2631 159.975 83.2631 159.975L83.7228 159.779L83.263 159.975ZM50.4378 136.13L50.2474 136.214L50.1731 136.408C48.3764 141.114 49.9786 146.729 54.197 149.527C56.3267 150.946 59.2484 151.445 62.1152 151.09C64.9867 150.735 67.8685 149.515 69.9199 147.413L70.0917 147.237L70.0572 146.994C69.4486 142.705 66.7495 138.776 62.9554 136.681C59.1626 134.587 54.4008 134.375 50.4378 136.13Z" stroke="#FFDC73" stroke-opacity="0.1"/>
<path d="M417.52 462.892L417.52 462.892C417.222 462.587 416.919 462.282 416.614 461.975C414.44 459.784 412.167 457.493 410.847 454.606C409.323 451.274 409.559 447.518 412.451 445.054C414.895 442.966 418.074 443.593 420.57 445.056C421.832 445.796 422.964 446.77 423.816 447.791C423.83 447.808 423.845 447.825 423.859 447.843C423.444 445.726 422.93 443.631 422.321 441.565C417.267 431.272 411.509 421.317 405.14 411.808C399.283 405.756 392.45 400.996 385.077 398.125C384.875 398.047 384.671 397.969 384.465 397.89C382.702 397.216 380.795 396.487 379.337 395.118C378.5 394.333 377.855 393.276 377.565 392.16C377.273 391.041 377.331 389.83 377.953 388.782L377.954 388.78C378.902 387.199 380.726 386.626 382.583 386.575C383.825 386.54 385.142 386.736 386.355 387.062C375.2 374.067 362.829 362.264 349.56 352.031C347.321 351.41 345.029 350.945 342.724 350.639L342.724 350.639C340.682 350.367 338.317 350.009 336.325 349.201C334.326 348.391 332.616 347.089 332.034 344.882L332.034 344.882C331.609 343.266 332.019 341.643 332.846 340.279C319.046 331.471 304.478 324.326 289.462 319.19C306.614 329.364 322.184 341.158 335.867 354.423C337.162 355.677 338.429 356.944 339.682 358.21C347.318 364.918 354.599 372.118 361.43 379.783C387.989 409.567 406.951 445.055 416.261 482.393C425.572 519.732 425.475 559.964 415.989 598.729C408.519 629.293 395.427 657.935 377.748 682.827C375.647 690.016 375.568 695.02 375.5 699.292C375.495 699.617 375.49 699.938 375.484 700.255C375.4 704.784 375.149 708.614 372.108 713.445L371.757 713.224L372.107 713.445C367.854 720.2 358.923 722.22 352.169 717.967C345.414 713.713 343.393 704.783 347.646 698.028L348.067 698.293L347.647 698.028C350.623 693.305 353.855 691.385 357.765 689.386C358.154 689.187 358.55 688.987 358.954 688.784C362.569 686.96 366.778 684.836 371.995 680.342C412.348 624.396 427.037 551.078 410.284 483.863C403.531 456.787 391.809 431.226 376.169 408.366C390.333 435.795 397.549 465.565 396.645 495.067C396.317 505.678 394.845 516.207 392.324 526.516C392.564 530.759 392.777 535.002 392.973 539.249C393.445 536.701 394.131 534.186 395.318 531.863C397.319 527.945 401.12 524.551 405.64 524.306C407.93 524.182 410.24 525.113 411.912 526.628C413.585 528.144 414.666 530.294 414.39 532.627L414.39 532.627C414.066 535.357 412.303 537.259 410.178 538.803C409.114 539.576 407.939 540.273 406.779 540.945C406.611 541.042 406.443 541.139 406.276 541.236C405.284 541.808 404.314 542.368 403.42 542.957C399.107 545.819 396.215 550.041 394.117 554.863C392.017 559.689 390.726 565.082 389.594 570.259C387.942 577.808 385.964 585.01 383.989 592.2L383.981 592.23C382.15 598.894 380.323 605.547 378.756 612.473C382.604 608.776 387.262 605.929 392.314 604.208L392.314 604.208C394.125 603.592 396.362 603.325 398.283 603.689C400.206 604.053 401.922 605.083 402.416 607.143L402.416 607.144C402.876 609.079 401.975 610.706 400.65 611.985C399.327 613.261 397.511 614.267 395.921 615.011C376.391 624.181 359.978 641.918 352.328 662.134C355.876 659.641 359.829 657.248 364.259 657.222C366.804 657.201 369.401 658.349 371.198 660.105C372.998 661.864 374.057 664.3 373.353 666.846C372.403 670.292 368.743 672.247 365.379 672.599C363.684 672.775 362.005 672.643 360.359 672.42C359.573 672.313 358.788 672.184 358.012 672.057L357.902 672.039C357.088 671.905 356.283 671.774 355.481 671.67L355.48 671.669C341.659 669.848 328.036 676.075 319.939 687.274C328.786 680.79 341.082 679.005 351.44 682.625L351.16 683.584C340.535 681.071 328.514 686.493 323.382 696.142C318.127 706.026 320.001 718.011 321.769 729.329L321.811 729.595C323.461 740.142 324.576 752.02 319.222 761.303C325.438 757.459 331.952 755.422 338.322 754.046C341.691 753.319 345.027 752.775 348.254 752.249L348.69 752.178C352.057 751.628 355.301 751.09 358.364 750.372C365.708 748.648 373.174 746.852 379.121 742.422L379.121 742.422C388.705 735.294 393.66 720.93 389.175 709.943L390.091 709.543C394.148 718.274 395.339 729.029 392.429 739.798C400.136 727.5 400.306 710.696 392.557 698.37L392.557 698.37C392.132 697.693 391.683 697.024 391.228 696.347L391.13 696.201C390.645 695.477 390.155 694.744 389.694 693.995C388.774 692.498 387.957 690.918 387.503 689.171C387.043 687.402 387.095 685.409 387.692 683.678C388.289 681.944 389.448 680.435 391.226 679.727C393.287 678.901 395.451 679.487 397.142 680.751C398.831 682.014 400.117 683.998 400.445 686.117L400.446 686.119C400.922 689.256 400.458 692.383 399.186 695.217C418.844 677.448 426.75 647.574 418.168 622.469L418.168 622.468C417.666 620.997 417.102 619.339 416.897 617.716C416.691 616.086 416.838 614.428 417.819 612.994C419.084 611.14 421.228 610.574 423.309 610.855C425.386 611.136 427.493 612.264 428.827 613.932C431.008 616.653 431.853 620.151 432.135 623.045C432.209 623.801 432.244 624.522 432.255 625.184C436.848 612.169 441.203 599.02 442.29 585.351C443.47 570.51 440.384 554.807 430.8 543.535C430.799 543.535 430.798 543.534 430.798 543.533L430.737 543.464C429.472 542.011 428.029 540.355 427.075 538.604C426.1 536.815 425.59 534.846 426.36 532.839C427.24 530.544 429.498 529.474 431.812 529.398C434.124 529.322 436.628 530.226 438.163 532.04C438.163 532.04 438.163 532.04 438.163 532.041L437.781 532.363L417.52 462.892ZM417.52 462.892C438.027 483.815 447.645 514.842 442.793 543.711L417.52 462.892ZM342.79 350.143C338.697 349.598 333.568 348.738 332.517 344.755L342.79 350.143Z" stroke="#FFDC73" stroke-opacity="0.1"/>
<path d="M369.721 450.061C369.619 450.032 369.515 450.005 369.41 449.982C367.99 449.641 366.409 449.842 365.118 450.483C363.824 451.126 362.771 452.243 362.528 453.759C362.295 455.196 362.809 456.474 363.562 457.591C364.229 458.581 365.121 459.495 365.925 460.319C366.021 460.418 366.116 460.516 366.21 460.612L366.211 460.613C375.45 470.067 378.01 484.593 375.952 497.771C374.102 509.612 369.236 519.817 363.899 530.484C364.601 525.676 364.023 520.681 362.203 516.174L362.203 516.174L326.446 513.987C327.1 513.816 327.764 513.67 328.429 513.523C330.151 513.143 331.876 512.762 333.431 511.954L333.661 512.399C333.661 512.399 333.661 512.398 333.662 512.398C335.923 511.231 337.963 508.831 337.611 506.119L337.61 506.117C337.387 504.452 336.295 503.17 334.91 502.374C333.527 501.579 331.808 501.239 330.22 501.474L330.218 501.474C327.53 501.885 325.241 503.456 323.179 505.076C324.905 489.813 332.187 475.226 343.391 464.707L343.392 464.707L343.445 464.657C344.113 464.029 344.851 463.335 345.443 462.561C346.054 461.763 346.537 460.845 346.63 459.776C346.756 458.351 346.088 457.06 345.089 456.152C344.091 455.246 342.72 454.678 341.344 454.716L341.343 454.716C340.236 454.749 339.196 455.089 338.266 455.627C341.655 434.884 340.455 414.019 334.956 394.614C338.404 401.038 341.349 407.624 343.738 414.32C355.184 446.485 354.077 481.409 340.727 510.134L341.164 510.337L340.727 510.134C329.435 534.441 311.852 551.702 289.253 561.001C281.845 561.888 276.911 561.192 272.708 560.599C272.356 560.55 272.01 560.501 271.668 560.454C267.193 559.838 263.39 559.51 258.136 561.739C250.787 564.848 247.353 573.34 250.476 580.689C253.585 588.037 262.078 591.471 269.426 588.348C274.578 586.16 276.976 583.235 279.569 579.662C279.806 579.335 280.044 579.003 280.287 578.665C282.675 575.342 285.45 571.479 290.799 567.027C315.257 557.227 334.216 538.765 346.327 512.711L345.873 512.5L346.327 512.711C360.356 482.515 361.528 445.885 349.55 412.239C348.659 409.722 347.689 407.227 346.649 404.752C356.742 418.936 364.532 434.196 369.721 450.061ZM369.721 450.061C369.785 450.256 369.848 450.45 369.911 450.645C369.711 450.576 369.506 450.516 369.297 450.469C366.691 449.841 363.444 451.205 363.021 453.838C362.634 456.228 364.571 458.214 366.283 459.971C366.379 460.069 366.474 460.167 366.569 460.264C375.954 469.868 378.519 484.574 376.446 497.848C374.495 510.333 369.214 521.008 363.587 532.222M307.946 568.763C304.402 573.889 301.98 579.67 299.581 585.394C298.751 587.374 297.924 589.347 297.055 591.284L297.055 591.285C294.292 597.466 290.74 603.375 285.8 607.781L308.357 569.048M307.946 568.763L308.357 569.048M307.946 568.763C307.945 568.763 307.945 568.763 307.945 568.763L308.357 569.048M307.946 568.763C308.962 567.291 310.383 565.785 311.975 564.853C313.571 563.917 315.413 563.523 317.17 564.444C318.599 565.193 319.377 566.546 319.731 568.024C320.085 569.498 320.03 571.144 319.762 572.59L319.762 572.591C318.928 577.051 316.73 581.241 313.583 584.523M308.357 569.048C310.335 566.183 313.841 563.263 316.938 564.887C319.462 566.21 319.789 569.702 319.271 572.499C318.366 577.336 315.819 581.852 312.187 585.191C312.653 584.969 313.119 584.747 313.583 584.523M313.583 584.523C322.641 580.151 331.201 575.254 338.375 568.227C344.444 562.279 349.781 555.461 352.842 547.598C355.904 539.735 356.511 530.743 353.35 522.975L363.111 532.055C364.21 526.842 363.734 521.302 361.739 516.361C360.47 513.223 357.374 509.895 354.263 511.218C352.271 512.064 351.439 514.547 351.685 516.688C351.874 518.338 352.548 519.874 353.222 521.409C353.423 521.867 353.625 522.325 353.813 522.786C357.033 530.699 356.405 539.826 353.308 547.779C350.211 555.733 344.823 562.608 338.725 568.584C331.141 576.013 322.032 581.069 312.469 585.611C312.852 585.26 313.224 584.897 313.583 584.523Z" stroke="#FFDC73" stroke-opacity="0.1"/>
<path d="M568.546 363.842C564.93 375.966 556.542 385.109 545.908 391.329C531.976 399.479 514.208 402.595 498.369 400.778C460.938 396.483 424.545 372.973 393.707 352.428L393.101 353.221C402.17 361.133 411.135 369.877 420.232 378.75C422.42 380.883 424.615 383.024 426.82 385.162C438.195 396.189 449.853 407.148 462.213 416.66C480.793 430.958 500.983 442.006 524.222 445.11C496.421 442.527 470.622 428.641 448.294 411.167C437.251 402.524 426.785 393.33 416.338 384.152C411.028 379.488 405.724 374.828 400.351 370.246C384.417 356.661 367.909 343.793 348.987 333.672L348.47 334.527C401.072 370.333 435.491 425.745 447.071 487.575C426.08 405.801 355.147 327.537 275.028 305.195C271.994 303.951 268.273 302.957 264.201 301.897C263.923 301.825 263.642 301.752 263.36 301.679C260.63 300.97 257.747 300.221 254.791 299.34C268.731 300.297 288.528 304.091 308.488 309.674C330.384 315.798 352.416 324.057 367.085 333.039L367.627 332.199C339.677 313.25 301.875 298.703 269.275 289.799C291.785 292.753 317.55 300.239 342.769 307.799L343.138 306.874C320.468 295.411 296.634 288.016 271.988 284.689C272.6 284.266 273.21 283.842 273.815 283.419L273.816 283.418C276.65 281.424 279.543 279.51 282.453 277.585C282.912 277.282 283.372 276.977 283.832 276.673C287.103 276.015 290.414 275.478 293.738 275.075C306.692 273.502 319.121 274.809 331.8 276.143C336.321 276.619 340.874 277.098 345.494 277.451L345.494 277.451C355.903 278.242 367.072 277.663 376.559 272.994C367.521 278.785 356.187 280.634 345.406 281.009L345.405 281.009C340.904 281.166 336.432 281.19 331.976 281.213C319.515 281.277 307.178 281.342 294.68 284.337L294.72 285.318C297.676 285.772 300.578 286.425 303.494 287.081C304.063 287.209 304.633 287.337 305.204 287.464C308.691 288.239 312.207 288.961 315.816 289.278C322.591 289.877 329.325 290.87 336.006 292.217C349.104 294.869 361.704 299.086 373.999 304.315C384.389 308.737 397.38 314.225 409.955 315.768C419.024 316.881 427.922 315.945 435.484 311.059C431.939 313.9 428.02 315.765 423.839 316.877C416.488 318.832 408.302 318.467 399.877 316.93C391.454 315.394 382.832 312.694 374.617 310.01C373.642 309.691 372.672 309.373 371.709 309.057C364.574 306.714 357.803 304.49 351.858 303.216L351.535 304.155C357.303 306.943 363.497 310.247 370.009 313.72C374.446 316.086 379.031 318.531 383.729 320.946C395.301 326.894 407.519 332.633 419.752 336.454C431.985 340.276 444.262 342.19 455.946 340.46C462.815 339.443 469.469 337.168 475.78 333.294C460.85 343.689 442.949 344.679 424.653 341.206C403.865 337.259 382.66 327.564 364.874 319.433C362.521 318.357 360.227 317.309 358.002 316.305L357.529 317.183C370.091 325.154 382.25 333.889 394.438 342.646C401.254 347.543 408.08 352.447 414.99 357.227C434.237 370.541 454.101 382.866 476.115 391.291C497.173 399.351 522.068 402.466 542.997 391.926C554.648 386.071 564.077 375.923 568.546 363.842ZM568.546 363.842C569.255 361.467 569.78 358.977 570.104 356.372C570.312 355.267 570.478 354.151 570.601 353.026M294.796 284.824L294.872 284.33C295.276 284.392 295.679 284.457 296.081 284.526C295.653 284.622 295.225 284.721 294.796 284.824ZM294.796 284.824L294.913 285.31C295.307 285.216 295.7 285.124 296.093 285.036C295.662 284.961 295.23 284.89 294.796 284.824ZM351.753 303.705C352.403 304.019 353.059 304.34 353.72 304.667C353.019 304.498 352.328 304.339 351.648 304.194L351.753 303.705ZM351.753 303.705C352.455 303.855 353.168 304.019 353.892 304.194C353.246 303.875 352.606 303.562 351.971 303.255L351.753 303.705ZM357.796 316.76C358.778 317.383 359.756 318.01 360.733 318.642C359.671 318.158 358.623 317.682 357.591 317.216L357.796 316.76ZM357.796 316.76C358.84 317.231 359.899 317.713 360.973 318.202C360.006 317.576 359.036 316.955 358.064 316.338L357.796 316.76Z" stroke="#FFDC73" stroke-opacity="0.1"/>
<mask id="path-10-inside-1_991:12260" fill="white">
<path d="M307.77 479.499C331.058 439.473 313.213 377.223 282.805 343.499C314.823 374.59 336.61 428.723 327.292 472.351C339.066 433.252 328.452 383.417 303.391 350.511C345.314 381.698 380.661 434.371 383.922 487.371C386.759 533.468 366.937 576.96 333.609 608.092C366.923 579.538 388.314 539.144 389.692 494.833C391.275 443.552 367.36 394.603 331.03 359.379C313.186 342.081 286.475 322.299 264.319 311.058C257.689 307.566 249.518 305.697 242.792 305.478C263.242 312.122 282.586 330.116 292.259 342.299C291.618 341.494 293.569 343.881 292.259 342.299C292.941 343.131 293.623 343.95 294.305 344.782C281.522 332.081 266.379 322.859 249.654 317.456C244.033 316.092 240.241 314.168 230.705 314.332C241.578 319.475 264.62 333.445 273.624 342.108C263.433 334.086 251.387 328.834 240.868 325.914C233.201 323.8 226.176 323.09 219.764 322.709C242.942 330.88 263.624 353.063 273.678 370.293C273.624 370.184 273.596 370.156 273.76 370.416C273.924 370.702 273.883 370.634 273.815 370.511C274.838 372.353 275.738 374.276 276.679 376.159C264.579 356.118 247.348 342.081 226.735 333.063C216.844 329.27 208.195 328.425 207.226 328.738C235.48 339.147 262.86 387.332 239.409 426.213C257.294 408.519 261.1 377.196 244.429 350.252C255.807 358.274 272.15 376.746 274.92 390.893C276.352 398.205 276.488 405.708 275.315 413.061C271.441 437.345 255.07 455.353 232.547 464.043C260.827 455.912 282.409 431.833 283.664 401.534C292.409 423.893 290.322 450.332 275.233 469.418C292.027 451.846 295.97 426.24 291.058 402.871C284.36 370.934 270.881 351.03 256.557 337.797C295.588 365.041 323.991 428.955 304.046 473.128C285.697 513.769 233.829 516.579 198.645 497.903C233.42 518.612 285.315 518.08 307.77 479.499Z"/>
</mask>
<path d="M307.77 479.499L308.634 480.002L308.635 480.002L307.77 479.499ZM282.805 343.499L283.501 342.782L282.062 344.169L282.805 343.499ZM327.292 472.351L326.314 472.142L328.25 472.639L327.292 472.351ZM303.391 350.511L303.988 349.709L302.595 351.117L303.391 350.511ZM383.922 487.371L382.923 487.432V487.432L383.922 487.371ZM333.609 608.092L332.926 607.361L334.259 608.851L333.609 608.092ZM389.692 494.833L390.692 494.864V494.864L389.692 494.833ZM331.03 359.379L331.726 358.661L331.726 358.661L331.03 359.379ZM264.319 311.058L263.853 311.943L263.86 311.946L263.867 311.95L264.319 311.058ZM242.792 305.478L242.824 304.479L242.483 306.429L242.792 305.478ZM292.259 342.299L291.477 342.922L293.042 341.677L292.259 342.299ZM292.259 342.299L293.029 341.661L291.485 342.933L292.259 342.299ZM294.305 344.782L293.6 345.491L295.079 344.148L294.305 344.782ZM249.654 317.456L249.961 316.505L249.926 316.493L249.89 316.484L249.654 317.456ZM230.705 314.332L230.688 313.332L230.277 315.236L230.705 314.332ZM273.624 342.108L273.005 342.894L274.317 341.387L273.624 342.108ZM240.868 325.914L241.136 324.951L241.134 324.95L240.868 325.914ZM219.764 322.708L219.823 321.71L219.431 323.652L219.764 322.708ZM273.678 370.293L272.814 370.797L274.573 369.846L273.678 370.293ZM273.76 370.416L274.628 369.919L274.617 369.9L274.605 369.882L273.76 370.416ZM276.679 376.159L275.823 376.676L277.574 375.712L276.679 376.159ZM226.735 333.063L227.136 332.147L227.115 332.138L227.093 332.129L226.735 333.063ZM207.226 328.738L206.918 327.787L204.169 328.678L206.881 329.677L207.226 328.738ZM239.409 426.213L238.552 425.696L240.112 426.924L239.409 426.213ZM244.429 350.252L245.005 349.435L243.579 350.778L244.429 350.252ZM274.92 390.893L273.938 391.085L273.938 391.085L274.92 390.893ZM275.315 413.061L274.328 412.904V412.904L275.315 413.061ZM232.547 464.043L232.187 463.11L232.823 465.004L232.547 464.043ZM283.664 401.534L284.596 401.169L282.665 401.492L283.664 401.534ZM275.233 469.418L274.449 468.798L275.956 470.109L275.233 469.418ZM291.058 402.871L290.08 403.076L290.08 403.076L291.058 402.871ZM256.557 337.797L257.129 336.977L255.878 338.531L256.557 337.797ZM304.046 473.128L303.134 472.717L303.134 472.717L304.046 473.128ZM198.645 497.903L199.114 497.02L198.134 498.762L198.645 497.903ZM308.635 480.002C320.446 459.702 321.784 433.854 316.401 408.925C311.016 383.988 298.879 359.832 283.547 342.83L282.062 344.169C297.14 360.89 309.129 384.722 314.446 409.347C319.765 433.98 318.382 459.271 306.906 478.997L308.635 480.002ZM282.108 344.217C297.999 359.647 311.372 380.82 319.609 403.564C327.848 426.312 330.924 450.557 326.314 472.142L328.27 472.56C332.978 450.516 329.82 425.882 321.49 402.883C313.159 379.881 299.629 358.443 283.501 342.782L282.108 344.217ZM328.25 472.639C340.124 433.207 329.424 383.042 304.187 349.906L302.595 351.117C327.48 383.791 338.008 433.298 326.335 472.063L328.25 472.639ZM302.794 351.314C344.546 382.373 379.685 434.799 382.923 487.432L384.92 487.31C381.637 433.943 346.082 381.023 303.988 349.709L302.794 351.314ZM382.923 487.432C385.74 533.197 366.063 576.408 332.926 607.361L334.291 608.822C367.81 577.512 387.778 533.74 384.92 487.31L382.923 487.432ZM334.259 608.851C367.764 580.134 389.304 539.485 390.692 494.864L388.693 494.802C387.324 538.803 366.082 578.942 332.958 607.332L334.259 608.851ZM390.692 494.864C392.284 443.251 368.219 394.043 331.726 358.661L330.334 360.097C366.501 395.164 390.265 443.853 388.693 494.803L390.692 494.864ZM331.726 358.661C313.82 341.303 287.028 321.459 264.772 310.166L263.867 311.95C285.921 323.14 312.552 342.858 330.334 360.097L331.726 358.661ZM264.786 310.173C258.006 306.602 249.683 304.701 242.824 304.479L242.759 306.478C249.352 306.692 257.372 308.529 263.853 311.943L264.786 310.173ZM242.483 306.429C262.668 312.987 281.863 330.813 291.476 342.921L293.042 341.677C283.31 329.42 263.815 311.257 243.101 304.527L242.483 306.429ZM293.041 341.676C293.002 341.626 292.974 341.591 292.955 341.567C292.945 341.555 292.939 341.547 292.935 341.542C292.934 341.54 292.933 341.539 292.934 341.54C292.934 341.54 292.935 341.542 292.936 341.543C292.938 341.545 292.94 341.548 292.943 341.552C292.944 341.554 292.946 341.557 292.949 341.56C292.951 341.564 292.954 341.568 292.957 341.573C292.96 341.578 292.965 341.585 292.971 341.593C292.973 341.597 292.978 341.605 292.98 341.609C292.983 341.614 292.99 341.625 292.993 341.631C292.998 341.639 293.007 341.656 293.012 341.665C293.018 341.677 293.031 341.704 293.039 341.72C293.048 341.742 293.068 341.795 293.079 341.826C293.093 341.875 293.118 342.004 293.125 342.086C293.12 342.23 293.007 342.6 292.866 342.8C292.648 342.98 292.199 343.125 292.006 343.121C291.899 343.102 291.735 343.049 291.677 343.022C291.641 343.003 291.582 342.967 291.559 342.952C291.543 342.94 291.514 342.919 291.502 342.91C291.493 342.902 291.477 342.889 291.469 342.882C291.464 342.877 291.453 342.868 291.448 342.863C291.444 342.86 291.437 342.853 291.434 342.85C291.426 342.842 291.419 342.836 291.415 342.831C291.41 342.827 291.407 342.823 291.404 342.82C291.398 342.814 291.394 342.809 291.392 342.807C291.389 342.804 291.387 342.802 291.386 342.801C291.384 342.799 291.384 342.798 291.384 342.799C291.385 342.799 291.387 342.801 291.389 342.804C291.393 342.809 291.399 342.816 291.407 342.826C291.423 342.845 291.444 342.87 291.469 342.899C291.494 342.929 291.521 342.963 291.551 342.998C291.61 343.07 291.675 343.15 291.735 343.223C291.796 343.297 291.85 343.364 291.887 343.41C291.896 343.421 291.904 343.431 291.91 343.439C291.917 343.447 291.921 343.453 291.924 343.456C291.925 343.457 291.925 343.457 291.924 343.456C291.924 343.456 291.923 343.454 291.921 343.452C291.92 343.45 291.917 343.447 291.913 343.442C291.911 343.439 291.909 343.435 291.906 343.431C291.903 343.427 291.898 343.421 291.893 343.413C291.891 343.41 291.886 343.402 291.883 343.398C291.88 343.393 291.873 343.382 291.869 343.376C291.864 343.368 291.853 343.349 291.847 343.338C291.839 343.324 291.821 343.287 291.811 343.265C291.796 343.23 291.762 343.132 291.745 343.068C291.725 342.934 291.787 342.501 291.937 342.235C292.236 341.98 292.817 341.858 293.019 341.899C293.106 341.931 293.233 341.994 293.274 342.02C293.299 342.037 293.339 342.067 293.355 342.08C293.366 342.089 293.385 342.105 293.393 342.112C293.399 342.118 293.41 342.128 293.414 342.133C293.418 342.136 293.425 342.143 293.428 342.146C293.436 342.153 293.441 342.159 293.445 342.163C293.449 342.167 293.452 342.171 293.454 342.173C293.459 342.178 293.462 342.182 293.463 342.183C293.467 342.187 293.468 342.189 293.467 342.188C293.467 342.187 293.465 342.185 293.463 342.182C293.46 342.179 293.457 342.176 293.453 342.171C293.437 342.152 293.412 342.123 293.376 342.079C293.304 341.993 293.193 341.859 293.029 341.661L291.488 342.936C291.652 343.135 291.766 343.272 291.841 343.361C291.878 343.406 291.907 343.44 291.927 343.464C291.932 343.47 291.937 343.476 291.942 343.481C291.947 343.487 291.951 343.492 291.956 343.497C291.96 343.502 291.966 343.509 291.972 343.516C291.975 343.519 291.98 343.525 291.985 343.53C291.988 343.534 291.992 343.538 291.996 343.542C292 343.546 292.007 343.553 292.014 343.56C292.017 343.564 292.025 343.571 292.029 343.575C292.033 343.579 292.044 343.589 292.051 343.595C292.059 343.602 292.078 343.619 292.089 343.628C292.105 343.641 292.145 343.671 292.169 343.687C292.211 343.714 292.338 343.777 292.425 343.809C292.627 343.849 293.208 343.728 293.507 343.473C293.658 343.207 293.719 342.773 293.699 342.64C293.683 342.576 293.649 342.477 293.634 342.443C293.623 342.421 293.605 342.384 293.597 342.369C293.591 342.358 293.58 342.339 293.575 342.331C293.571 342.325 293.564 342.313 293.56 342.308C293.557 342.304 293.552 342.296 293.55 342.293C293.544 342.285 293.54 342.278 293.536 342.273C293.533 342.269 293.53 342.264 293.528 342.261C293.523 342.255 293.519 342.25 293.516 342.246C293.513 342.242 293.511 342.239 293.509 342.236C293.504 342.23 293.5 342.225 293.496 342.22C293.489 342.211 293.481 342.2 293.472 342.19C293.464 342.179 293.454 342.167 293.444 342.154C293.403 342.103 293.345 342.033 293.284 341.958C293.222 341.882 293.155 341.8 293.094 341.726C293.064 341.689 293.034 341.654 293.008 341.622C292.982 341.591 292.958 341.562 292.938 341.538C292.928 341.526 292.918 341.515 292.909 341.504C292.905 341.499 292.9 341.494 292.895 341.488C292.891 341.483 292.886 341.477 292.88 341.47C292.877 341.467 292.873 341.463 292.869 341.459C292.865 341.454 292.86 341.448 292.853 341.441C292.849 341.438 292.845 341.433 292.84 341.428C292.835 341.423 292.828 341.416 292.82 341.408C292.816 341.405 292.809 341.397 292.805 341.394C292.8 341.389 292.789 341.379 292.783 341.374C292.776 341.368 292.759 341.354 292.75 341.347C292.738 341.337 292.709 341.316 292.693 341.304C292.669 341.289 292.61 341.253 292.574 341.234C292.516 341.207 292.352 341.154 292.245 341.135C292.052 341.131 291.603 341.276 291.385 341.456C291.244 341.656 291.131 342.025 291.126 342.17C291.133 342.252 291.158 342.381 291.172 342.43C291.183 342.461 291.203 342.515 291.213 342.536C291.22 342.552 291.233 342.58 291.24 342.592C291.245 342.602 291.254 342.618 291.258 342.626C291.262 342.632 291.269 342.644 291.272 342.649C291.275 342.653 291.28 342.662 291.282 342.665C291.288 342.675 291.293 342.682 291.297 342.688C291.3 342.693 291.304 342.698 291.307 342.702C291.309 342.706 291.312 342.71 291.314 342.713C291.318 342.719 291.322 342.724 291.325 342.728C291.328 342.733 291.331 342.736 291.334 342.74C291.339 342.747 291.344 342.753 291.349 342.759C291.358 342.772 291.369 342.785 291.381 342.8C291.404 342.831 291.436 342.871 291.477 342.922L293.041 341.676ZM291.485 342.933C291.828 343.351 292.17 343.765 292.511 344.177C292.853 344.59 293.192 345.001 293.532 345.416L295.079 344.148C294.736 343.73 294.394 343.316 294.053 342.903C293.712 342.49 293.372 342.079 293.032 341.665L291.485 342.933ZM295.01 344.072C282.117 331.262 266.838 321.956 249.961 316.505L249.347 318.408C265.921 323.761 280.928 332.9 293.6 345.491L295.01 344.072ZM249.89 316.484C244.386 315.149 240.393 313.166 230.688 313.332L230.722 315.332C240.089 315.171 243.68 317.035 249.418 318.428L249.89 316.484ZM230.277 315.236C235.664 317.784 244.105 322.539 252.33 327.745C260.569 332.959 268.506 338.572 272.93 342.828L274.317 341.387C269.737 336.981 261.651 331.277 253.4 326.055C245.135 320.825 236.619 316.023 231.132 313.428L230.277 315.236ZM274.242 341.322C263.925 333.201 251.751 327.897 241.136 324.951L240.601 326.878C251.022 329.771 262.941 334.972 273.005 342.894L274.242 341.322ZM241.134 324.95C233.37 322.809 226.266 322.094 219.823 321.71L219.704 323.707C226.085 324.087 233.032 324.791 240.602 326.878L241.134 324.95ZM219.431 323.652C242.311 331.718 262.832 353.69 272.814 370.797L274.542 369.789C264.415 352.435 243.573 330.042 220.096 321.765L219.431 323.652ZM274.573 369.846C274.552 369.804 274.533 369.769 274.52 369.745C274.513 369.734 274.507 369.722 274.5 369.711C274.499 369.709 274.495 369.702 274.491 369.695C274.49 369.694 274.482 369.68 274.47 369.663C274.467 369.658 274.461 369.648 274.452 369.635C274.449 369.631 274.423 369.594 274.385 369.552C274.359 369.523 274.268 369.439 274.199 369.388C273.959 369.267 273.108 369.364 272.714 369.825C272.648 370.061 272.651 370.385 272.667 370.463C272.677 370.499 272.696 370.554 272.703 370.574C272.716 370.608 272.728 370.634 272.732 370.641C272.737 370.652 272.741 370.66 272.743 370.665C272.748 370.674 272.752 370.682 272.754 370.685C272.758 370.692 272.761 370.698 272.762 370.7C272.765 370.705 272.768 370.71 272.769 370.712C272.786 370.743 272.83 370.815 272.914 370.95L274.605 369.882C274.527 369.757 274.501 369.713 274.505 369.72C274.506 369.721 274.508 369.724 274.51 369.729C274.511 369.731 274.514 369.736 274.518 369.743C274.52 369.746 274.524 369.753 274.528 369.763C274.531 369.767 274.535 369.776 274.54 369.787C274.543 369.793 274.555 369.819 274.569 369.853C274.576 369.873 274.594 369.929 274.604 369.965C274.621 370.043 274.624 370.367 274.557 370.602C274.164 371.063 273.312 371.16 273.072 371.04C273.004 370.989 272.913 370.905 272.886 370.876C272.849 370.833 272.823 370.796 272.82 370.792C272.811 370.78 272.805 370.77 272.801 370.765C272.79 370.748 272.782 370.734 272.781 370.733C272.777 370.726 272.774 370.721 272.773 370.72C272.77 370.714 272.769 370.712 272.77 370.714C272.772 370.718 272.777 370.727 272.784 370.74L274.573 369.846ZM272.892 370.912C272.987 371.079 272.995 371.094 272.98 371.064C272.978 371.06 272.97 371.044 272.96 371.022C272.956 371.014 272.943 370.985 272.93 370.947C272.923 370.925 272.906 370.866 272.897 370.829C272.884 370.755 272.882 370.492 272.923 370.308C273.177 369.901 273.944 369.619 274.288 369.707C274.399 369.766 274.544 369.874 274.584 369.912C274.639 369.968 274.675 370.018 274.679 370.023C274.698 370.05 274.713 370.072 274.715 370.075C274.723 370.088 274.729 370.098 274.73 370.1C274.732 370.103 274.734 370.106 274.735 370.107C274.737 370.111 274.738 370.114 274.737 370.112C274.736 370.109 274.733 370.104 274.728 370.095C274.718 370.078 274.704 370.054 274.689 370.025L272.94 370.997C272.959 371.03 272.976 371.06 272.988 371.081C272.994 371.092 272.999 371.101 273.004 371.109C273.005 371.112 273.009 371.118 273.013 371.124C273.014 371.126 273.016 371.129 273.018 371.133C273.019 371.135 273.025 371.146 273.034 371.159C273.036 371.162 273.05 371.184 273.07 371.211C273.073 371.216 273.11 371.266 273.165 371.322C273.205 371.36 273.35 371.468 273.46 371.527C273.805 371.615 274.572 371.333 274.825 370.926C274.866 370.742 274.865 370.479 274.852 370.405C274.843 370.368 274.826 370.309 274.818 370.287C274.805 370.249 274.792 370.22 274.789 370.212C274.779 370.19 274.77 370.173 274.768 370.169C274.75 370.133 274.696 370.039 274.628 369.919L272.892 370.912ZM272.94 370.997C273.95 372.813 274.828 374.692 275.785 376.606L277.574 375.712C276.648 373.86 275.726 371.892 274.689 370.025L272.94 370.997ZM277.535 375.642C265.317 355.407 247.919 341.239 227.136 332.147L226.334 333.979C246.778 342.923 263.84 356.83 275.823 376.676L277.535 375.642ZM227.093 332.129C222.083 330.208 217.387 329.033 213.816 328.377C212.03 328.049 210.517 327.85 209.378 327.752C208.81 327.703 208.324 327.679 207.939 327.679C207.602 327.678 207.21 327.693 206.918 327.787L207.535 329.69C207.485 329.706 207.575 329.678 207.936 329.679C208.247 329.679 208.674 329.699 209.207 329.745C210.271 329.836 211.72 330.026 213.454 330.344C216.922 330.981 221.497 332.125 226.377 333.997L227.093 332.129ZM206.881 329.677C220.679 334.76 234.413 349.158 241.781 367.177C249.136 385.163 250.079 406.586 238.552 425.696L240.265 426.729C252.189 406.959 251.168 384.849 243.632 366.42C236.11 348.025 222.027 333.125 207.572 327.8L206.881 329.677ZM240.112 426.924C258.371 408.859 262.162 377.012 245.279 349.726L243.579 350.778C260.038 377.379 256.216 408.178 238.705 425.502L240.112 426.924ZM243.853 351.07C249.45 355.016 256.313 361.568 262.119 368.896C267.94 376.244 272.6 384.247 273.938 391.085L275.901 390.701C274.47 383.392 269.574 375.085 263.686 367.654C257.784 360.205 250.786 353.511 245.005 349.435L243.853 351.07ZM273.938 391.085C275.348 398.282 275.482 405.667 274.328 412.904L276.303 413.219C277.494 405.749 277.356 398.128 275.901 390.7L273.938 391.085ZM274.328 412.904C270.516 436.793 254.419 454.532 232.187 463.11L232.907 464.976C255.721 456.173 272.365 437.896 276.303 413.219L274.328 412.904ZM232.823 465.004C261.465 456.769 283.388 432.357 284.663 401.575L282.665 401.492C281.43 431.31 260.189 455.055 232.27 463.082L232.823 465.004ZM282.733 401.898C291.37 423.981 289.283 450.034 274.449 468.798L276.018 470.038C291.361 450.63 293.448 423.805 284.596 401.169L282.733 401.898ZM275.956 470.109C293.043 452.231 296.994 426.253 292.037 402.665L290.08 403.076C294.945 426.227 291.011 451.462 274.51 468.727L275.956 470.109ZM292.037 402.665C285.297 370.528 271.714 350.438 257.236 337.062L255.878 338.531C270.048 351.622 283.423 371.34 290.08 403.076L292.037 402.665ZM255.985 338.617C275.311 352.107 292.056 374.722 301.483 399.47C310.912 424.225 312.961 450.954 303.134 472.717L304.957 473.54C315.076 451.129 312.896 423.815 303.352 398.758C293.805 373.694 276.833 350.73 257.129 336.977L255.985 338.617ZM303.134 472.717C294.121 492.68 276.883 503.372 257.486 506.774C238.063 510.181 216.525 506.262 199.114 497.02L198.177 498.786C215.949 508.22 237.937 512.234 257.831 508.744C277.751 505.25 295.622 494.217 304.957 473.54L303.134 472.717ZM198.134 498.762C215.698 509.222 237.585 514.322 257.944 511.928C278.324 509.531 297.221 499.613 308.634 480.002L306.906 478.996C295.865 497.967 277.586 507.604 257.711 509.942C237.815 512.281 216.367 507.293 199.157 497.044L198.134 498.762Z" fill="#FFDC73" fill-opacity="0.1" mask="url(#path-10-inside-1_991:12260)"/>
<path d="M236.207 393.711C231.944 401.03 224.215 405.714 215.996 406.243C223.119 404.89 229.508 400.469 232.884 393.736C238.321 382.919 233.822 370.558 226.401 362.132L226.401 362.131C224.15 359.58 221.572 357.303 218.776 355.249C221.019 355.772 223.226 356.387 225.369 357.276C229.047 358.808 232.391 360.911 235.604 363.244C240.331 372.858 241.666 384.337 236.207 393.711Z" stroke="#FFDC73" stroke-opacity="0.1"/>
<path d="M259.427 577.175L259.426 577.174C257.592 573.761 258.879 569.508 262.29 567.688C265.704 565.866 269.958 567.154 271.778 570.552L271.778 570.553C273.612 573.966 272.325 578.218 268.914 580.039L268.912 580.039C265.5 581.873 261.247 580.587 259.427 577.175Z" stroke="#FFDC73" stroke-opacity="0.1"/>
<path d="M162.718 161.999L162.718 161.999C164.325 143.999 172.302 129.017 179.296 115.888L179.319 115.845C183.7 107.602 187.442 100.561 188.867 94.2538C189.794 90.1155 190.516 86.2564 191.054 82.651C189.141 86.495 187.023 90.4098 184.685 94.4376C181.175 100.487 177.215 106.253 173.265 112L173.239 112.038C169.295 117.779 165.362 123.501 161.875 129.499C154.89 141.513 149.893 155.488 150.973 169.248L150.973 169.249C151.284 173.218 152.014 177.251 152.753 181.325C152.884 182.049 153.015 182.774 153.144 183.5C153.999 188.3 154.761 193.142 154.726 197.913L162.718 161.999ZM162.718 161.999C162.307 166.651 162.321 171.339 162.334 175.851M162.718 161.999L162.334 175.851M162.334 175.851C162.348 180.931 162.361 186.153 161.765 191.151C159.959 206.127 154.411 218.977 146.622 226.456L146.62 226.458C146.483 226.591 146.345 226.723 146.207 226.854C150.951 218.681 154.652 208.548 154.726 197.913L162.334 175.851ZM145.319 228.341C144.889 228.722 144.455 229.095 144.022 229.464C144.328 228.989 144.632 228.506 144.932 228.016L145.319 228.341Z" stroke="#FFDC73" stroke-opacity="0.1"/>
<path d="M210.44 25.8011L209.456 25.9576C210.043 33.8152 209.45 41.4383 207.031 48.7178C205.821 47.1522 204.496 45.6174 203.11 44.1848C204.54 30.7601 202.92 16.9849 198.037 1.44652C213.888 14.7579 220.35 36.7169 213.953 57.0796L214.889 57.4273C219.144 47.5511 220.271 37.1192 218.746 27.163C229.798 42.3564 230.279 62.6655 219.773 79.9847L220.601 80.5428C228.802 69.5419 232.089 56.4508 230.913 43.7507C234.81 48.5728 237.281 54.1561 238.438 59.9763H238.204L238.566 60.6999C238.57 60.7081 238.574 60.716 238.578 60.7233C241.367 76.3367 234.716 93.5302 220.367 102.728L220.868 103.593C234.234 96.6119 242.101 83.8131 243.971 70.16C248.66 80.4683 249.914 91.7752 245.318 102.862C239.819 116.11 227.575 125.112 215.445 132.226L215.914 133.109C229.455 126.646 243.136 117.921 249.994 103.874C251.519 100.765 252.592 97.5882 253.305 94.3953C256.597 104.836 253.737 117.814 249.322 127.429C246.451 133.668 242.472 139.111 237.726 143.812C234.245 144.616 230.783 145.489 227.348 146.354C225.976 146.7 224.608 147.045 223.245 147.384L223.244 147.384C220.049 148.181 214.797 149.842 209.792 151.757C207.288 152.715 204.838 153.74 202.734 154.755C201.19 155.499 199.815 156.247 198.737 156.967C198.859 156.212 198.95 155.451 198.992 154.699C208.777 152.488 218.3 148.375 226.254 142.291C226.258 142.289 226.261 142.288 226.264 142.286C226.27 142.283 226.275 142.281 226.279 142.278C226.288 142.274 226.294 142.27 226.3 142.267L226.314 142.258C226.322 142.253 226.329 142.248 226.336 142.244L226.356 142.23L226.368 142.222C226.378 142.215 226.388 142.208 226.399 142.201C226.429 142.179 226.466 142.153 226.505 142.124C226.585 142.067 226.681 141.995 226.777 141.924C226.872 141.853 226.968 141.781 227.046 141.721C227.085 141.691 227.12 141.663 227.15 141.64C227.157 141.635 227.164 141.629 227.171 141.623C227.178 141.618 227.184 141.613 227.191 141.607L227.209 141.592C227.215 141.587 227.222 141.581 227.229 141.575L227.241 141.564C227.243 141.562 227.245 141.56 227.247 141.558C227.25 141.555 227.254 141.552 227.257 141.548L227.269 141.537L227.272 141.533C227.274 141.531 227.277 141.528 227.28 141.525C233.792 136.77 239.264 130.6 243.765 123.976L242.963 123.38C231.679 137.322 216.069 146.111 201.241 148.236C203.59 144.579 204.855 140.198 204.459 134.977C208.551 131.816 212.413 126.649 214.643 120.823C220.396 119.24 225.518 116.449 230.294 112.71C230.308 112.702 230.319 112.695 230.328 112.69C230.366 112.667 230.401 112.641 230.429 112.62C230.474 112.586 230.534 112.538 230.606 112.48C230.624 112.466 230.643 112.45 230.663 112.435L230.684 112.417L230.704 112.398C230.788 112.313 230.848 112.256 230.895 112.212C230.916 112.191 230.941 112.167 230.962 112.145C230.971 112.135 230.984 112.122 230.997 112.106C236.224 107.16 240.308 101.532 242.518 94.5279L241.588 94.168C236.466 105.272 227.766 113.03 216.263 114.986C216.638 112.785 216.744 110.542 216.511 108.314C216.947 107.393 217.604 105.493 218.224 103.069C218.866 100.559 219.477 97.4544 219.767 94.2264C223.735 90.7536 226.963 86.6433 229.636 82.0605C229.637 82.0594 229.638 82.0584 229.638 82.0576L229.639 82.0571C229.649 82.0422 229.657 82.0282 229.663 82.0189C229.673 82.0016 229.686 81.98 229.697 81.9595L229.7 81.9552C229.726 81.9084 229.765 81.8404 229.824 81.7427L229.83 81.7319L229.836 81.7207C229.893 81.6137 229.935 81.5303 229.964 81.4684C229.978 81.4381 229.992 81.4082 230.002 81.3809C230.005 81.3733 230.009 81.3638 230.013 81.353C232.782 75.5734 234.586 69.5132 234.779 63.015L233.786 62.9189C232.037 73.5454 227.989 81.8396 219.832 87.6166C219.634 85.2988 219.165 83.0734 218.284 81.117C218.376 80.1626 218.297 78.2621 218.025 75.913C221.92 66.902 223.771 57.0869 223.169 47.2536L222.172 47.2328C221.658 52.2082 220.482 57.0786 218.763 61.7765C218.719 61.8947 218.668 62.03 218.622 62.1512L218.6 62.2118C218.564 62.3074 218.533 62.3902 218.514 62.4406L218.5 62.4794L218.494 62.4953L218.49 62.5068L218.487 62.5179C218.486 62.521 218.482 62.5321 218.479 62.5463C218.478 62.5482 218.478 62.5513 218.477 62.5553C218.477 62.5553 218.477 62.5553 218.477 62.5553C218.109 63.5376 217.783 64.4676 217.472 65.3578C217.411 65.5306 217.351 65.7018 217.292 65.8716C217.045 66.5743 216.804 67.253 216.552 67.9185C215.678 64.506 214.451 61.0413 212.742 58.3618C212.276 56.9981 211.498 55.4121 210.502 53.7372C212.268 46.3197 212.736 38.5358 211.494 31.0034L211.494 30.9982L211.493 30.9907L211.492 30.9812L211.491 30.9704L211.489 30.9568L211.485 30.9295L211.479 30.8939L211.464 30.798C211.452 30.7246 211.437 30.6346 211.422 30.5448C211.407 30.4549 211.392 30.3649 211.379 30.2916L211.363 30.1956L211.357 30.16L211.352 30.1328L211.349 30.1194L211.347 30.109L211.345 30.0999C211.345 30.098 211.344 30.0953 211.343 30.0918C211.342 30.0891 211.342 30.086 211.341 30.0825L211.337 30.0691C211.089 28.6342 210.787 27.2115 210.44 25.8011ZM238.673 60.1159C238.673 60.1163 238.673 60.116 238.674 60.1152L238.673 60.1159ZM227.153 141.624L227.151 141.626C227.153 141.624 227.154 141.624 227.153 141.624Z" stroke="#FFDC73" stroke-opacity="0.1"/>
<path d="M253.692 130.104C254.912 127.914 256.048 125.585 257.054 123.162C258.006 128.883 257.595 134.858 256.192 140.657C251.651 142.113 248.703 142.667 244.368 142.975C247.957 139.232 251.124 134.722 253.692 130.104Z" stroke="#FFDC73" stroke-opacity="0.1"/>
<path d="M154.865 226.439C156.696 224.091 158.359 221.473 159.863 218.625C160.87 218.701 161.877 218.721 162.879 218.687C161.119 221.655 159.064 224.467 156.659 226.934C156.055 226.788 155.455 226.629 154.865 226.439Z" stroke="#FFDC73" stroke-opacity="0.1"/>
<path d="M161.898 214.407C163.3 211.197 164.504 207.76 165.487 204.138C166.657 203.906 167.808 203.605 168.942 203.253C167.915 208.375 165.65 213.402 165.023 214.713C163.974 214.679 162.935 214.581 161.898 214.407Z" stroke="#FFDC73" stroke-opacity="0.1"/>
<path d="M169.114 193.714C169.983 193.779 170.826 193.785 171.661 193.747C171.045 195.523 170.501 197.315 169.981 199.121C168.845 199.361 167.702 199.537 166.55 199.646C167.088 197.127 167.531 194.547 167.846 191.897C168.008 190.555 168.124 189.204 168.216 187.855C170.416 187.662 172.582 187.181 174.647 186.455C173.736 188.406 172.91 190.351 172.2 192.245C171.189 192.48 170.168 192.644 169.116 192.717L169.114 193.714Z" stroke="#FFDC73" stroke-opacity="0.1"/>
<path d="M188.769 164.536L188.149 163.756C182.352 167.634 175.391 169.461 168.528 168.682C168.573 166.619 168.667 164.572 168.844 162.551C169.103 159.665 169.548 156.863 170.131 154.111C177.883 153.777 185.485 151.189 191.767 146.552L191.236 145.708C185.072 148.966 178.081 150.393 171.167 149.826C172.43 145.217 174.069 140.794 175.904 136.545C186.292 137.459 196.819 133.57 203.874 125.735L203.173 125.023C196.249 131.069 186.851 133.733 177.849 132.239C180.069 127.555 182.442 123.07 184.72 118.789C184.837 118.575 184.951 118.362 185.063 118.152C185.13 118.025 185.197 117.899 185.265 117.773C195.123 117.409 204.56 112.423 210.059 104.079L209.261 103.479C203.847 109.803 195.814 113.423 187.592 113.363C189.569 109.555 191.323 105.952 192.696 102.472C200.315 99.8935 206.722 94.1016 209.724 86.5264L208.827 86.0913C205.635 91.5931 200.395 95.7073 194.39 97.5359C194.572 96.8945 194.734 96.257 194.877 95.619L194.877 95.6189C195.998 90.6072 196.827 85.9785 197.375 81.6544C201.35 77.388 204.002 72.0749 204.897 66.2548L203.933 66.0073C202.649 69.5226 200.612 72.7155 197.996 75.3543C198.214 72.0425 198.249 68.9671 198.073 66.1389C199.769 61.2641 201.066 56.4458 201.985 51.6082C211.07 63.0656 209.532 80.3702 197.685 90.2278L198.286 91.0254C206.267 85.5895 210.567 77.2301 211.311 68.5333C216.77 83.383 208.189 101.553 192.78 106.865L193.063 107.823C203.221 105.31 210.853 97.8235 214.72 88.7493C216.348 95.2945 214.514 102.322 210.642 108.393H209.662L210.257 108.988C204.674 117.37 195.339 123.626 186.395 123.863L186.379 124.862C195.404 125.395 204.327 120.793 210.759 113.874C210.495 121.341 206.322 128.332 200.36 133.538C194.053 139.044 185.813 142.49 178.271 142.376L178.21 143.373C185.098 144.123 192.399 142.223 198.753 138.558C199.076 144.842 195.642 149.862 190.748 153.82C185.648 157.946 179.032 160.856 173.69 162.759L173.968 163.718C180.307 162.287 187.398 159.92 193.147 156.116C193.163 158.07 192.792 159.975 192.135 161.792C191.731 162.146 191.32 162.508 190.932 162.884C187.94 165.753 185.063 169.225 182.433 172.975C179.234 174.814 175.675 175.879 172.187 175.827L172.105 176.821C174.817 177.231 177.544 177.038 180.176 176.383C178.864 178.457 177.632 180.582 176.501 182.728C173.879 183.482 171.148 183.778 168.422 183.576C168.491 180.971 168.49 178.382 168.478 175.834V175.829V175.822V175.816V175.809V175.803V175.796V175.79V175.783V175.777V175.77V175.763V175.757V175.75V175.744V175.737V175.731V175.724V175.718V175.711V175.705V175.698V175.691V175.685V175.678V175.672V175.665V175.659V175.652V175.646V175.639V175.632V175.626V175.619V175.613V175.606V175.6V175.593V175.587V175.58V175.573V175.567V175.56V175.554V175.547V175.541V175.534V175.528V175.521V175.514V175.508V175.501V175.495V175.488V175.482V175.475V175.469V175.462V175.455V175.449V175.442V175.436V175.429V175.423V175.416V175.41V175.403V175.396V175.39V175.383V175.377V175.37V175.364V175.357V175.351V175.344V175.337V175.331V175.324V175.318V175.311V175.305V175.298V175.292V175.285V175.278V175.272V175.265V175.259V175.252V175.246V175.239V175.233V175.226V175.219V175.213V175.206V175.2V175.193V175.187V175.18V175.174V175.167V175.16V175.154V175.147V175.141V175.134V175.128V175.121V175.115V175.108V175.101V175.095V175.088V175.082V175.075V175.069V175.062V175.056V175.049V175.042V175.036V175.029V175.023V175.016V175.01V175.003V174.997V174.99V174.983V174.977V174.97V174.964V174.957V174.951V174.944V174.938V174.931V174.924V174.918V174.911V174.905V174.898V174.892V174.885V174.879V174.872V174.866V174.859V174.852V174.846V174.839V174.833V174.826V174.82V174.813V174.807V174.8V174.793V174.787V174.78V174.774V174.767V174.761V174.754V174.748V174.741V174.734V174.728V174.721V174.715V174.708V174.702V174.695V174.689V174.682V174.675V174.669V174.662V174.656V174.649V174.643V174.636V174.63V174.623V174.616V174.61V174.603V174.597V174.59V174.584V174.577V174.571V174.564V174.557V174.551V174.544V174.538V174.531V174.525V174.518V174.512V174.505V174.498V174.492V174.485V174.479V174.472V174.466V174.459V174.453V174.446V174.439V174.433V174.426V174.42V174.413V174.407V174.4V174.394V174.387V174.38V174.374V174.367V174.361V174.354V174.348V174.341V174.335V174.328V174.321V174.315V174.308V174.302V174.295V174.289V174.282V174.276V174.269V174.262V174.256V174.249V174.243V174.236V174.23V174.223V174.217V174.21V174.203V174.197V174.19V174.184V174.177V174.171V174.164V174.158V174.151V174.144V174.138V174.131V174.125V174.118V174.112V174.105V174.099V174.092V174.086V174.079V174.072V174.066V174.059V174.053V174.046V174.04V174.033V174.027V174.02V174.013V174.007V174V173.994V173.987V173.981V173.974V173.968V173.961V173.954V173.948V173.941V173.935V173.928V173.922V173.915V173.909V173.902V173.895V173.889V173.882V173.876V173.869V173.863V173.856V173.85V173.843V173.836V173.83V173.823V173.817V173.81V173.804V173.797V173.791V173.784V173.777V173.771V173.764V173.758V173.751V173.745V173.738V173.732V173.725V173.718V173.712V173.705V173.699V173.692V173.686V173.679V173.673V173.666V173.659V173.653V173.646V173.64V173.633V173.627V173.62V173.614V173.607V173.6V173.594V173.587V173.581V173.574V173.568V173.561V173.555V173.548V173.541V173.535V173.528V173.522V173.515V173.509V173.502V173.496V173.489V173.482V173.476V173.469V173.463V173.456V173.45V173.443V173.437V173.43V173.423V173.417V173.41V173.404V173.397V173.391V173.384V173.378V173.371V173.364V173.358V173.351V173.345V173.338V173.332V173.325V173.319V173.312V173.305V173.299V173.292V173.286V173.279V173.273V173.266V173.26V173.253V173.247V173.24V173.233V173.227V173.22V173.214V173.207V173.201V173.194V173.188V173.181V173.174V173.168V173.161V173.155V173.148V173.142V173.135V173.129V173.122V173.115V173.109V173.102V173.096V173.089V173.083V173.076V173.07V173.063V173.056V173.05V173.043V173.037V173.03V173.024V173.017V173.011V173.004V172.997V172.991V172.984V172.978V172.971V172.965V172.961C175.967 172.62 183.242 169.71 188.769 164.536ZM210.869 108.393H210.866C210.869 108.393 210.871 108.393 210.869 108.393Z" stroke="#FFDC73" stroke-opacity="0.1"/>
<path d="M152.307 230.752L152.306 230.752C151.185 231.578 150.07 232.197 148.96 232.657C149.606 232.087 150.245 231.504 150.875 230.903L150.875 230.903L150.883 230.895C151.037 230.741 151.187 230.584 151.332 230.432L151.334 230.43C151.416 230.344 151.497 230.259 151.578 230.176C151.969 230.261 152.363 230.338 152.759 230.406C152.61 230.524 152.46 230.64 152.307 230.752Z" stroke="#FFDC73" stroke-opacity="0.1"/>
<path d="M188.446 203.277L188.446 203.277C186.22 207.087 183.93 210.975 181.278 214.425C176.511 220.607 170.198 225.538 163.147 228.909C169.18 220.967 173.296 211.592 177.324 202.418C177.74 201.471 178.155 200.526 178.571 199.584L178.571 199.584C183.962 187.384 190.113 175.028 200.6 167.024L200.6 167.024C208.63 160.888 218.176 158.025 228.278 156.319C233.329 155.466 238.507 154.903 243.697 154.363C244.116 154.319 244.534 154.276 244.952 154.232C249.721 153.737 254.493 153.242 259.156 152.538C270.473 150.829 281.126 147.986 291.124 144.284C286.357 147.585 281.303 150.469 276.022 152.871L276.022 152.871C267.669 156.674 258.63 159.38 249.852 162.001L249.852 162.001C244.928 163.474 239.83 165.004 234.867 166.714L234.867 166.714C217.122 172.829 205.008 180.374 196.838 190.487C193.583 194.511 190.962 198.983 188.459 203.255L188.446 203.277Z" stroke="#FFDC73" stroke-opacity="0.1"/>
<path d="M373.273 98.7811L372.444 98.2247C366.402 106.273 358.698 112.833 349.994 117.581C352.119 113.279 353.64 108.628 354.43 103.734C365.957 92.6014 375.467 80.8273 382.91 69.7808C383.539 71.7963 383.951 74.6369 384.092 78.2057C384.256 82.3356 384.058 87.4025 383.442 93.2208C378.689 110.625 365.232 125.047 347.019 130.776L347.276 131.741C360.678 128.813 371.993 121.459 380.058 111.511C377.722 135.199 356.875 154.182 333.003 156.402L333.05 157.4C346.911 157.387 360.047 151.95 370.08 143.087C361.737 167.086 333.982 181.401 308.961 177.742L308.776 178.724C326.828 182.895 346.509 177.859 360.915 166.524C346.037 192.944 312.108 205.477 282.713 195.96L282.372 196.899C305.317 206.169 331.233 201.859 350.371 188C348.005 196.141 342.409 202.962 335.364 208.263L335.088 208.17L334.894 208.558C334.878 208.591 334.865 208.621 334.856 208.646C327.533 214.037 318.767 217.787 310.548 219.727C289.198 224.756 267.481 220.005 246.81 213.828L246.496 214.777C268.201 222.626 291.359 228.838 314.616 223.759C319.814 222.634 325.078 220.862 330.1 218.506C326.935 223.67 323.069 227.915 318.687 231.349L318.366 231.093L318.063 231.546C317.999 231.643 317.931 231.741 317.858 231.844L317.857 231.846C317.803 231.924 317.746 232.005 317.69 232.087C304.895 241.581 287.853 244.511 270.507 243.436C253.135 242.359 235.519 237.268 221.694 230.811L221.246 231.705C242.527 243.118 266.5 251.33 291.045 247.939L291.045 247.939C297.099 247.099 303.11 245.524 308.829 243.242C280.769 272.105 231.443 274.184 198.926 250.532L198.316 251.324C221.547 270.273 253.83 275.435 281.819 267.009C274.223 273.77 265.194 278.49 255.491 281.321L255.21 280.871L254.776 281.187C254.634 281.289 254.485 281.39 254.327 281.497L254.323 281.499C254.193 281.587 254.058 281.678 253.924 281.773C227.494 288.869 196.553 282.199 176.229 264.786L175.557 265.526C192.572 281.917 217.314 290.237 241.276 289.165C209.321 304.298 167.888 299.884 145.829 269.944L145.006 270.511C155.137 286.268 170.329 295.949 187.164 300.289C170.18 301.116 152.775 298.756 138.385 290.165L138.128 290.595L138.385 290.165C129.128 284.641 121.74 275.1 118.878 264.856C118.033 259.274 118.492 253.258 120.855 247.268C121.362 251.308 123.306 255.382 125.943 258.55C127.705 274.087 138.044 287.733 153.481 292.897L153.839 291.964C141.717 286.702 133.567 275.74 131.589 263.332C139.382 268.067 150.219 269.666 158.882 267.365C158.962 267.358 159.034 267.349 159.099 267.341C172.633 281.331 189.122 294.319 209.747 291.609L209.654 290.614C190.812 291.678 176.531 279.616 164.719 265.887C166.682 264.997 168.513 263.795 170.339 262.596C170.958 262.19 171.575 261.784 172.198 261.39C175.209 260.678 178.656 259.15 181.993 256.95C200.194 272.355 223.227 279.825 247.52 277.464L247.455 276.466C224.323 277.233 202.866 269.071 186.412 253.542C188.209 251.936 189.895 250.111 191.357 248.088C196.577 246.389 198.724 243.743 201.136 240.771C201.476 240.352 201.822 239.926 202.182 239.496L202.416 239.379L202.469 239.352C222.176 253.897 246.24 259.839 270.925 255.618L270.787 254.628C247.562 257.141 225.33 250.588 207.536 236.287C210.565 233.966 212.632 231.23 214.88 227.431C217.371 226.195 219.066 225.142 220.417 224.071C221.679 223.072 222.627 222.067 223.632 220.914C246.22 234.425 272.269 238.94 298.395 233.267L298.213 232.285C272.955 236.151 248.416 230.711 227.56 216.745C232.755 215.362 237.67 212.795 241.807 208.965C246.011 208.283 251.034 206.261 255.759 203.633C274.607 211.262 295.082 212.889 315.187 207.985L314.986 207.006C296.55 210.097 278.234 207.795 261.516 200.419C268.544 198.956 279.319 195.135 287.687 189.598C306.329 193.094 325.875 190.311 342.712 181.283L342.277 180.384C327.109 186.987 310.388 188.647 294.365 185.46C301.472 182.855 307.915 178.491 313.045 171.83C314.18 171.293 315.427 170.566 316.739 169.685C330.368 170.279 343.841 166.357 355.103 158.164L354.556 157.328C344.746 163.068 333.692 165.7 322.63 165.115C327.79 160.612 333.214 154.656 337.037 148.684C348.891 144.275 359.673 137.355 368.658 128.192L367.981 127.458C359.708 134.367 350.324 139.494 340.257 142.77C344.15 137.905 346.712 131.897 347.231 124.59L347.237 124.513C357.884 118.264 366.862 109.525 373.273 98.7811Z" stroke="#FFDC73" stroke-opacity="0.1"/>
<path d="M194.611 204.912C194.468 204.834 194.326 204.754 194.184 204.674L194.428 204.242C194.047 204.882 193.665 205.522 193.284 206.176C191.633 208.986 189.942 211.865 188.059 214.648L188.352 214.242C188.482 214.337 188.614 214.43 188.746 214.522M194.611 204.912C194.312 205.414 194.014 205.917 193.716 206.428L193.715 206.429C192.145 209.102 190.53 211.851 188.746 214.522M194.611 204.912C203.278 209.688 213.414 211.517 223.275 209.779L223.156 208.788C213.755 209.397 204.392 206.733 196.764 201.347C198.266 198.906 199.818 196.567 201.585 194.39L201.586 194.389C202.908 192.749 204.363 191.18 205.951 189.67C216.473 196.919 229.038 200.795 241.889 200.523L241.915 199.525C229.973 198.647 218.685 194.122 209.45 186.629C212.776 183.966 216.595 181.511 220.965 179.243C233.526 188.071 248.435 192.556 263.886 192.038L263.891 191.038C249.811 190.441 236.527 185.544 225.493 177.037C228.954 175.457 232.718 173.978 236.829 172.557C238.604 171.952 240.419 171.372 242.226 170.804C255.252 176.771 269.565 179.596 283.895 178.859L283.886 177.86C271.55 177.427 259.468 174.34 248.463 168.857C248.547 168.831 248.631 168.805 248.715 168.779C249.672 168.486 250.626 168.192 251.57 167.911L251.428 167.432L251.57 167.911C256.821 166.345 262.178 164.736 267.484 162.874C281.232 167.723 296.334 167.635 310.031 162.553L309.725 161.602C297.907 164.854 285.46 164.45 274.003 160.442C275.529 159.834 277.046 159.196 278.538 158.514C281.954 156.962 285.248 155.211 288.46 153.301C301.369 155.219 314.626 152.624 325.744 145.618L325.253 144.748C315.565 149.625 304.687 151.298 294.101 149.694C297.985 147.038 301.687 144.114 305.194 140.964C315.2 138.867 324.715 134.673 332.939 128.557L332.391 127.722C325.689 131.574 318.369 134.228 310.799 135.619C310.832 135.586 310.864 135.552 310.897 135.519C324.426 128.418 336.47 119.799 347.054 110.53C342.543 128.06 327.434 141.432 309.02 143.662L309.1 144.658C321.272 144.171 332.261 138.988 340.438 130.888C338.166 141.208 330.131 148.218 320.225 152.554C309.813 157.111 297.423 158.668 287.792 157.997L287.689 158.992C299.67 160.638 314.417 159.204 326.25 153.529C310.859 172.074 284.936 178.157 262.178 167.958L261.741 168.857C275.25 175.954 290.304 177.146 303.965 173.292C295.807 181.676 284.537 185.045 272.687 185.327C260.227 185.623 247.182 182.502 236.593 178.264L236.194 179.18C248.534 185.01 263.915 189.218 278.411 188.551C260.383 198.761 236.823 196.952 219.437 185.567L218.862 186.384C228.64 193.777 240.609 198.011 252.717 198.706C238.446 207.281 218.668 205.834 204.649 197.318L204.095 198.15C212.558 204.295 223.338 207.775 234.072 208.001C223.9 216.527 208.295 216.878 197.001 209.804L196.431 210.624C202.775 215.505 210.524 217.982 218.241 218C210.051 226.791 195.979 228.704 185.039 223.957L184.587 224.847C191.288 228.763 199.348 230.059 206.933 228.818C203.334 233.337 197.802 235.613 191.774 236.354C185.316 237.149 178.354 236.172 172.77 234.363L172.407 235.293C179.122 238.387 187.18 240.09 194.714 239.379C193.6 240.806 191.648 241.94 189.11 242.768C186.113 243.746 182.396 244.263 178.554 244.362C174.715 244.462 170.775 244.145 167.337 243.468C163.886 242.789 160.995 241.758 159.213 240.464L158.579 241.235C165.061 247.241 174.331 249.908 183.124 249.038C173.718 258.955 156.617 257.554 147.924 246.293L147.1 246.857C151.325 253.851 157.912 257.762 164.931 258.857C162.163 260.335 159.208 261.144 156.253 261.327L156.492 260.391C149.054 258.038 143.252 252.155 140.914 244.947M194.611 204.912C194.693 204.774 194.776 204.635 194.858 204.497L194.86 204.495L194.43 204.239C201.777 208.392 210.222 210.387 218.66 209.832C220.175 209.899 221.697 209.884 223.22 209.785L223.188 209.286L223.101 208.794C221.624 209.055 220.139 209.233 218.655 209.332C210.545 208.969 202.665 206.235 196.094 201.483C197.677 198.891 199.314 196.394 201.197 194.075L140.914 244.947M188.746 214.522C188.656 214.658 188.565 214.793 188.473 214.928L188.059 214.648C192.915 218.151 198.747 220.184 204.75 220.479C205.923 220.372 207.094 220.199 208.257 219.956L208.359 220.446L208.393 220.945C207.179 221.027 205.967 221.038 204.76 220.98C198.37 221.555 191.918 220.18 186.258 217.172M188.746 214.522C194.407 218.469 201.36 220.419 208.325 219.947L208.461 220.935C200.955 222.499 193.148 221.287 186.412 217.817M186.412 217.817C186.448 217.767 186.482 217.719 186.516 217.671C186.567 217.6 186.616 217.53 186.664 217.464L186.258 217.172M186.412 217.817C186.314 217.954 186.212 218.095 186.107 218.229C183.587 221.495 180.695 224.436 177.5 227.041C184.109 229.487 191.149 230.715 198.224 230.546L198.309 231.541C190.1 232.741 181.747 232.076 173.825 229.805C171.181 231.634 168.382 233.249 165.468 234.63C171.064 239.136 178.302 241.517 185.612 241.038L185.736 242.028C177.157 243.634 168.343 241.383 161.423 236.359C158.729 237.401 155.948 238.253 153.127 238.891C152.38 239.435 151.607 239.951 150.823 240.439C156.347 247.219 164.583 251.65 173.459 252.334L173.434 253.333C163.533 253.592 154.075 249.398 147.367 242.397C145.288 243.442 143.115 244.302 140.914 244.947M186.412 217.817C186.282 217.75 186.153 217.682 186.024 217.613L186.258 217.172M186.258 217.172C186.206 217.244 186.154 217.317 186.102 217.391C185.976 217.568 185.848 217.749 185.713 217.922C183.157 221.234 180.214 224.21 176.957 226.837L140.914 244.947M137.116 245.794C140.548 253.593 147.529 259.616 156.123 261.335C147.99 261.788 139.881 257.503 135.722 249.372L134.807 249.771C137.097 256.04 141.531 260.482 146.86 263.007C140.921 262.873 134.879 261.159 130.408 258.017C126.134 255.011 123.07 249.642 122.962 244.566C123.781 244.882 124.612 245.161 125.46 245.384C126.889 251.321 130.534 256.69 135.877 259.931L136.461 259.123C132.548 255.785 130.02 251.07 129.317 246.063C131.901 246.332 134.52 246.226 137.116 245.794ZM177.047 227.406C182.514 229.461 188.28 230.689 194.123 230.989C195.472 230.893 196.82 230.748 198.164 230.551L198.236 231.046L198.248 231.546C196.872 231.579 195.498 231.56 194.128 231.49C187.253 231.975 180.342 231.181 173.735 229.259C170.993 231.173 168.079 232.854 165.04 234.279L177.047 227.406ZM164.965 234.866C169.629 238.685 175.44 241.04 181.505 241.511C182.855 241.451 184.207 241.297 185.552 241.045L185.644 241.537L185.677 242.036C184.278 242.127 182.881 242.118 181.497 242.012C174.331 242.323 167.238 240.036 161.498 235.793C158.715 236.885 155.836 237.772 152.917 238.426C152.138 238.996 151.329 239.536 150.508 240.046L164.965 234.866ZM150.394 240.703C155.009 246.392 161.502 250.461 168.694 252.111C170.247 252.298 171.822 252.374 173.408 252.333L173.421 252.833L173.383 253.331C171.766 253.207 170.171 252.962 168.608 252.604C160.524 251.625 153.016 247.69 147.473 241.782L150.394 240.703Z" stroke="#FFDC73" stroke-opacity="0.1"/>
<path d="M156.572 370.352C157.199 370.439 157.833 370.628 158.468 370.858C158.02 371.275 157.682 371.81 157.494 372.392C157.292 372.199 157.071 372.016 156.844 371.851C156.271 371.435 155.564 371.07 154.922 371.035C154.373 371.005 153.8 371.107 153.275 371.327C153.47 371.095 153.71 370.894 153.98 370.742C154.73 370.321 155.661 370.225 156.572 370.352Z" stroke="#FFDC73" stroke-opacity="0.1"/>
<path d="M150.901 374.462L150.902 374.462C151.605 374.417 152.323 374.504 153.052 374.645C152.809 374.944 152.61 375.275 152.454 375.604C152.312 375.904 152.201 376.215 152.121 376.515C151.332 376.017 150.375 375.789 149.449 375.894C148.707 375.979 148.027 376.276 147.461 376.724C147.606 376.268 147.876 375.838 148.237 375.502C148.922 374.864 149.893 374.525 150.901 374.462Z" stroke="#FFDC73" stroke-opacity="0.1"/>
<path d="M148.602 381.453L148.602 381.453L148.598 381.464C148.438 381.918 148.372 382.404 148.402 382.884C148.343 382.86 148.285 382.838 148.226 382.817C147.975 382.726 147.707 382.654 147.451 382.621C147.206 382.591 146.92 382.59 146.663 382.692C145.924 382.975 145.418 383.624 145.164 384.289C145.116 384.416 145.077 384.541 145.046 384.667C144.878 384.148 144.859 383.569 145.008 383.033C145.289 382.025 146.098 381.177 147.101 380.737C147.756 380.45 148.523 380.319 149.289 380.324C148.992 380.655 148.757 381.041 148.602 381.453Z" stroke="#FFDC73" stroke-opacity="0.1"/>
<path d="M162.845 410.749C162.53 411.495 162.457 412.348 162.648 413.137C162.161 412.948 161.671 412.67 161.218 412.335C160.477 411.788 159.89 411.126 159.6 410.537C159.363 410.047 159.228 409.53 159.184 409.002C159.436 409.396 159.757 409.746 160.137 410.026C160.897 410.586 161.895 410.824 162.845 410.749Z" stroke="#FFDC73" stroke-opacity="0.1"/>
<path d="M250.712 294.478C253.404 293.324 256.074 292.096 258.723 290.805C261.437 292.007 264.129 293.315 266.784 294.751C262.367 294.038 256.779 294.017 250.712 294.478Z" stroke="#FFDC73" stroke-opacity="0.1"/>
<path d="M119.533 234.546L119.103 234.354L118.886 234.771L116.362 239.614C116.362 239.614 116.362 239.614 116.362 239.614C115.973 240.36 115.619 241.112 115.286 241.864C110.084 237.126 106.213 230.593 104.397 223.653C110.67 230.607 118.031 234.046 125.215 235.807C125.773 236.419 126.331 237.022 126.892 237.621C126.088 237.394 125.294 237.112 124.511 236.769C124.511 236.769 124.51 236.768 124.51 236.768L119.533 234.546Z" stroke="#FFDC73" stroke-opacity="0.1"/>
<path d="M134.934 304.015L134.933 304.015C132.646 305.421 129.782 305.949 127.109 305.53C129.483 302.046 130.483 297.59 129.666 293.447C132.588 295.592 135.762 297.496 139.217 299.169C138.268 301.153 136.777 302.887 134.934 304.015Z" stroke="#FFDC73" stroke-opacity="0.1"/>
<path d="M100.309 294.179C104.752 296.559 110.384 296.685 114.848 294.226C114.994 294.148 115.137 294.066 115.279 293.982C115.393 296.535 114.811 299.167 113.708 301.464C112.485 304.012 110.639 306.112 108.445 307.244C103.723 309.681 97.4107 308.811 93.455 305.257C97.1802 302.782 99.7423 298.611 100.309 294.179Z" stroke="#FFDC73" stroke-opacity="0.1"/>
<path d="M95.1092 258.477L96.2256 259.125C93.2115 259.788 89.8068 258.861 87.4453 256.822C88.3841 256.292 89.2527 255.629 90.0251 254.879C91.6103 256.222 93.3049 257.433 95.109 258.477C95.1091 258.477 95.1092 258.477 95.1092 258.477Z" stroke="#FFDC73" stroke-opacity="0.1"/>
<path d="M68.3774 276.973L66.7829 272.764L66.7824 272.763C66.2695 271.419 65.8029 270.075 65.377 268.736C66.5728 269.398 67.8926 269.869 69.2778 270.093L69.2783 270.093C70.2005 270.241 71.1381 270.279 72.069 270.223C71.3783 272.927 70.0977 275.277 68.3774 276.973Z" stroke="#FFDC73" stroke-opacity="0.1"/>
<path d="M168.819 307.185C168.088 307.48 167.335 307.712 166.568 307.876C166.722 307.574 166.864 307.266 166.997 306.953C167.604 307.034 168.211 307.112 168.819 307.185Z" stroke="#FFDC73" stroke-opacity="0.1"/>
<path d="M144.373 301.408C143.505 301.985 142.496 302.355 141.477 302.448C141.851 301.871 142.186 301.267 142.478 300.643C143.103 300.903 143.734 301.158 144.373 301.408Z" stroke="#FFDC73" stroke-opacity="0.1"/>
<path d="M160.119 310.021L160.118 310.022C158.022 311.498 155.409 312.149 152.871 311.889C154.032 309.663 154.734 307.207 154.955 304.715C157.621 305.37 160.41 305.931 163.312 306.409C162.545 307.833 161.457 309.084 160.119 310.021Z" stroke="#FFDC73" stroke-opacity="0.1"/>
<path d="M109.186 245.709C110.539 246.263 111.921 246.734 113.34 247.115C112.993 248.308 112.719 249.504 112.491 250.69C110.694 250.299 108.977 249.463 107.591 248.266C108.232 247.507 108.766 246.644 109.186 245.709Z" stroke="#FFDC73" stroke-opacity="0.1"/>
<path d="M78.3303 263.986L78.3303 263.986L78.3281 263.988C78.2671 264.042 78.2046 264.095 78.1406 264.147C77.5405 261.756 77.0543 259.385 76.6749 257.055C78.332 257.827 80.1587 258.249 81.9936 258.25C81.2516 260.52 79.9764 262.531 78.3303 263.986Z" stroke="#FFDC73" stroke-opacity="0.1"/>
<path d="M85.2727 259.715C88.1014 262.072 91.9033 263.234 95.5654 262.838C95.0397 266.959 91.9987 270.809 88.0544 272.112L85.2727 259.715ZM85.2727 259.715C84.3247 262.44 82.7563 264.845 80.6694 266.673C80.1684 267.115 79.6403 267.503 79.1042 267.856L80.1445 271.651C82.6568 272.714 85.5319 272.944 88.0543 272.112L85.2727 259.715Z" stroke="#FFDC73" stroke-opacity="0.1"/>
<path d="M112.256 265.321C112.27 265.407 112.284 265.493 112.298 265.578C112.203 265.541 112.109 265.502 112.017 265.462C112.097 265.416 112.177 265.369 112.256 265.321Z" stroke="#FFDC73" stroke-opacity="0.1"/>
<path d="M69.8469 266.554C67.4638 266.167 65.2943 264.718 64.0442 262.788C65.7606 262.353 67.3301 261.54 68.6819 260.465C69.8958 262.613 71.2748 264.645 72.827 266.545C71.8247 266.704 70.8218 266.717 69.8489 266.555L69.8469 266.554Z" stroke="#FFDC73" stroke-opacity="0.1"/>
<path d="M149.25 330.501C145.532 328.017 142.002 325.106 138.787 321.568C143.055 321.031 147.175 318.998 150.113 315.862C151.638 318.976 152.119 322.462 151.419 325.671C151.033 327.418 150.27 329.069 149.25 330.501Z" stroke="#FFDC73" stroke-opacity="0.1"/>
<path d="M101.786 275.609C98.6787 276.987 94.7226 276.31 92.0961 274.12C95.4156 272.075 97.8871 268.711 98.8272 264.926C101.283 266.476 104.262 267.184 107.151 266.933C107.216 270.504 105.029 274.159 101.786 275.609Z" stroke="#FFDC73" stroke-opacity="0.1"/>
<path d="M96.788 289.103L96.7871 289.104C92.7098 290.987 87.5644 290.114 84.2548 287.079C87.5333 284.928 89.9682 281.533 90.8879 277.718C94.4647 280.094 99.2555 280.641 103.23 278.869L103.233 278.867C103.292 278.84 103.35 278.813 103.407 278.784C103.352 283.097 100.718 287.298 96.788 289.103Z" stroke="#FFDC73" stroke-opacity="0.1"/>
<path d="M113.248 278.553L113.248 278.553L113.245 278.553C110.937 278.614 108.635 277.814 106.842 276.361C108.88 274.344 110.262 271.644 110.652 268.794C111.454 269.137 112.295 269.378 113.146 269.524C113.947 272.47 115.043 275.298 116.383 277.948C115.381 278.319 114.323 278.531 113.248 278.553Z" stroke="#FFDC73" stroke-opacity="0.1"/>
<path d="M107.032 252.288C108.531 253.229 110.214 253.893 111.946 254.237C111.697 256.593 111.652 258.937 111.802 261.236C111.158 261.814 110.443 262.298 109.668 262.65L109.667 262.651C106.598 264.059 102.751 263.502 100.081 261.428C100.103 261.415 100.125 261.403 100.146 261.391L102.435 262.719L103.1 262.006L101.909 260.248C104.457 258.291 106.328 255.434 107.032 252.288Z" stroke="#FFDC73" stroke-opacity="0.1"/>
<path d="M122.431 305.531L122.429 305.533C119.876 307.873 116.219 308.98 112.759 308.588C116.513 305.332 118.866 300.011 118.886 294.712C121.059 295.461 123.582 295.869 125.851 295.077L125.851 295.078L125.862 295.074C125.99 295.026 126.118 294.977 126.246 294.926C126.733 298.791 125.307 302.916 122.431 305.531Z" stroke="#FFDC73" stroke-opacity="0.1"/>
<mask id="path-49-inside-2_991:12260" fill="white">
<path d="M81.4309 243.542L81.445 243.556L81.4309 243.542Z"/>
</mask>
<path d="M80.7241 244.25L80.7382 244.264L82.1519 242.849L82.1377 242.835L80.7241 244.25ZM82.1519 242.849L82.1377 242.835L80.7241 244.25L80.7382 244.264L82.1519 242.849Z" fill="#FFDC73" fill-opacity="0.1" mask="url(#path-49-inside-2_991:12260)"/>
<path d="M147.7 313.181L147.7 313.181C145.396 315.77 142.088 317.487 138.623 317.995C141.058 314.562 142.061 310.186 141.351 306.041C143.95 305.929 146.482 304.719 148.207 302.784C149.262 303.131 150.336 303.46 151.436 303.778C151.286 307.22 149.974 310.628 147.7 313.181Z" stroke="#FFDC73" stroke-opacity="0.1"/>
<path d="M188.812 315.626L188.812 315.626L188.814 315.623C189.15 315.128 189.45 314.608 189.72 314.073C192.222 317.231 193.058 321.674 191.777 325.501C191.042 325.573 190.291 325.649 189.549 325.746L189.48 326.724C189.959 326.856 190.414 326.994 190.87 327.131C190.924 327.147 190.978 327.163 191.033 327.18C189.626 329.866 187.174 331.992 184.32 333.037C185.372 328.851 184.706 324.233 182.52 320.506C185.041 319.557 187.284 317.838 188.812 315.626Z" stroke="#FFDC73" stroke-opacity="0.1"/>
<path d="M176.777 318.193L176.777 318.193C175.219 321.407 172.169 323.895 168.715 324.902C170.118 320.466 169.553 315.411 167.229 311.392C169.995 310.826 172.578 309.558 174.745 307.754C175.55 307.821 176.354 307.887 177.165 307.937C178.413 311.226 178.304 315.05 176.777 318.193Z" stroke="#FFDC73" stroke-opacity="0.1"/>
<path d="M201.334 312.663C202.214 312.686 203.105 312.728 203.993 312.773C203.921 314 203.664 315.216 203.215 316.358C202.754 317.516 202.102 318.582 201.301 319.545C201.254 319.553 201.206 319.56 201.156 319.568L201.152 319.568C201.042 319.585 200.922 319.603 200.804 319.625L200.812 320.114C199.45 321.557 197.73 322.662 195.838 323.293C196.185 319.757 195.338 316.092 193.427 313.087C196.002 312.078 198.19 310.068 199.435 307.589C200.64 307.483 201.838 307.366 203.045 307.231C203.599 308.523 203.922 309.911 203.996 311.316C203.786 311.342 203.574 311.369 203.362 311.395C202.668 311.482 201.967 311.57 201.276 311.668L201.334 312.663Z" stroke="#FFDC73" stroke-opacity="0.1"/>
<path d="M67.4014 302.729L67.4022 302.729C69.1832 302.891 70.9749 302.734 72.6997 302.269C72.5312 304.66 71.7776 306.999 70.566 309.078C69.0579 306.966 67.6233 304.801 66.2831 302.585C66.6519 302.646 67.0246 302.695 67.4014 302.729Z" stroke="#FFDC73" stroke-opacity="0.1"/>
<path d="M136.533 347.981L136.533 347.981C137.092 344.893 136.901 341.637 136.025 338.605C139.264 339.473 142.83 339.218 145.975 337.774C147.042 337.292 148.035 336.664 148.956 335.934C148.971 335.947 148.986 335.959 149.001 335.972C149.216 336.152 149.433 336.333 149.652 336.51C149.94 340.7 148.407 345.082 145.492 348.075C142.822 350.809 138.972 352.407 135.12 352.516C135.768 351.065 136.252 349.535 136.533 347.981Z" stroke="#FFDC73" stroke-opacity="0.1"/>
<path d="M137.989 324.47C140.395 327.748 143.169 330.741 146.195 333.514C145.643 333.901 145.069 334.238 144.466 334.52C141.42 335.925 137.725 335.801 134.846 334.308C136.883 331.464 137.997 327.971 137.989 324.47Z" stroke="#FFDC73" stroke-opacity="0.1"/>
<path d="M113.936 323.337L113.934 323.338C111.429 323.86 108.719 323.689 106.096 322.88C109.236 320.178 111.26 316.157 111.44 312.001C115.646 312.715 120.142 311.664 123.587 309.156C124.345 311.834 123.967 314.93 122.473 317.447L122.473 317.447C120.736 320.386 117.546 322.6 113.936 323.337Z" stroke="#FFDC73" stroke-opacity="0.1"/>
<path d="M180.391 333.657L180.391 333.657C178.997 337.195 175.86 339.971 172.213 341.119C172 341.048 171.789 340.977 171.578 340.904C172.616 336.698 172.073 332.104 170.007 328.292C173.647 327.158 176.836 324.764 178.938 321.578C181.332 325.042 181.941 329.738 180.391 333.657Z" stroke="#FFDC73" stroke-opacity="0.1"/>
<path d="M137.761 306.397C138.467 310.056 137.443 314.094 135.021 316.875C134.534 316.209 134.059 315.538 133.593 314.834L132.716 315.305C133.095 316.197 133.515 317.065 133.947 317.914C131.403 320.124 127.847 321.208 124.471 320.855C124.873 320.353 125.245 319.823 125.572 319.264C127.365 316.206 127.954 312.51 127.277 309.154C130.555 309.518 133.954 308.799 136.807 307.05L136.808 307.05C137.137 306.847 137.454 306.626 137.761 306.397Z" stroke="#FFDC73" stroke-opacity="0.1"/>
<path d="M123.091 324.293C126.912 324.966 130.92 324.162 134.212 322.138C135.08 326.529 133.521 331.33 130.133 334.282L123.091 324.293ZM123.091 324.293C122.808 328.902 120.711 333.395 117.433 336.637M123.091 324.293L117.433 336.637M117.433 336.637C121.676 338.15 126.709 337.259 130.133 334.282L117.433 336.637Z" stroke="#FFDC73" stroke-opacity="0.1"/>
<path d="M191.134 308.118C192.374 308.075 193.618 308.013 194.859 307.936C193.802 309.017 192.442 309.796 190.984 310.092C191.086 309.436 191.135 308.777 191.134 308.118Z" stroke="#FFDC73" stroke-opacity="0.1"/>
<path d="M185.862 313.596C184.675 315.291 182.912 316.596 180.941 317.263C181.815 314.289 181.829 311.098 181.003 308.117C183.19 308.187 185.377 308.21 187.563 308.193C187.529 310.115 186.946 312.035 185.862 313.596Z" stroke="#FFDC73" stroke-opacity="0.1"/>
<path d="M162.209 312.94L162.209 312.94L162.212 312.937C162.617 312.647 162.997 312.335 163.363 312.009C166.279 315.875 166.798 321.488 164.534 325.776C162.272 330.041 157.318 332.772 152.507 332.555C152.423 332.511 152.339 332.465 152.256 332.418C153.507 330.639 154.439 328.597 154.919 326.432L154.919 326.431C155.707 322.846 155.328 319.025 153.905 315.526C156.848 315.542 159.783 314.652 162.209 312.94Z" stroke="#FFDC73" stroke-opacity="0.1"/>
<path d="M100.483 322.116L100.483 322.116C96.1056 323.701 90.6344 321.996 87.7627 318.309C90.5307 316.158 92.5118 312.983 93.1989 309.542C97.4965 312.27 103.022 312.961 107.859 311.337C107.876 315.919 104.778 320.564 100.483 322.116Z" stroke="#FFDC73" stroke-opacity="0.1"/>
<path d="M186.177 336.149C189.778 334.639 192.797 331.787 194.469 328.259C195.044 328.446 195.606 328.64 196.163 328.835C198.174 331.362 199.266 334.642 199.047 337.817C198.816 341.097 197.191 344.29 194.731 346.522C193.097 346.315 191.471 346.068 189.833 345.807C190.025 342.26 188.663 338.676 186.177 336.149Z" stroke="#FFDC73" stroke-opacity="0.1"/>
<path d="M218.902 345.037L218.902 345.037C219.051 344.346 219.125 343.64 219.131 342.936C220.844 344.716 222.475 346.587 224.218 348.585C225.178 349.687 226.173 350.827 227.233 352.012C224.065 350.816 220.572 349.981 216.908 349.331C217.856 348.069 218.563 346.613 218.902 345.037Z" stroke="#FFDC73" stroke-opacity="0.1"/>
<path d="M201.466 330.879C204.212 332.053 206.58 333.264 208.682 334.517C207.067 336.067 204.818 336.984 202.63 336.874C202.622 334.82 202.209 332.78 201.466 330.879Z" stroke="#FFDC73" stroke-opacity="0.1"/>
<path d="M215.4 344.281C215.032 345.985 214.011 347.547 212.627 348.649C211.72 348.518 210.804 348.396 209.879 348.282C209.891 346.432 209.503 344.559 208.686 342.886C208.155 341.778 207.447 340.756 206.609 339.864C208.571 339.203 210.355 338.03 211.732 336.487C212.574 337.077 213.365 337.668 214.114 338.277C215.322 340.02 215.828 342.254 215.4 344.281Z" stroke="#FFDC73" stroke-opacity="0.1"/>
<path d="M206.311 347.85C205.218 347.726 204.125 347.605 203.028 347.485C201.736 347.343 200.44 347.201 199.136 347.051C200.558 345.22 201.612 343.088 202.177 340.824C203.59 341.688 204.762 342.96 205.48 344.438C205.98 345.496 206.261 346.673 206.311 347.85Z" stroke="#FFDC73" stroke-opacity="0.1"/>
<path d="M114.057 339.286C114.906 340.892 115.374 342.71 115.469 344.552C113.245 343.522 111.053 342.451 108.901 341.341C110.706 340.917 112.453 340.232 114.057 339.286Z" stroke="#FFDC73" stroke-opacity="0.1"/>
<path d="M168.195 339.715C164.722 338.454 161.248 337.05 157.84 335.401C161.258 334.349 164.36 332.22 166.479 329.352C168.373 332.387 168.965 336.211 168.195 339.715Z" stroke="#FFDC73" stroke-opacity="0.1"/>
<path d="M79.799 285.346L79.7986 285.346C75.5634 286.766 70.4347 285.338 67.4316 282.033C67.7014 281.894 67.9653 281.745 68.2246 281.587L69.7715 283.365L70.6162 282.859L69.7379 280.545C70.0452 280.301 70.3494 280.042 70.6385 279.775L70.6385 279.775L70.6426 279.771C72.6018 277.916 74.1218 275.473 75.0815 272.702C78.5008 275.561 83.2142 276.783 87.6006 275.894C86.9434 280.11 83.8298 283.998 79.799 285.346Z" stroke="#FFDC73" stroke-opacity="0.1"/>
<path d="M119.061 346.186C119.171 344.317 118.97 342.426 118.448 340.619C123.069 341.531 128.077 340.424 131.819 337.513C133.164 340.574 133.609 344.064 133.012 347.337C132.749 348.725 132.301 350.083 131.697 351.381C127.442 349.754 123.215 348.03 119.061 346.186Z" stroke="#FFDC73" stroke-opacity="0.1"/>
<path d="M210.062 365.517L210.062 365.517C203.245 362.172 196.192 359.5 189.099 356.813C186.365 355.778 183.626 354.74 180.892 353.661C171.353 349.895 161.917 345.635 153.181 339.225C152.814 343.436 151.031 347.501 148.05 350.573L210.062 365.517ZM210.062 365.517C214.338 367.614 217.972 369.713 220.776 371.766C223.589 373.826 225.524 375.808 226.457 377.658C226.921 378.576 227.13 379.447 227.092 380.274C227.053 381.096 226.768 381.907 226.19 382.707C225.02 384.325 222.654 385.892 218.786 387.313L218.785 387.313C213.075 389.429 205.112 391.482 198.606 392.541L198.605 392.541C194.318 393.244 188.916 394.244 184.404 395.531C182.15 396.174 180.097 396.895 178.511 397.695C177.718 398.095 177.027 398.523 176.483 398.98C175.941 399.436 175.517 399.943 175.3 400.509L175.714 400.667L175.3 400.509C174.988 401.325 174.789 402.503 174.584 403.781C174.567 403.883 174.551 403.986 174.534 404.09C174.339 405.309 174.125 406.64 173.803 407.958C173.098 410.842 171.91 413.485 169.454 414.656C168.604 415.06 167.522 415.195 166.568 414.977C165.625 414.761 164.846 414.215 164.489 413.28C164.09 412.221 164.578 411.261 165.26 410.85C165.597 410.647 165.95 410.596 166.256 410.694C166.554 410.791 166.893 411.059 167.148 411.671L167.362 412.186L167.851 411.917C169.417 411.053 170.347 410.005 170.744 408.831C171.14 407.661 170.978 406.447 170.528 405.304C169.637 403.039 167.552 400.885 165.873 399.461C163.749 397.658 162.559 395.424 161.409 393.076C161.312 392.877 161.216 392.678 161.118 392.478C160.075 390.331 158.994 388.107 157.195 386.21L157.194 386.21C156.428 385.403 155.382 384.437 154.101 384.156L154.1 384.156C153.459 384.017 152.898 384.196 152.476 384.331C152.422 384.348 152.371 384.365 152.322 384.38C151.87 384.518 151.521 384.583 151.078 384.381C150.505 384.118 150.266 383.787 150.183 383.48C150.096 383.155 150.157 382.759 150.375 382.336C150.823 381.468 151.801 380.737 152.651 380.654L152.653 380.654C153.471 380.571 154.338 380.854 155.251 381.449C156.163 382.044 157.08 382.924 157.977 383.959C159.495 385.712 160.9 387.843 162.089 389.645C162.306 389.975 162.516 390.294 162.719 390.597L163.572 390.077C162.982 389.016 162.572 387.862 162.168 386.657C162.122 386.519 162.076 386.381 162.029 386.242C161.675 385.176 161.308 384.076 160.818 383.028L160.818 383.027C160.789 382.965 160.759 382.901 160.728 382.835C160.472 382.288 160.146 381.591 159.745 380.951C159.302 380.244 158.72 379.528 157.959 379.172C157.564 378.984 157.171 378.956 156.822 378.971C156.649 378.979 156.479 378.997 156.323 379.016C156.303 379.018 156.284 379.02 156.264 379.023C156.127 379.039 156.002 379.053 155.878 379.062C155.596 379.083 155.363 379.071 155.148 378.994C154.941 378.92 154.709 378.77 154.458 378.446L154.458 378.445C153.887 377.709 153.765 377.145 153.827 376.749C153.888 376.358 154.146 376.015 154.59 375.752C155.506 375.209 157.011 375.139 158.103 375.703C160.655 377.024 162.569 380.026 163.065 382.849L164.056 382.8C164.198 380.929 163.864 378.684 162.807 377.011L162.701 376.843L162.509 376.794C161.443 376.518 160.399 375.664 159.72 374.677C159.383 374.188 159.154 373.691 159.054 373.251C158.967 372.867 158.985 372.564 159.074 372.344C159.723 371.944 160.298 371.872 160.828 371.991C161.41 372.122 161.999 372.497 162.601 373.075C163.616 374.049 164.545 375.469 165.453 376.857C165.63 377.127 165.806 377.397 165.982 377.661C166.533 378.654 166.765 379.753 166.859 380.927C166.923 381.731 166.922 382.535 166.921 383.358C166.92 383.765 166.92 384.176 166.927 384.594C166.97 387.075 167.297 389.628 169.838 391.487L169.84 391.489C171.247 392.507 172.918 392.466 174.517 392.143C175.321 391.981 176.136 391.742 176.919 391.509L177.033 391.475C177.783 391.252 178.501 391.038 179.187 390.891C187.464 389.136 195.548 386.437 203.235 382.875L203.237 382.874C204.771 382.156 205.669 381.388 206.123 380.561L206.201 380.42L206.181 380.26C206.046 379.144 205.35 378.119 204.286 377.167C203.217 376.211 201.727 375.282 199.895 374.363C196.231 372.524 191.103 370.674 184.997 368.702C180.697 367.313 175.91 365.864 170.789 364.313C161.731 361.571 151.631 358.513 141.341 354.918M210.062 365.517L141.341 354.918M141.341 354.918C143.851 353.98 146.164 352.519 148.05 350.573L141.341 354.918Z" stroke="#FFDC73" stroke-opacity="0.1"/>
<path d="M236.34 320.634C227.185 316.43 217.48 313.909 207.565 313.007C207.466 314.586 207.145 316.163 206.56 317.653L236.34 320.634ZM236.34 320.634C226.359 318.221 216.119 317.621 206.019 318.843C206.215 318.459 206.398 318.064 206.56 317.653L236.34 320.634Z" stroke="#FFDC73" stroke-opacity="0.1"/>
<path d="M207.537 310.916C207.445 309.505 207.162 308.101 206.689 306.763C211.274 306.14 215.857 305.316 220.424 304.295L220.414 305.1C230.893 306.638 241.155 309.31 250.947 313.481C236.689 309.963 222.077 309.456 207.537 310.916ZM272.994 309.576C256.622 303.906 239.29 302.048 222.062 303.92C228.671 302.372 235.24 300.41 241.722 298.044C252.605 300.415 263.137 304.251 272.994 309.576Z" stroke="#FFDC73" stroke-opacity="0.1"/>
<path d="M200.375 325.057C201.927 324.066 203.305 322.81 204.431 321.343C211.212 322.862 217.832 325.14 224.252 328.264C216.336 326.063 208.369 325.025 200.375 325.057Z" stroke="#FFDC73" stroke-opacity="0.1"/>
<path d="M63.1333 243.706C62.7981 243.777 62.4596 243.832 62.1194 243.874C62.2346 242.265 62.4174 240.684 62.6692 239.132C62.762 240.679 62.9161 242.205 63.1333 243.706Z" stroke="#FFDC73" stroke-opacity="0.1"/>
<path d="M124.66 291.706L124.66 291.706L124.657 291.707C123.337 292.184 121.335 291.934 118.902 290.895C120.117 289.47 121.062 287.824 121.699 286.068C123.124 287.789 124.654 289.37 126.272 290.78L126.28 290.787L126.288 290.794C126.317 290.817 126.345 290.84 126.374 290.862C125.834 291.209 125.257 291.494 124.66 291.706Z" stroke="#FFDC73" stroke-opacity="0.1"/>
<path d="M79.1544 241.232L79.1544 241.232L79.1469 241.235C78.0946 241.649 76.9589 241.757 75.8445 241.579C76.0275 238.697 76.41 235.917 76.9969 233.252C77.5997 235.921 78.4825 238.53 79.6218 241.024C79.4668 241.103 79.3112 241.174 79.1544 241.232Z" stroke="#FFDC73" stroke-opacity="0.1"/>
<path d="M93.7474 235.633C92.9401 235.971 92.0731 236.141 91.2115 236.157C90.9194 234.001 90.7703 231.833 90.7858 229.675C91.9127 231.607 93.2135 233.434 94.666 235.136C94.3712 235.332 94.0636 235.499 93.7474 235.633Z" stroke="#FFDC73" stroke-opacity="0.1"/>
<path d="M178.797 343.255L178.797 343.255L178.793 343.253C178.296 343.1 177.804 342.942 177.306 342.781C177.259 342.766 177.212 342.751 177.165 342.736C179.241 341.425 181.044 339.666 182.366 337.603C184.773 339.234 186.258 342.199 186.279 345.144C183.721 344.626 181.21 344.021 178.797 343.255Z" stroke="#FFDC73" stroke-opacity="0.1"/>
<path d="M92.4332 242.029C92.2199 241.255 92.0264 240.476 91.8529 239.692C92.3736 239.654 92.8962 239.578 93.4141 239.461C93.2744 240.369 92.9399 241.262 92.4332 242.029Z" stroke="#FFDC73" stroke-opacity="0.1"/>
<path d="M76.0582 252.452C78.1926 254.286 81.1689 255.137 83.8578 254.449L76.0582 252.452ZM76.0582 252.452C76.0054 251.869 75.9536 251.281 75.9088 250.699C77.6156 249.626 79.0256 248.062 79.8703 246.213C81.0818 247.085 82.395 247.717 83.7353 248.098C84.8522 249.623 86.0798 251.082 87.4088 252.436C86.3979 253.393 85.1948 254.106 83.8581 254.449L76.0582 252.452Z" stroke="#FFDC73" stroke-opacity="0.1"/>
<path d="M96.7233 251.168C99.0293 251.898 101.478 251.853 103.608 251.067C103.187 253.472 101.822 255.755 99.9095 257.31L98.3525 255.009C98.3524 255.009 98.3523 255.008 98.3522 255.008C97.4557 253.679 96.6375 252.294 95.8978 250.87C96.1681 250.98 96.444 251.08 96.7233 251.168Z" stroke="#FFDC73" stroke-opacity="0.1"/>
<path d="M75.717 245.131C75.9284 245.157 76.1417 245.178 76.3571 245.192C76.1691 245.52 75.9541 245.835 75.716 246.131C75.7138 245.797 75.7144 245.463 75.717 245.131Z" stroke="#FFDC73" stroke-opacity="0.1"/>
<path d="M63.0202 259.363C62.4232 256.057 62.0764 252.803 61.9904 249.634C62.1801 249.399 62.3699 249.159 62.5553 248.917C63.1535 249.546 63.8436 250.09 64.5771 250.561C65.2363 252.855 66.0499 255.079 67.0181 257.199C65.8573 258.232 64.4959 259.004 63.0202 259.363Z" stroke="#FFDC73" stroke-opacity="0.1"/>
<path d="M94.4309 245.233L94.4366 245.227L94.4421 245.221C95.7914 243.782 96.6456 241.967 96.9465 240.082C98.1309 240.552 99.4196 240.793 100.694 240.844C102.333 242.094 104.076 243.218 105.912 244.186C105.287 245.608 104.297 246.75 103.09 247.399L103.089 247.4C101.587 248.213 99.6573 248.351 97.7903 247.759C96.3503 247.294 95.1406 246.432 94.3159 245.345C94.3546 245.308 94.3932 245.27 94.4309 245.233Z" stroke="#FFDC73" stroke-opacity="0.1"/>
<path d="M89.6706 303.257L89.6704 303.257C85.351 305.047 80.0125 303.845 76.768 300.489C80.1203 298.37 82.6327 294.98 83.6558 291.148C87.4922 293.666 92.4717 294.349 96.8404 292.894C96.6283 297.305 93.7713 301.559 89.6706 303.257Z" stroke="#FFDC73" stroke-opacity="0.1"/>
<path d="M113.338 282.132L113.338 282.132C114.995 282.092 116.622 281.707 118.131 281.067C118.39 281.498 118.652 281.929 118.933 282.355C118.451 285.961 116.316 289.329 113.126 291.084L113.126 291.085C109.45 293.115 104.695 292.809 101.199 290.51C104.235 288.085 106.32 284.48 106.863 280.629C108.845 281.651 111.085 282.183 113.338 282.132Z" stroke="#FFDC73" stroke-opacity="0.1"/>
<path d="M66.714 286.243C70.546 289.184 75.78 290.283 80.4684 288.888C79.8638 293.18 76.8179 297.049 72.7334 298.542C69.8373 299.593 66.5741 299.375 63.7819 298.147C63.0216 296.742 62.2947 295.327 61.6105 293.893C64.1117 292.017 65.9559 289.284 66.714 286.243Z" stroke="#FFDC73" stroke-opacity="0.1"/>
<path d="M53.6763 268.779C53.2125 265.969 52.8793 263.141 52.6845 260.295C53.0082 260.542 53.3421 260.773 53.6815 260.99C54.5636 262.994 55.5734 264.937 56.6888 266.821C55.7914 267.63 54.7723 268.297 53.6763 268.779Z" stroke="#FFDC73" stroke-opacity="0.1"/>
<path d="M87.2224 322.848C90.9202 325.85 96.0731 327.061 100.7 325.783C100.509 328 99.6943 330.15 98.3469 331.912C97.7378 332.696 97.0349 333.397 96.2572 333.994C92.8171 331.703 89.5357 329.194 86.4246 326.488C86.7821 325.303 87.054 324.086 87.2224 322.848Z" stroke="#FFDC73" stroke-opacity="0.1"/>
<path d="M82.765 317.04L82.7644 317.04C80.9909 317.669 79.0583 317.739 77.1915 317.368C75.6839 315.679 74.2355 313.944 72.8568 312.163C74.4226 309.894 75.5281 307.302 76.0323 304.59C79.9477 307.462 85.2478 308.417 89.8977 306.95C89.858 311.319 86.9004 315.579 82.765 317.04Z" stroke="#FFDC73" stroke-opacity="0.1"/>
<path d="M83.419 323.774C82.4964 322.907 81.5914 322.022 80.7041 321.12C81.762 321.024 82.8023 320.805 83.8144 320.465C83.7796 321.577 83.6477 322.686 83.419 323.774Z" stroke="#FFDC73" stroke-opacity="0.1"/>
<path d="M62.663 275.22L62.6639 275.22L65.821 278.849C63.936 279.837 61.8313 280.226 59.9203 279.897C58.2004 279.598 56.6279 278.649 55.5139 277.381C55.0745 275.725 54.6793 274.046 54.3284 272.366C55.8719 271.788 57.3183 270.935 58.5884 269.872C59.8358 271.725 61.1903 273.518 62.663 275.22Z" stroke="#FFDC73" stroke-opacity="0.1"/>
<path d="M114.668 326.855L114.671 326.854C116.349 326.502 117.948 325.896 119.418 325.084C118.845 329.455 116.318 333.602 112.619 335.999C109.846 337.783 106.429 338.529 103.113 338.224C102 337.587 100.904 336.952 99.8339 336.305L99.834 336.305L99.825 336.3C99.6785 336.215 99.5353 336.125 99.3872 336.03C100.032 335.448 100.632 334.816 101.171 334.12L101.172 334.118C102.952 331.802 104.039 328.989 104.288 326.093C107.705 327.269 111.312 327.542 114.668 326.855Z" stroke="#FFDC73" stroke-opacity="0.1"/>
<path d="M60.24 283.548L60.24 283.549L60.2465 283.549C61.3277 283.633 62.4145 283.565 63.4894 283.373C63.4262 286.047 62.1079 288.695 60.069 290.518C58.9835 287.984 57.9998 285.406 57.1328 282.8C57.8234 283.078 58.5475 283.289 59.2971 283.42C59.6111 283.477 59.9255 283.52 60.24 283.548Z" stroke="#FFDC73" stroke-opacity="0.1"/>
</svg>
